%TF.GenerationSoftware,KiCad,Pcbnew,7.0.6*%
%TF.CreationDate,2023-11-23T00:40:04+08:00*%
%TF.ProjectId,handfull-mini,68616e64-6675-46c6-9c2d-6d696e692e6b,rev?*%
%TF.SameCoordinates,Original*%
%TF.FileFunction,Soldermask,Bot*%
%TF.FilePolarity,Negative*%
%FSLAX46Y46*%
G04 Gerber Fmt 4.6, Leading zero omitted, Abs format (unit mm)*
G04 Created by KiCad (PCBNEW 7.0.6) date 2023-11-23 00:40:04*
%MOMM*%
%LPD*%
G01*
G04 APERTURE LIST*
G04 Aperture macros list*
%AMHorizOval*
0 Thick line with rounded ends*
0 $1 width*
0 $2 $3 position (X,Y) of the first rounded end (center of the circle)*
0 $4 $5 position (X,Y) of the second rounded end (center of the circle)*
0 Add line between two ends*
20,1,$1,$2,$3,$4,$5,0*
0 Add two circle primitives to create the rounded ends*
1,1,$1,$2,$3*
1,1,$1,$4,$5*%
%AMFreePoly0*
4,1,6,0.600000,-0.250000,-0.600000,-0.250000,-0.600000,1.000000,0.000000,0.400000,0.600000,1.000000,0.600000,-0.250000,0.600000,-0.250000,$1*%
%AMFreePoly1*
4,1,6,0.600000,0.200000,0.000000,-0.400000,-0.600000,0.200000,-0.600000,0.400000,0.600000,0.400000,0.600000,0.200000,0.600000,0.200000,$1*%
G04 Aperture macros list end*
%ADD10C,0.250000*%
%ADD11R,1.600000X1.200000*%
%ADD12C,1.600000*%
%ADD13R,1.600000X1.600000*%
%ADD14FreePoly0,0.000000*%
%ADD15FreePoly0,90.000000*%
%ADD16O,2.500000X1.500000*%
%ADD17FreePoly0,180.000000*%
%ADD18O,1.500000X2.500000*%
%ADD19FreePoly1,180.000000*%
%ADD20FreePoly1,90.000000*%
%ADD21FreePoly1,0.000000*%
%ADD22C,1.701800*%
%ADD23C,5.000000*%
%ADD24C,1.750000*%
%ADD25HorizOval,1.300000X0.283521X0.528787X-0.283521X-0.528787X0*%
%ADD26HorizOval,1.300000X0.448909X0.837246X-0.448909X-0.837246X0*%
%ADD27C,0.700000*%
G04 APERTURE END LIST*
D10*
%TO.C,U1*%
X105084000Y-57110000D02*
G75*
G03*
X105084000Y-57110000I-125000J0D01*
G01*
X104195000Y-54570000D02*
G75*
G03*
X104195000Y-54570000I-125000J0D01*
G01*
X79065000Y-50490000D02*
G75*
G03*
X79065000Y-50490000I-125000J0D01*
G01*
X81605000Y-50490000D02*
G75*
G03*
X81605000Y-50490000I-125000J0D01*
G01*
X84145000Y-50490000D02*
G75*
G03*
X84145000Y-50490000I-125000J0D01*
G01*
X86685000Y-50490000D02*
G75*
G03*
X86685000Y-50490000I-125000J0D01*
G01*
X89225000Y-50490000D02*
G75*
G03*
X89225000Y-50490000I-125000J0D01*
G01*
X91765000Y-50490000D02*
G75*
G03*
X91765000Y-50490000I-125000J0D01*
G01*
X94305000Y-50490000D02*
G75*
G03*
X94305000Y-50490000I-125000J0D01*
G01*
X96845000Y-50490000D02*
G75*
G03*
X96845000Y-50490000I-125000J0D01*
G01*
X102671000Y-50490000D02*
G75*
G03*
X102671000Y-50490000I-125000J0D01*
G01*
X79065000Y-48490000D02*
G75*
G03*
X79065000Y-48490000I-125000J0D01*
G01*
X81605000Y-48490000D02*
G75*
G03*
X81605000Y-48490000I-125000J0D01*
G01*
X84145000Y-48490000D02*
G75*
G03*
X84145000Y-48490000I-125000J0D01*
G01*
X86685000Y-48490000D02*
G75*
G03*
X86685000Y-48490000I-125000J0D01*
G01*
X89225000Y-48490000D02*
G75*
G03*
X89225000Y-48490000I-125000J0D01*
G01*
X91765000Y-48490000D02*
G75*
G03*
X91765000Y-48490000I-125000J0D01*
G01*
X94305000Y-48490000D02*
G75*
G03*
X94305000Y-48490000I-125000J0D01*
G01*
X96845000Y-48490000D02*
G75*
G03*
X96845000Y-48490000I-125000J0D01*
G01*
X102671000Y-48490000D02*
G75*
G03*
X102671000Y-48490000I-125000J0D01*
G01*
X103941000Y-44410000D02*
G75*
G03*
X103941000Y-44410000I-125000J0D01*
G01*
X105084000Y-41870000D02*
G75*
G03*
X105084000Y-41870000I-125000J0D01*
G01*
%TD*%
D11*
%TO.C,D42*%
X196990000Y-141080000D03*
X194190000Y-141080000D03*
D12*
X199490000Y-141080000D03*
D13*
X191690000Y-141080000D03*
%TD*%
D11*
%TO.C,D41*%
X182170000Y-128860000D03*
X179370000Y-128860000D03*
D12*
X184670000Y-128860000D03*
D13*
X176870000Y-128860000D03*
%TD*%
D11*
%TO.C,D32*%
X105960000Y-112920000D03*
X103160000Y-112920000D03*
D12*
X108460000Y-112920000D03*
D13*
X100660000Y-112920000D03*
%TD*%
D11*
%TO.C,D33*%
X123730000Y-99850000D03*
X120930000Y-99850000D03*
D12*
X126230000Y-99850000D03*
D13*
X118430000Y-99850000D03*
%TD*%
D11*
%TO.C,D34*%
X141580000Y-96270000D03*
X138780000Y-96270000D03*
D12*
X144080000Y-96270000D03*
D13*
X136280000Y-96270000D03*
%TD*%
D11*
%TO.C,D36*%
X177400000Y-106170000D03*
X174600000Y-106170000D03*
D12*
X179900000Y-106170000D03*
D13*
X172100000Y-106170000D03*
%TD*%
D11*
%TO.C,D35*%
X159210000Y-102730000D03*
X156410000Y-102730000D03*
D12*
X161710000Y-102730000D03*
D13*
X153910000Y-102730000D03*
%TD*%
D11*
%TO.C,D26*%
X177680000Y-89390000D03*
X174880000Y-89390000D03*
D12*
X180180000Y-89390000D03*
D13*
X172380000Y-89390000D03*
%TD*%
D11*
%TO.C,D25*%
X160050000Y-85590000D03*
X157250000Y-85590000D03*
D12*
X162550000Y-85590000D03*
D13*
X154750000Y-85590000D03*
%TD*%
D11*
%TO.C,D11*%
X87400000Y-79300000D03*
X84600000Y-79300000D03*
D12*
X89900000Y-79300000D03*
D13*
X82100000Y-79300000D03*
%TD*%
D11*
%TO.C,D6*%
X177400000Y-55600000D03*
X174600000Y-55600000D03*
D12*
X179900000Y-55600000D03*
D13*
X172100000Y-55600000D03*
%TD*%
D11*
%TO.C,D4*%
X141400000Y-45300000D03*
X138600000Y-45300000D03*
D12*
X143900000Y-45300000D03*
D13*
X136100000Y-45300000D03*
%TD*%
D11*
%TO.C,D21*%
X87560000Y-96340000D03*
X84760000Y-96340000D03*
D12*
X90060000Y-96340000D03*
D13*
X82260000Y-96340000D03*
%TD*%
D11*
%TO.C,D3*%
X123400000Y-48800000D03*
X120600000Y-48800000D03*
D12*
X125900000Y-48800000D03*
D13*
X118100000Y-48800000D03*
%TD*%
D11*
%TO.C,D16*%
X177400000Y-72670000D03*
X174600000Y-72670000D03*
D12*
X179900000Y-72670000D03*
D13*
X172100000Y-72670000D03*
%TD*%
D11*
%TO.C,D15*%
X159770000Y-68520000D03*
X156970000Y-68520000D03*
D12*
X162270000Y-68520000D03*
D13*
X154470000Y-68520000D03*
%TD*%
D11*
%TO.C,D5*%
X159400000Y-51700000D03*
X156600000Y-51700000D03*
D12*
X161900000Y-51700000D03*
D13*
X154100000Y-51700000D03*
%TD*%
D11*
%TO.C,D14*%
X141430000Y-62200000D03*
X138630000Y-62200000D03*
D12*
X143930000Y-62200000D03*
D13*
X136130000Y-62200000D03*
%TD*%
D11*
%TO.C,D24*%
X141510000Y-79550000D03*
X138710000Y-79550000D03*
D12*
X144010000Y-79550000D03*
D13*
X136210000Y-79550000D03*
%TD*%
D11*
%TO.C,D13*%
X123880000Y-65570000D03*
X121080000Y-65570000D03*
D12*
X126380000Y-65570000D03*
D13*
X118580000Y-65570000D03*
%TD*%
%TO.C,D2*%
X100100000Y-62300000D03*
D12*
X107900000Y-62300000D03*
D11*
X102600000Y-62300000D03*
X105400000Y-62300000D03*
%TD*%
%TO.C,D23*%
X123590000Y-82640000D03*
X120790000Y-82640000D03*
D12*
X126090000Y-82640000D03*
D13*
X118290000Y-82640000D03*
%TD*%
D11*
%TO.C,D31*%
X87840000Y-113060000D03*
X85040000Y-113060000D03*
D12*
X90340000Y-113060000D03*
D13*
X82540000Y-113060000D03*
%TD*%
D11*
%TO.C,D22*%
X105330000Y-96340000D03*
X102530000Y-96340000D03*
D12*
X107830000Y-96340000D03*
D13*
X100030000Y-96340000D03*
%TD*%
D11*
%TO.C,D12*%
X105780000Y-79600000D03*
X102980000Y-79600000D03*
D12*
X108280000Y-79600000D03*
D13*
X100480000Y-79600000D03*
%TD*%
D11*
%TO.C,D1*%
X87400000Y-62300000D03*
X84600000Y-62300000D03*
D12*
X89900000Y-62300000D03*
D13*
X82100000Y-62300000D03*
%TD*%
D14*
%TO.C,U1*%
X78940000Y-45073000D03*
X81480000Y-45073000D03*
X84020000Y-45073000D03*
X86560000Y-45073000D03*
X89100000Y-45073000D03*
X91640000Y-45073000D03*
X94180000Y-45073000D03*
X96720000Y-45073000D03*
D15*
X102933000Y-41870000D03*
X102933000Y-44410000D03*
X102933000Y-46950000D03*
D16*
X99760000Y-49490000D03*
D15*
X102933000Y-52030000D03*
X102933000Y-54570000D03*
X102933000Y-57110000D03*
D17*
X96720000Y-53907000D03*
X94180000Y-53907000D03*
X91640000Y-53907000D03*
X89100000Y-53907000D03*
X86560000Y-53907000D03*
X84020000Y-53907000D03*
X81480000Y-53907000D03*
X78940000Y-53907000D03*
D18*
X78940000Y-57610000D03*
D19*
X78940000Y-54923000D03*
D18*
X81480000Y-57610000D03*
D19*
X81480000Y-54923000D03*
D18*
X84020000Y-57610000D03*
D19*
X84020000Y-54923000D03*
D18*
X86560000Y-57610000D03*
D19*
X86560000Y-54923000D03*
D18*
X89100000Y-57610000D03*
D19*
X89100000Y-54923000D03*
D18*
X91640000Y-57610000D03*
D19*
X91640000Y-54923000D03*
D18*
X94180000Y-57610000D03*
D19*
X94180000Y-54923000D03*
D18*
X96720000Y-57610000D03*
D19*
X96720000Y-54923000D03*
D18*
X99260000Y-57610000D03*
D20*
X101917000Y-57110000D03*
D16*
X99760000Y-54570000D03*
D20*
X101917000Y-54570000D03*
D16*
X99760000Y-52030000D03*
D20*
X101917000Y-52030000D03*
D16*
X99760000Y-46950000D03*
D20*
X101917000Y-46950000D03*
D16*
X99760000Y-44410000D03*
D20*
X101917000Y-44410000D03*
D18*
X99260000Y-41370000D03*
D20*
X101917000Y-41870000D03*
D21*
X96720000Y-44057000D03*
D18*
X96720000Y-41370000D03*
D21*
X94180000Y-44057000D03*
D18*
X94180000Y-41370000D03*
D21*
X91640000Y-44057000D03*
D18*
X91640000Y-41370000D03*
D21*
X89100000Y-44057000D03*
D18*
X89100000Y-41370000D03*
D21*
X86560000Y-44057000D03*
D18*
X86560000Y-41370000D03*
D21*
X84020000Y-44057000D03*
D18*
X84020000Y-41370000D03*
D21*
X81480000Y-44057000D03*
D18*
X81480000Y-41370000D03*
D21*
X78940000Y-44057000D03*
D18*
X78940000Y-41370000D03*
%TD*%
D22*
%TO.C,K42*%
X187140000Y-143280000D03*
D23*
X191987169Y-145879029D03*
D22*
X196834338Y-148478058D03*
D24*
X186978613Y-149717892D03*
X189199119Y-151078719D03*
X191561391Y-152175156D03*
X185784959Y-146865228D03*
X185888445Y-147941932D03*
X193643916Y-152100379D03*
X194597993Y-151590736D03*
%TD*%
D22*
%TO.C,K41*%
X173287831Y-131000971D03*
D23*
X178135000Y-133600000D03*
D22*
X182982169Y-136199029D03*
D24*
X173126444Y-137438863D03*
X175346950Y-138799690D03*
X177709222Y-139896127D03*
X171932790Y-134586199D03*
X172036276Y-135662903D03*
X179791747Y-139821350D03*
X180745824Y-139311707D03*
%TD*%
D22*
%TO.C,K21*%
X80500000Y-101000000D03*
D23*
X86000000Y-101000000D03*
D22*
X91500000Y-101000000D03*
D24*
X83400000Y-106750000D03*
X86000000Y-106900000D03*
X88600000Y-106750000D03*
X81000000Y-104800000D03*
X81600000Y-105700000D03*
X90400000Y-105700000D03*
X91000000Y-104800000D03*
%TD*%
D22*
%TO.C,K22*%
X98500000Y-101000000D03*
D23*
X104000000Y-101000000D03*
D22*
X109500000Y-101000000D03*
D24*
X101400000Y-106750000D03*
X104000000Y-106900000D03*
X106600000Y-106750000D03*
X99000000Y-104800000D03*
X99600000Y-105700000D03*
X108400000Y-105700000D03*
X109000000Y-104800000D03*
%TD*%
D22*
%TO.C,K34*%
X134500000Y-101000000D03*
D23*
X140000000Y-101000000D03*
D22*
X145500000Y-101000000D03*
D24*
X137400000Y-106750000D03*
X140000000Y-106900000D03*
X142600000Y-106750000D03*
X135000000Y-104800000D03*
X135600000Y-105700000D03*
X144400000Y-105700000D03*
X145000000Y-104800000D03*
%TD*%
D22*
%TO.C,K5*%
X152500000Y-56400000D03*
D23*
X158000000Y-56400000D03*
D22*
X163500000Y-56400000D03*
D24*
X155400000Y-62150000D03*
X158000000Y-62300000D03*
X160600000Y-62150000D03*
X153000000Y-60200000D03*
X153600000Y-61100000D03*
X162400000Y-61100000D03*
X163000000Y-60200000D03*
%TD*%
D22*
%TO.C,K23*%
X116500000Y-87500000D03*
D23*
X122000000Y-87500000D03*
D22*
X127500000Y-87500000D03*
D24*
X119400000Y-93250000D03*
X122000000Y-93400000D03*
X124600000Y-93250000D03*
X117000000Y-91300000D03*
X117600000Y-92200000D03*
X126400000Y-92200000D03*
X127000000Y-91300000D03*
%TD*%
%TO.C,K2*%
X109000000Y-70800000D03*
X108400000Y-71700000D03*
X99600000Y-71700000D03*
X99000000Y-70800000D03*
X106600000Y-72750000D03*
X104000000Y-72900000D03*
X101400000Y-72750000D03*
D22*
X109500000Y-67000000D03*
D23*
X104000000Y-67000000D03*
D22*
X98500000Y-67000000D03*
%TD*%
%TO.C,K26*%
X170500000Y-94300000D03*
D23*
X176000000Y-94300000D03*
D22*
X181500000Y-94300000D03*
D24*
X173400000Y-100050000D03*
X176000000Y-100200000D03*
X178600000Y-100050000D03*
X171000000Y-98100000D03*
X171600000Y-99000000D03*
X180400000Y-99000000D03*
X181000000Y-98100000D03*
%TD*%
D22*
%TO.C,K14*%
X134500000Y-67000000D03*
D23*
X140000000Y-67000000D03*
D22*
X145500000Y-67000000D03*
D24*
X137400000Y-72750000D03*
X140000000Y-72900000D03*
X142600000Y-72750000D03*
X135000000Y-70800000D03*
X135600000Y-71700000D03*
X144400000Y-71700000D03*
X145000000Y-70800000D03*
%TD*%
D22*
%TO.C,K15*%
X152500000Y-73400000D03*
D23*
X158000000Y-73400000D03*
D22*
X163500000Y-73400000D03*
D24*
X155400000Y-79150000D03*
X158000000Y-79300000D03*
X160600000Y-79150000D03*
X153000000Y-77200000D03*
X153600000Y-78100000D03*
X162400000Y-78100000D03*
X163000000Y-77200000D03*
%TD*%
D22*
%TO.C,K13*%
X116500000Y-70500000D03*
D23*
X122000000Y-70500000D03*
D22*
X127500000Y-70500000D03*
D24*
X119400000Y-76250000D03*
X122000000Y-76400000D03*
X124600000Y-76250000D03*
X117000000Y-74300000D03*
X117600000Y-75200000D03*
X126400000Y-75200000D03*
X127000000Y-74300000D03*
%TD*%
D22*
%TO.C,K12*%
X98500000Y-84000000D03*
D23*
X104000000Y-84000000D03*
D22*
X109500000Y-84000000D03*
D24*
X101400000Y-89750000D03*
X104000000Y-89900000D03*
X106600000Y-89750000D03*
X99000000Y-87800000D03*
X99600000Y-88700000D03*
X108400000Y-88700000D03*
X109000000Y-87800000D03*
%TD*%
D22*
%TO.C,K33*%
X116500000Y-104500000D03*
D23*
X122000000Y-104500000D03*
D22*
X127500000Y-104500000D03*
D24*
X119400000Y-110250000D03*
X122000000Y-110400000D03*
X124600000Y-110250000D03*
X117000000Y-108300000D03*
X117600000Y-109200000D03*
X126400000Y-109200000D03*
X127000000Y-108300000D03*
%TD*%
D22*
%TO.C,K16*%
X170500000Y-77300000D03*
D23*
X176000000Y-77300000D03*
D22*
X181500000Y-77300000D03*
D24*
X173400000Y-83050000D03*
X176000000Y-83200000D03*
X178600000Y-83050000D03*
X171000000Y-81100000D03*
X171600000Y-82000000D03*
X180400000Y-82000000D03*
X181000000Y-81100000D03*
%TD*%
D22*
%TO.C,K35*%
X152500000Y-107400000D03*
D23*
X158000000Y-107400000D03*
D22*
X163500000Y-107400000D03*
D24*
X155400000Y-113150000D03*
X158000000Y-113300000D03*
X160600000Y-113150000D03*
X153000000Y-111200000D03*
X153600000Y-112100000D03*
X162400000Y-112100000D03*
X163000000Y-111200000D03*
%TD*%
D22*
%TO.C,K24*%
X134500000Y-84000000D03*
D23*
X140000000Y-84000000D03*
D22*
X145500000Y-84000000D03*
D24*
X137400000Y-89750000D03*
X140000000Y-89900000D03*
X142600000Y-89750000D03*
X135000000Y-87800000D03*
X135600000Y-88700000D03*
X144400000Y-88700000D03*
X145000000Y-87800000D03*
%TD*%
D22*
%TO.C,K31*%
X80500000Y-118000000D03*
D23*
X86000000Y-118000000D03*
D22*
X91500000Y-118000000D03*
D24*
X83400000Y-123750000D03*
X86000000Y-123900000D03*
X88600000Y-123750000D03*
X81000000Y-121800000D03*
X81600000Y-122700000D03*
X90400000Y-122700000D03*
X91000000Y-121800000D03*
%TD*%
D22*
%TO.C,K6*%
X170500000Y-60300000D03*
D23*
X176000000Y-60300000D03*
D22*
X181500000Y-60300000D03*
D24*
X173400000Y-66050000D03*
X176000000Y-66200000D03*
X178600000Y-66050000D03*
X171000000Y-64100000D03*
X171600000Y-65000000D03*
X180400000Y-65000000D03*
X181000000Y-64100000D03*
%TD*%
D22*
%TO.C,K4*%
X134500000Y-50000000D03*
D23*
X140000000Y-50000000D03*
D22*
X145500000Y-50000000D03*
D24*
X137400000Y-55750000D03*
X140000000Y-55900000D03*
X142600000Y-55750000D03*
X135000000Y-53800000D03*
X135600000Y-54700000D03*
X144400000Y-54700000D03*
X145000000Y-53800000D03*
%TD*%
D22*
%TO.C,K11*%
X80500000Y-84000000D03*
D23*
X86000000Y-84000000D03*
D22*
X91500000Y-84000000D03*
D24*
X83400000Y-89750000D03*
X86000000Y-89900000D03*
X88600000Y-89750000D03*
X81000000Y-87800000D03*
X81600000Y-88700000D03*
X90400000Y-88700000D03*
X91000000Y-87800000D03*
%TD*%
D22*
%TO.C,K1*%
X80500000Y-67000000D03*
D23*
X86000000Y-67000000D03*
D22*
X91500000Y-67000000D03*
D24*
X83400000Y-72750000D03*
X86000000Y-72900000D03*
X88600000Y-72750000D03*
X81000000Y-70800000D03*
X81600000Y-71700000D03*
X90400000Y-71700000D03*
X91000000Y-70800000D03*
%TD*%
D22*
%TO.C,K36*%
X170500000Y-111300000D03*
D23*
X176000000Y-111300000D03*
D22*
X181500000Y-111300000D03*
D24*
X173400000Y-117050000D03*
X176000000Y-117200000D03*
X178600000Y-117050000D03*
X171000000Y-115100000D03*
X171600000Y-116000000D03*
X180400000Y-116000000D03*
X181000000Y-115100000D03*
%TD*%
D22*
%TO.C,K25*%
X152500000Y-90400000D03*
D23*
X158000000Y-90400000D03*
D22*
X163500000Y-90400000D03*
D24*
X155400000Y-96150000D03*
X158000000Y-96300000D03*
X160600000Y-96150000D03*
X153000000Y-94200000D03*
X153600000Y-95100000D03*
X162400000Y-95100000D03*
X163000000Y-94200000D03*
%TD*%
D22*
%TO.C,K3*%
X116500000Y-53500000D03*
D23*
X122000000Y-53500000D03*
D22*
X127500000Y-53500000D03*
D24*
X119400000Y-59250000D03*
X122000000Y-59400000D03*
X124600000Y-59250000D03*
X117000000Y-57300000D03*
X117600000Y-58200000D03*
X126400000Y-58200000D03*
X127000000Y-57300000D03*
%TD*%
D25*
%TO.C,J2*%
X196455127Y-125752582D03*
D26*
X194494105Y-129410026D03*
D25*
X204069660Y-129835288D03*
D26*
X202108639Y-133492732D03*
D27*
X201324929Y-132108056D03*
X200575814Y-131706401D03*
X199826700Y-131304746D03*
X199077585Y-130903091D03*
X198328470Y-130501436D03*
X197579355Y-130099781D03*
X196830240Y-129698126D03*
X196081125Y-129296471D03*
X195443202Y-130486242D03*
X196192317Y-130887897D03*
X196941432Y-131289552D03*
X197690547Y-131691207D03*
X198439662Y-132092862D03*
X199188777Y-132494517D03*
X199937892Y-132896172D03*
X200687007Y-133297827D03*
%TD*%
D22*
%TO.C,K32*%
X98500000Y-118000000D03*
D23*
X104000000Y-118000000D03*
D22*
X109500000Y-118000000D03*
D24*
X101400000Y-123750000D03*
X104000000Y-123900000D03*
X106600000Y-123750000D03*
X99000000Y-121800000D03*
X99600000Y-122700000D03*
X108400000Y-122700000D03*
X109000000Y-121800000D03*
%TD*%
M02*
