M48
; DRILL file {KiCad 7.0.6} date Thu Nov 23 00:40:10 2023
; FORMAT={-:-/ absolute / inch / decimal}
; #@! TF.CreationDate,2023-11-23T00:40:10+08:00
; #@! TF.GenerationSoftware,Kicad,Pcbnew,7.0.6
; #@! TF.FileFunction,Plated,1,2,PTH
FMAT,2
INCH
; #@! TA.AperFunction,Plated,PTH,ViaDrill
T1C0.0157
; #@! TA.AperFunction,Plated,PTH,ComponentDrill
T2C0.0157
; #@! TA.AperFunction,Plated,PTH,ComponentDrill
T3C0.0276
; #@! TA.AperFunction,Plated,PTH,ComponentDrill
T4C0.0394
; #@! TA.AperFunction,Plated,PTH,ComponentDrill
T5C0.0472
%
G90
G05
T1
X7.2378Y-2.1165
T2
X3.1079Y-1.9091
X3.1079Y-1.9878
X3.2079Y-1.9091
X3.2079Y-1.9878
X3.3079Y-1.9091
X3.3079Y-1.9878
X3.4079Y-1.9091
X3.4079Y-1.9878
X3.5079Y-1.9091
X3.5079Y-1.9878
X3.6079Y-1.9091
X3.6079Y-1.9878
X3.7079Y-1.9091
X3.7079Y-1.9878
X3.8079Y-1.9091
X3.8079Y-1.9878
X4.0372Y-1.9091
X4.0372Y-1.9878
X4.0872Y-1.7484
X4.0972Y-2.1484
X4.1322Y-1.6484
X4.1322Y-2.2484
X7.6946Y-5.1373
X7.7197Y-5.0904
X7.7241Y-5.1531
X7.7492Y-5.1062
X7.7536Y-5.1689
X7.7787Y-5.122
X7.7831Y-5.1847
X7.8082Y-5.1379
X7.8126Y-5.2005
X7.8377Y-5.1537
X7.8421Y-5.2163
X7.8672Y-5.1695
X7.8716Y-5.2321
X7.8967Y-5.1853
X7.9011Y-5.2479
X7.9262Y-5.2011
T4
X3.1079Y-1.6484
X3.1079Y-2.2484
X3.2079Y-1.6484
X3.2079Y-2.2484
X3.2323Y-2.4528
X3.2323Y-3.122
X3.2386Y-3.7929
X3.2496Y-4.4512
X3.3079Y-1.6484
X3.3079Y-2.2484
X3.4079Y-1.6484
X3.4079Y-2.2484
X3.5079Y-1.6484
X3.5079Y-2.2484
X3.5394Y-2.4528
X3.5394Y-3.122
X3.5457Y-3.7929
X3.5567Y-4.4512
X3.6079Y-1.6484
X3.6079Y-2.2484
X3.7079Y-1.6484
X3.7079Y-2.2484
X3.8079Y-1.6484
X3.8079Y-2.2484
X3.9079Y-1.6484
X3.9079Y-1.7484
X3.9079Y-1.8484
X3.9079Y-1.9484
X3.9079Y-2.0484
X3.9079Y-2.1484
X3.9079Y-2.2484
X3.9382Y-3.7929
X3.9409Y-2.4528
X3.9559Y-3.1339
X3.963Y-4.4457
X4.2453Y-3.7929
X4.248Y-2.4528
X4.263Y-3.1339
X4.2701Y-4.4457
X4.6496Y-1.9213
X4.6571Y-3.2535
X4.6626Y-3.9311
X4.6685Y-2.5815
X4.9567Y-1.9213
X4.9642Y-3.2535
X4.9697Y-3.9311
X4.9756Y-2.5815
X5.3583Y-1.7835
X5.3594Y-2.4488
X5.3626Y-3.1319
X5.3654Y-3.7902
X5.6654Y-1.7835
X5.6665Y-2.4488
X5.6697Y-3.1319
X5.6724Y-3.7902
X6.0594Y-4.0445
X6.0669Y-2.0354
X6.0815Y-2.6976
X6.0925Y-3.3697
X6.3665Y-4.0445
X6.374Y-2.0354
X6.3886Y-2.6976
X6.3996Y-3.3697
X6.7756Y-2.189
X6.7756Y-2.861
X6.7756Y-4.1799
X6.7866Y-3.5193
X6.9634Y-5.0732
X7.0827Y-2.189
X7.0827Y-2.861
X7.0827Y-4.1799
X7.0937Y-3.5193
X7.2705Y-5.0732
X7.5469Y-5.5543
X7.8539Y-5.5543
T5
X3.189Y-2.7874
X3.189Y-3.4567
X3.189Y-4.126
X3.189Y-4.7953
X3.2126Y-2.8228
X3.2126Y-3.4921
X3.2126Y-4.1614
X3.2126Y-4.8307
X3.2835Y-2.8642
X3.2835Y-3.5335
X3.2835Y-4.2028
X3.2835Y-4.872
X3.3858Y-2.8701
X3.3858Y-3.5394
X3.3858Y-4.2087
X3.3858Y-4.878
X3.4882Y-2.8642
X3.4882Y-3.5335
X3.4882Y-4.2028
X3.4882Y-4.872
X3.5591Y-2.8228
X3.5591Y-3.4921
X3.5591Y-4.1614
X3.5591Y-4.8307
X3.5827Y-2.7874
X3.5827Y-3.4567
X3.5827Y-4.126
X3.5827Y-4.7953
X3.8976Y-2.7874
X3.8976Y-3.4567
X3.8976Y-4.126
X3.8976Y-4.7953
X3.9213Y-2.8228
X3.9213Y-3.4921
X3.9213Y-4.1614
X3.9213Y-4.8307
X3.9921Y-2.8642
X3.9921Y-3.5335
X3.9921Y-4.2028
X3.9921Y-4.872
X4.0945Y-2.8701
X4.0945Y-3.5394
X4.0945Y-4.2087
X4.0945Y-4.878
X4.1969Y-2.8642
X4.1969Y-3.5335
X4.1969Y-4.2028
X4.1969Y-4.872
X4.2677Y-2.8228
X4.2677Y-3.4921
X4.2677Y-4.1614
X4.2677Y-4.8307
X4.2913Y-2.7874
X4.2913Y-3.4567
X4.2913Y-4.126
X4.2913Y-4.7953
X4.6063Y-2.2559
X4.6063Y-2.9252
X4.6063Y-3.5945
X4.6063Y-4.2638
X4.6299Y-2.2913
X4.6299Y-2.9606
X4.6299Y-3.6299
X4.6299Y-4.2992
X4.7008Y-2.3327
X4.7008Y-3.002
X4.7008Y-3.6713
X4.7008Y-4.3406
X4.8031Y-2.3386
X4.8031Y-3.0079
X4.8031Y-3.6772
X4.8031Y-4.3465
X4.9055Y-2.3327
X4.9055Y-3.002
X4.9055Y-3.6713
X4.9055Y-4.3406
X4.9764Y-2.2913
X4.9764Y-2.9606
X4.9764Y-3.6299
X4.9764Y-4.2992
X5.0Y-2.2559
X5.0Y-2.9252
X5.0Y-3.5945
X5.0Y-4.2638
X5.315Y-2.1181
X5.315Y-2.7874
X5.315Y-3.4567
X5.315Y-4.126
X5.3386Y-2.1535
X5.3386Y-2.8228
X5.3386Y-3.4921
X5.3386Y-4.1614
X5.4094Y-2.1949
X5.4094Y-2.8642
X5.4094Y-3.5335
X5.4094Y-4.2028
X5.5118Y-2.2008
X5.5118Y-2.8701
X5.5118Y-3.5394
X5.5118Y-4.2087
X5.6142Y-2.1949
X5.6142Y-2.8642
X5.6142Y-3.5335
X5.6142Y-4.2028
X5.685Y-2.1535
X5.685Y-2.8228
X5.685Y-3.4921
X5.685Y-4.1614
X5.7087Y-2.1181
X5.7087Y-2.7874
X5.7087Y-3.4567
X5.7087Y-4.126
X6.0236Y-2.3701
X6.0236Y-3.0394
X6.0236Y-3.7087
X6.0236Y-4.378
X6.0472Y-2.4055
X6.0472Y-3.0748
X6.0472Y-3.7441
X6.0472Y-4.4134
X6.1181Y-2.4469
X6.1181Y-3.1161
X6.1181Y-3.7854
X6.1181Y-4.4547
X6.2205Y-2.4528
X6.2205Y-3.122
X6.2205Y-3.7913
X6.2205Y-4.4606
X6.3228Y-2.4469
X6.3228Y-3.1161
X6.3228Y-3.7854
X6.3228Y-4.4547
X6.3937Y-2.4055
X6.3937Y-3.0748
X6.3937Y-3.7441
X6.3937Y-4.4134
X6.4173Y-2.3701
X6.4173Y-3.0394
X6.4173Y-3.7087
X6.4173Y-4.378
X6.7323Y-2.5236
X6.7323Y-3.1929
X6.7323Y-3.8622
X6.7323Y-4.5315
X6.7559Y-2.5591
X6.7559Y-3.2283
X6.7559Y-3.8976
X6.7559Y-4.5669
X6.769Y-5.2987
X6.7731Y-5.3411
X6.816Y-5.411
X6.8268Y-2.6004
X6.8268Y-3.2697
X6.8268Y-3.939
X6.8268Y-4.6083
X6.9034Y-5.4646
X6.9291Y-2.6063
X6.9291Y-3.2756
X6.9291Y-3.9449
X6.9291Y-4.6142
X6.9964Y-5.5077
X7.0315Y-2.6004
X7.0315Y-3.2697
X7.0315Y-3.939
X7.0315Y-4.6083
X7.0784Y-5.5048
X7.1024Y-2.5591
X7.1024Y-3.2283
X7.1024Y-3.8976
X7.1024Y-4.5669
X7.116Y-5.4847
X7.126Y-2.5236
X7.126Y-3.1929
X7.126Y-3.8622
X7.126Y-4.5315
X7.3144Y-5.7821
X7.3184Y-5.8245
X7.3614Y-5.8944
X7.4488Y-5.948
X7.5418Y-5.9911
X7.6238Y-5.9882
X7.6613Y-5.9681
T3
G00X7.6452Y-5.1174
M15
G01X7.6693Y-5.0723
M16
G05
G00X7.7261Y-4.9665
M15
G01X7.7428Y-4.9353
M16
G05
G00X7.9449Y-5.2782
M15
G01X7.9691Y-5.2331
M16
G05
G00X8.0259Y-5.1272
M15
G01X8.0426Y-5.096
M16
G05
T0
M30
