%TF.GenerationSoftware,KiCad,Pcbnew,7.0.6*%
%TF.CreationDate,2023-11-23T00:40:04+08:00*%
%TF.ProjectId,handfull-mini,68616e64-6675-46c6-9c2d-6d696e692e6b,rev?*%
%TF.SameCoordinates,Original*%
%TF.FileFunction,Legend,Bot*%
%TF.FilePolarity,Positive*%
%FSLAX46Y46*%
G04 Gerber Fmt 4.6, Leading zero omitted, Abs format (unit mm)*
G04 Created by KiCad (PCBNEW 7.0.6) date 2023-11-23 00:40:04*
%MOMM*%
%LPD*%
G01*
G04 APERTURE LIST*
%ADD10C,0.050000*%
G04 APERTURE END LIST*
D10*
%TO.C,U1*%
X101350000Y-56360000D02*
X103350000Y-56360000D01*
X103350000Y-56360000D02*
X103350000Y-57860000D01*
X103350000Y-57860000D02*
X101350000Y-57860000D01*
X101350000Y-57860000D02*
X101350000Y-56360000D01*
X78190000Y-55490000D02*
X79690000Y-55490000D01*
X79690000Y-55490000D02*
X79690000Y-53490000D01*
X79690000Y-53490000D02*
X78190000Y-53490000D01*
X78190000Y-53490000D02*
X78190000Y-55490000D01*
X80730000Y-55490000D02*
X82230000Y-55490000D01*
X82230000Y-55490000D02*
X82230000Y-53490000D01*
X82230000Y-53490000D02*
X80730000Y-53490000D01*
X80730000Y-53490000D02*
X80730000Y-55490000D01*
X83270000Y-55490000D02*
X84770000Y-55490000D01*
X84770000Y-55490000D02*
X84770000Y-53490000D01*
X84770000Y-53490000D02*
X83270000Y-53490000D01*
X83270000Y-53490000D02*
X83270000Y-55490000D01*
X85810000Y-55490000D02*
X87310000Y-55490000D01*
X87310000Y-55490000D02*
X87310000Y-53490000D01*
X87310000Y-53490000D02*
X85810000Y-53490000D01*
X85810000Y-53490000D02*
X85810000Y-55490000D01*
X88350000Y-55490000D02*
X89850000Y-55490000D01*
X89850000Y-55490000D02*
X89850000Y-53490000D01*
X89850000Y-53490000D02*
X88350000Y-53490000D01*
X88350000Y-53490000D02*
X88350000Y-55490000D01*
X90890000Y-55490000D02*
X92390000Y-55490000D01*
X92390000Y-55490000D02*
X92390000Y-53490000D01*
X92390000Y-53490000D02*
X90890000Y-53490000D01*
X90890000Y-53490000D02*
X90890000Y-55490000D01*
X93430000Y-55490000D02*
X94930000Y-55490000D01*
X94930000Y-55490000D02*
X94930000Y-53490000D01*
X94930000Y-53490000D02*
X93430000Y-53490000D01*
X93430000Y-53490000D02*
X93430000Y-55490000D01*
X95970000Y-55490000D02*
X97470000Y-55490000D01*
X97470000Y-55490000D02*
X97470000Y-53490000D01*
X97470000Y-53490000D02*
X95970000Y-53490000D01*
X95970000Y-53490000D02*
X95970000Y-55490000D01*
X101350000Y-53820000D02*
X103350000Y-53820000D01*
X103350000Y-53820000D02*
X103350000Y-55320000D01*
X103350000Y-55320000D02*
X101350000Y-55320000D01*
X101350000Y-55320000D02*
X101350000Y-53820000D01*
X101350000Y-51280000D02*
X103350000Y-51280000D01*
X103350000Y-51280000D02*
X103350000Y-52780000D01*
X103350000Y-52780000D02*
X101350000Y-52780000D01*
X101350000Y-52780000D02*
X101350000Y-51280000D01*
X101350000Y-46200000D02*
X103350000Y-46200000D01*
X103350000Y-46200000D02*
X103350000Y-47700000D01*
X103350000Y-47700000D02*
X101350000Y-47700000D01*
X101350000Y-47700000D02*
X101350000Y-46200000D01*
X101350000Y-43660000D02*
X103350000Y-43660000D01*
X103350000Y-43660000D02*
X103350000Y-45160000D01*
X103350000Y-45160000D02*
X101350000Y-45160000D01*
X101350000Y-45160000D02*
X101350000Y-43660000D01*
X79690000Y-43490000D02*
X78190000Y-43490000D01*
X78190000Y-43490000D02*
X78190000Y-45490000D01*
X78190000Y-45490000D02*
X79690000Y-45490000D01*
X79690000Y-45490000D02*
X79690000Y-43490000D01*
X82230000Y-43490000D02*
X80730000Y-43490000D01*
X80730000Y-43490000D02*
X80730000Y-45490000D01*
X80730000Y-45490000D02*
X82230000Y-45490000D01*
X82230000Y-45490000D02*
X82230000Y-43490000D01*
X84770000Y-43490000D02*
X83270000Y-43490000D01*
X83270000Y-43490000D02*
X83270000Y-45490000D01*
X83270000Y-45490000D02*
X84770000Y-45490000D01*
X84770000Y-45490000D02*
X84770000Y-43490000D01*
X87310000Y-43490000D02*
X85810000Y-43490000D01*
X85810000Y-43490000D02*
X85810000Y-45490000D01*
X85810000Y-45490000D02*
X87310000Y-45490000D01*
X87310000Y-45490000D02*
X87310000Y-43490000D01*
X89850000Y-43490000D02*
X88350000Y-43490000D01*
X88350000Y-43490000D02*
X88350000Y-45490000D01*
X88350000Y-45490000D02*
X89850000Y-45490000D01*
X89850000Y-45490000D02*
X89850000Y-43490000D01*
X92390000Y-43490000D02*
X90890000Y-43490000D01*
X90890000Y-43490000D02*
X90890000Y-45490000D01*
X90890000Y-45490000D02*
X92390000Y-45490000D01*
X92390000Y-45490000D02*
X92390000Y-43490000D01*
X94930000Y-43490000D02*
X93430000Y-43490000D01*
X93430000Y-43490000D02*
X93430000Y-45490000D01*
X93430000Y-45490000D02*
X94930000Y-45490000D01*
X94930000Y-45490000D02*
X94930000Y-43490000D01*
X97470000Y-43490000D02*
X95970000Y-43490000D01*
X95970000Y-43490000D02*
X95970000Y-45490000D01*
X95970000Y-45490000D02*
X97470000Y-45490000D01*
X97470000Y-45490000D02*
X97470000Y-43490000D01*
X101350000Y-41120000D02*
X103350000Y-41120000D01*
X103350000Y-41120000D02*
X103350000Y-42620000D01*
X103350000Y-42620000D02*
X101350000Y-42620000D01*
X101350000Y-42620000D02*
X101350000Y-41120000D01*
%TD*%
M02*
