M48
; DRILL file {KiCad 7.0.6} date Wed Nov 22 22:17:57 2023
; FORMAT={-:-/ absolute / inch / decimal}
; #@! TF.CreationDate,2023-11-22T22:17:57+08:00
; #@! TF.GenerationSoftware,Kicad,Pcbnew,7.0.6
; #@! TF.FileFunction,Plated,1,2,PTH
FMAT,2
INCH
; #@! TA.AperFunction,Plated,PTH,ViaDrill
T1C0.0157
; #@! TA.AperFunction,Plated,PTH,ComponentDrill
T2C0.0157
; #@! TA.AperFunction,Plated,PTH,ComponentDrill
T3C0.0276
; #@! TA.AperFunction,Plated,PTH,ComponentDrill
T4C0.0394
; #@! TA.AperFunction,Plated,PTH,ComponentDrill
T5C0.0433
; #@! TA.AperFunction,Plated,PTH,ComponentDrill
T6C0.0472
; #@! TA.AperFunction,Plated,PTH,ComponentDrill
T7C0.0866
%
G90
G05
T1
X7.2378Y-2.1165
X7.6024Y-4.0496
T2
X4.0276Y-2.1673
X4.0276Y-2.8366
X4.0276Y-3.5059
X4.0276Y-4.1752
X4.0945Y-2.0138
X4.0945Y-2.6831
X4.0945Y-3.3524
X4.0945Y-4.0217
X4.1614Y-2.1673
X4.1614Y-2.8366
X4.1614Y-3.5059
X4.1614Y-4.1752
X5.4449Y-1.8524
X5.4449Y-2.5217
X5.4449Y-3.1909
X5.4449Y-3.8602
X5.5118Y-1.6988
X5.5118Y-2.3681
X5.5118Y-3.0374
X5.5118Y-3.7067
X5.5787Y-1.8524
X5.5787Y-2.5217
X5.5787Y-3.1909
X5.5787Y-3.8602
X6.8622Y-2.2579
X6.8622Y-2.9272
X6.8622Y-3.5965
X6.8622Y-4.2657
X6.9291Y-2.1043
X6.9291Y-2.7736
X6.9291Y-3.4429
X6.9291Y-4.1122
X6.9961Y-2.2579
X6.9961Y-2.9272
X6.9961Y-3.5965
X6.9961Y-4.2657
X7.0095Y-5.1256
X7.1275Y-5.1889
X7.1411Y-5.0219
X7.6281Y-2.0222
X7.6281Y-2.1222
X7.6281Y-2.2222
X7.6281Y-2.3222
X7.6281Y-2.4222
X7.6281Y-2.5222
X7.6281Y-2.6222
X7.6281Y-2.7222
X7.6281Y-2.8222
X7.6281Y-2.9222
X7.6281Y-3.0222
X7.6281Y-3.1222
X7.6881Y-2.0222
X7.6881Y-2.1222
X7.6881Y-2.2222
X7.6881Y-2.3222
X7.6881Y-2.4222
X7.6881Y-2.5222
X7.6881Y-2.6222
X7.6881Y-2.7222
X7.6881Y-2.8222
X7.6881Y-2.9222
X7.6881Y-3.0222
X7.6881Y-3.1222
X7.6946Y-5.1373
X7.7197Y-5.0904
X7.7241Y-5.1531
X7.7492Y-5.1062
X7.7536Y-5.1689
X7.7787Y-5.122
X7.7831Y-5.1847
X7.8082Y-5.1379
X7.8126Y-5.2005
X7.8377Y-5.1537
X7.8421Y-5.2163
X7.8672Y-5.1695
X7.8716Y-5.2321
X7.8967Y-5.1853
X7.9011Y-5.2479
X7.9262Y-5.2011
T3
X6.7602Y-1.898
X6.7602Y-2.0437
T5
X7.3581Y-2.0222
X7.3581Y-2.0222
X7.3581Y-2.1222
X7.3581Y-2.2222
X7.3581Y-2.3222
X7.3581Y-2.4222
X7.3581Y-2.5222
X7.3581Y-2.6222
X7.3581Y-2.7222
X7.3581Y-2.8222
X7.3581Y-2.9222
X7.3581Y-3.0222
X7.3581Y-3.1222
X7.9581Y-2.0222
X7.9581Y-2.0222
X7.9581Y-2.1222
X7.9581Y-2.2222
X7.9581Y-2.3222
X7.9581Y-2.4222
X7.9581Y-2.5222
X7.9581Y-2.6222
X7.9581Y-2.7222
X7.9581Y-2.8222
X7.9581Y-2.9222
X7.9581Y-3.0222
X7.9581Y-3.1222
T6
X3.189Y-2.4331
X3.189Y-3.1024
X3.189Y-3.7717
X3.189Y-4.4409
X3.2126Y-2.4685
X3.2126Y-3.1378
X3.2126Y-3.8071
X3.2126Y-4.4764
X3.2835Y-2.5098
X3.2835Y-3.1791
X3.2835Y-3.8484
X3.2835Y-4.5177
X3.3858Y-2.5157
X3.3858Y-3.185
X3.3858Y-3.8543
X3.3858Y-4.5236
X3.4882Y-2.5098
X3.4882Y-3.1791
X3.4882Y-3.8484
X3.4882Y-4.5177
X3.5591Y-2.4685
X3.5591Y-3.1378
X3.5591Y-3.8071
X3.5591Y-4.4764
X3.5827Y-2.4331
X3.5827Y-3.1024
X3.5827Y-3.7717
X3.5827Y-4.4409
X3.8976Y-2.4331
X3.8976Y-3.1024
X3.8976Y-3.7717
X3.8976Y-4.4409
X3.9213Y-2.4685
X3.9213Y-3.1378
X3.9213Y-3.8071
X3.9213Y-4.4764
X3.9921Y-2.5098
X3.9921Y-3.1791
X3.9921Y-3.8484
X3.9921Y-4.5177
X4.0945Y-2.5157
X4.0945Y-3.185
X4.0945Y-3.8543
X4.0945Y-4.5236
X4.1969Y-2.5098
X4.1969Y-3.1791
X4.1969Y-3.8484
X4.1969Y-4.5177
X4.2677Y-2.4685
X4.2677Y-3.1378
X4.2677Y-3.8071
X4.2677Y-4.4764
X4.2913Y-2.4331
X4.2913Y-3.1024
X4.2913Y-3.7717
X4.2913Y-4.4409
X4.6063Y-2.2559
X4.6063Y-2.9252
X4.6063Y-3.5945
X4.6063Y-4.2638
X4.6299Y-2.2913
X4.6299Y-2.9606
X4.6299Y-3.6299
X4.6299Y-4.2992
X4.7008Y-2.3327
X4.7008Y-3.002
X4.7008Y-3.6713
X4.7008Y-4.3406
X4.8031Y-2.3386
X4.8031Y-3.0079
X4.8031Y-3.6772
X4.8031Y-4.3465
X4.9055Y-2.3327
X4.9055Y-3.002
X4.9055Y-3.6713
X4.9055Y-4.3406
X4.9764Y-2.2913
X4.9764Y-2.9606
X4.9764Y-3.6299
X4.9764Y-4.2992
X5.0Y-2.2559
X5.0Y-2.9252
X5.0Y-3.5945
X5.0Y-4.2638
X5.315Y-2.1181
X5.315Y-2.7874
X5.315Y-3.4567
X5.315Y-4.126
X5.3386Y-2.1535
X5.3386Y-2.8228
X5.3386Y-3.4921
X5.3386Y-4.1614
X5.4094Y-2.1949
X5.4094Y-2.8642
X5.4094Y-3.5335
X5.4094Y-4.2028
X5.5118Y-2.2008
X5.5118Y-2.8701
X5.5118Y-3.5394
X5.5118Y-4.2087
X5.6142Y-2.1949
X5.6142Y-2.8642
X5.6142Y-3.5335
X5.6142Y-4.2028
X5.685Y-2.1535
X5.685Y-2.8228
X5.685Y-3.4921
X5.685Y-4.1614
X5.7087Y-2.1181
X5.7087Y-2.7874
X5.7087Y-3.4567
X5.7087Y-4.126
X6.0236Y-2.3701
X6.0236Y-3.0394
X6.0236Y-3.7087
X6.0236Y-4.378
X6.0472Y-2.4055
X6.0472Y-3.0748
X6.0472Y-3.7441
X6.0472Y-4.4134
X6.1181Y-2.4469
X6.1181Y-3.1161
X6.1181Y-3.7854
X6.1181Y-4.4547
X6.2205Y-2.4528
X6.2205Y-3.122
X6.2205Y-3.7913
X6.2205Y-4.4606
X6.3228Y-2.4469
X6.3228Y-3.1161
X6.3228Y-3.7854
X6.3228Y-4.4547
X6.3937Y-2.4055
X6.3937Y-3.0748
X6.3937Y-3.7441
X6.3937Y-4.4134
X6.4173Y-2.3701
X6.4173Y-3.0394
X6.4173Y-3.7087
X6.4173Y-4.378
X6.7323Y-2.5236
X6.7323Y-3.1929
X6.7323Y-3.8622
X6.7323Y-4.5315
X6.7559Y-2.5591
X6.7559Y-3.2283
X6.7559Y-3.8976
X6.7559Y-4.5669
X6.769Y-5.2987
X6.7731Y-5.3411
X6.816Y-5.411
X6.8268Y-2.6004
X6.8268Y-3.2697
X6.8268Y-3.939
X6.8268Y-4.6083
X6.9034Y-5.4646
X6.9291Y-2.6063
X6.9291Y-3.2756
X6.9291Y-3.9449
X6.9291Y-4.6142
X6.9964Y-5.5077
X7.0315Y-2.6004
X7.0315Y-3.2697
X7.0315Y-3.939
X7.0315Y-4.6083
X7.0784Y-5.5048
X7.1024Y-2.5591
X7.1024Y-3.2283
X7.1024Y-3.8976
X7.1024Y-4.5669
X7.116Y-5.4847
X7.126Y-2.5236
X7.126Y-3.1929
X7.126Y-3.8622
X7.126Y-4.5315
X7.3144Y-5.7821
X7.3184Y-5.8245
X7.3614Y-5.8944
X7.4488Y-5.948
X7.5418Y-5.9911
X7.6238Y-5.9882
X7.6613Y-5.9681
T7
X-2.6951Y-1.8634
X-1.9451Y-1.1134
X-1.9451Y-2.6134
X-1.1951Y-1.8634
T3
G00X7.6452Y-5.1174
M15
G01X7.6693Y-5.0723
M16
G05
G00X7.7261Y-4.9665
M15
G01X7.7428Y-4.9353
M16
G05
G00X7.9449Y-5.2782
M15
G01X7.9691Y-5.2331
M16
G05
G00X8.0259Y-5.1272
M15
G01X8.0426Y-5.096
M16
G05
T4
G00X7.587Y-3.6406
M15
G01X7.5673Y-3.6406
M16
G05
G00X7.587Y-3.737
M15
G01X7.5673Y-3.737
M16
G05
G00X7.6461Y-3.5717
M15
G01X7.6264Y-3.5717
M16
G05
G00X7.6461Y-3.8059
M15
G01X7.6264Y-3.8059
M16
G05
G00X7.8035Y-3.5717
M15
G01X7.7839Y-3.5717
M16
G05
G00X7.8035Y-3.8059
M15
G01X7.7839Y-3.8059
M16
G05
G00X7.9217Y-3.5717
M15
G01X7.902Y-3.5717
M16
G05
G00X7.9217Y-3.8059
M15
G01X7.902Y-3.8059
M16
G05
T0
M30
