M48
; DRILL file {KiCad 7.0.6} date Wed Nov 22 22:17:57 2023
; FORMAT={-:-/ absolute / inch / decimal}
; #@! TF.CreationDate,2023-11-22T22:17:57+08:00
; #@! TF.GenerationSoftware,Kicad,Pcbnew,7.0.6
; #@! TF.FileFunction,NonPlated,1,2,NPTH
FMAT,2
INCH
; #@! TA.AperFunction,NonPlated,NPTH,ComponentDrill
T1C0.0472
; #@! TA.AperFunction,NonPlated,NPTH,ComponentDrill
T2C0.0670
; #@! TA.AperFunction,NonPlated,NPTH,ComponentDrill
T3C0.1969
%
G90
G05
T1
X7.7071Y-3.6543
X7.7071Y-3.7232
X7.9827Y-3.6543
X7.9827Y-3.7232
T2
X3.1693Y-2.2835
X3.1693Y-2.9528
X3.1693Y-3.622
X3.1693Y-4.2913
X3.6024Y-2.2835
X3.6024Y-2.9528
X3.6024Y-3.622
X3.6024Y-4.2913
X3.878Y-2.2835
X3.878Y-2.9528
X3.878Y-3.622
X3.878Y-4.2913
X4.311Y-2.2835
X4.311Y-2.9528
X4.311Y-3.622
X4.311Y-4.2913
X4.5866Y-2.1063
X4.5866Y-2.7756
X4.5866Y-3.4449
X4.5866Y-4.1142
X5.0197Y-2.1063
X5.0197Y-2.7756
X5.0197Y-3.4449
X5.0197Y-4.1142
X5.2953Y-1.9685
X5.2953Y-2.6378
X5.2953Y-3.3071
X5.2953Y-3.9764
X5.7283Y-1.9685
X5.7283Y-2.6378
X5.7283Y-3.3071
X5.7283Y-3.9764
X6.0039Y-2.2205
X6.0039Y-2.8898
X6.0039Y-3.5591
X6.0039Y-4.2283
X6.437Y-2.2205
X6.437Y-2.8898
X6.437Y-3.5591
X6.437Y-4.2283
X6.7126Y-2.374
X6.7126Y-3.0433
X6.7126Y-3.7126
X6.7126Y-4.3819
X6.8224Y-5.1575
X7.1457Y-2.374
X7.1457Y-3.0433
X7.1457Y-3.7126
X7.1457Y-4.3819
X7.204Y-5.3622
X7.3677Y-5.6409
X7.7494Y-5.8456
T3
X3.3858Y-2.2835
X3.3858Y-2.9528
X3.3858Y-3.622
X3.3858Y-4.2913
X4.0945Y-2.2835
X4.0945Y-2.9528
X4.0945Y-3.622
X4.0945Y-4.2913
X4.8031Y-2.1063
X4.8031Y-2.7756
X4.8031Y-3.4449
X4.8031Y-4.1142
X5.5118Y-1.9685
X5.5118Y-2.6378
X5.5118Y-3.3071
X5.5118Y-3.9764
X6.2205Y-2.2205
X6.2205Y-2.8898
X6.2205Y-3.5591
X6.2205Y-4.2283
X6.9291Y-2.374
X6.9291Y-3.0433
X6.9291Y-3.7126
X6.9291Y-4.3819
X7.0132Y-5.2598
X7.5585Y-5.7433
T0
M30
