%TF.GenerationSoftware,KiCad,Pcbnew,7.0.6*%
%TF.CreationDate,2023-11-22T22:17:55+08:00*%
%TF.ProjectId,handfull,68616e64-6675-46c6-9c2e-6b696361645f,rev?*%
%TF.SameCoordinates,Original*%
%TF.FileFunction,Soldermask,Top*%
%TF.FilePolarity,Negative*%
%FSLAX46Y46*%
G04 Gerber Fmt 4.6, Leading zero omitted, Abs format (unit mm)*
G04 Created by KiCad (PCBNEW 7.0.6) date 2023-11-22 22:17:55*
%MOMM*%
%LPD*%
G01*
G04 APERTURE LIST*
G04 Aperture macros list*
%AMHorizOval*
0 Thick line with rounded ends*
0 $1 width*
0 $2 $3 position (X,Y) of the first rounded end (center of the circle)*
0 $4 $5 position (X,Y) of the second rounded end (center of the circle)*
0 Add line between two ends*
20,1,$1,$2,$3,$4,$5,0*
0 Add two circle primitives to create the rounded ends*
1,1,$1,$2,$3*
1,1,$1,$4,$5*%
%AMRotRect*
0 Rectangle, with rotation*
0 The origin of the aperture is its center*
0 $1 length*
0 $2 width*
0 $3 Rotation angle, in degrees counterclockwise*
0 Add horizontal line*
21,1,$1,$2,0,0,$3*%
%AMFreePoly0*
4,1,41,0.142350,0.531259,0.275000,0.476314,0.388909,0.388909,0.476314,0.275000,0.531259,0.142350,0.533280,0.127000,3.200000,0.127000,3.235780,0.121856,3.295980,0.083167,3.325707,0.018074,3.315523,-0.052758,3.268661,-0.106839,3.200000,-0.127000,0.533280,-0.127000,0.531259,-0.142350,0.476314,-0.275000,0.388909,-0.388909,0.275000,-0.476314,0.142350,-0.531259,0.000000,-0.550000,
-0.142350,-0.531259,-0.275000,-0.476314,-0.388909,-0.388909,-0.476314,-0.275000,-0.531259,-0.142350,-0.533280,-0.127000,-3.200000,-0.127000,-3.235780,-0.121856,-3.295980,-0.083167,-3.325707,-0.018074,-3.315523,0.052758,-3.268661,0.106839,-3.200000,0.127000,-0.533280,0.127000,-0.531259,0.142350,-0.476314,0.275000,-0.388909,0.388909,-0.275000,0.476314,-0.142350,0.531259,0.000000,0.550000,
0.142350,0.531259,0.142350,0.531259,$1*%
%AMFreePoly1*
4,1,6,0.600000,0.200000,0.000000,-0.400000,-0.600000,0.200000,-0.600000,0.400000,0.600000,0.400000,0.600000,0.200000,0.600000,0.200000,$1*%
%AMFreePoly2*
4,1,6,0.600000,-0.250000,-0.600000,-0.250000,-0.600000,1.000000,0.000000,0.400000,0.600000,1.000000,0.600000,-0.250000,0.600000,-0.250000,$1*%
G04 Aperture macros list end*
%ADD10C,0.250000*%
%ADD11C,0.100000*%
%ADD12C,1.701800*%
%ADD13C,5.000000*%
%ADD14C,1.750000*%
%ADD15FreePoly0,0.000000*%
%ADD16R,1.800000X1.100000*%
%ADD17C,1.600000*%
%ADD18FreePoly1,270.000000*%
%ADD19FreePoly1,90.000000*%
%ADD20R,1.600000X1.600000*%
%ADD21FreePoly2,270.000000*%
%ADD22FreePoly2,90.000000*%
%ADD23R,0.800000X0.900000*%
%ADD24C,1.200000*%
%ADD25O,2.500000X1.700000*%
%ADD26RotRect,0.900000X0.800000X61.801000*%
%ADD27C,4.400000*%
%ADD28C,0.700000*%
%ADD29HorizOval,1.300000X0.448909X0.837246X-0.448909X-0.837246X0*%
%ADD30HorizOval,1.300000X0.283521X0.528787X-0.283521X-0.528787X0*%
G04 APERTURE END LIST*
D10*
%TO.C,U2*%
X195402000Y-51363224D02*
G75*
G03*
X195402000Y-51363224I-125000J0D01*
G01*
X193878000Y-51363224D02*
G75*
G03*
X193878000Y-51363224I-125000J0D01*
G01*
X195402000Y-53903224D02*
G75*
G03*
X195402000Y-53903224I-125000J0D01*
G01*
X193878000Y-53903224D02*
G75*
G03*
X193878000Y-53903224I-125000J0D01*
G01*
X195402000Y-56443224D02*
G75*
G03*
X195402000Y-56443224I-125000J0D01*
G01*
X193878000Y-56443224D02*
G75*
G03*
X193878000Y-56443224I-125000J0D01*
G01*
X195402000Y-58983224D02*
G75*
G03*
X195402000Y-58983224I-125000J0D01*
G01*
X193878000Y-58983224D02*
G75*
G03*
X193878000Y-58983224I-125000J0D01*
G01*
X195402000Y-61523224D02*
G75*
G03*
X195402000Y-61523224I-125000J0D01*
G01*
X193878000Y-61523224D02*
G75*
G03*
X193878000Y-61523224I-125000J0D01*
G01*
X195402000Y-64063224D02*
G75*
G03*
X195402000Y-64063224I-125000J0D01*
G01*
X193878000Y-64063224D02*
G75*
G03*
X193878000Y-64063224I-125000J0D01*
G01*
X195402000Y-66603224D02*
G75*
G03*
X195402000Y-66603224I-125000J0D01*
G01*
X193878000Y-66603224D02*
G75*
G03*
X193878000Y-66603224I-125000J0D01*
G01*
X195402000Y-69143224D02*
G75*
G03*
X195402000Y-69143224I-125000J0D01*
G01*
X193878000Y-69143224D02*
G75*
G03*
X193878000Y-69143224I-125000J0D01*
G01*
X195402000Y-71683224D02*
G75*
G03*
X195402000Y-71683224I-125000J0D01*
G01*
X193878000Y-71683224D02*
G75*
G03*
X193878000Y-71683224I-125000J0D01*
G01*
X195402000Y-74223224D02*
G75*
G03*
X195402000Y-74223224I-125000J0D01*
G01*
X193878000Y-74223224D02*
G75*
G03*
X193878000Y-74223224I-125000J0D01*
G01*
X195402000Y-76763224D02*
G75*
G03*
X195402000Y-76763224I-125000J0D01*
G01*
X193878000Y-76763224D02*
G75*
G03*
X193878000Y-76763224I-125000J0D01*
G01*
X195402000Y-79303224D02*
G75*
G03*
X195402000Y-79303224I-125000J0D01*
G01*
X193878000Y-79303224D02*
G75*
G03*
X193878000Y-79303224I-125000J0D01*
G01*
D11*
X189435000Y-51871224D02*
X188419000Y-51871224D01*
X188419000Y-50855224D01*
X189435000Y-50855224D01*
X189435000Y-51871224D01*
G36*
X189435000Y-51871224D02*
G01*
X188419000Y-51871224D01*
X188419000Y-50855224D01*
X189435000Y-50855224D01*
X189435000Y-51871224D01*
G37*
X200611000Y-51871224D02*
X199595000Y-51871224D01*
X199595000Y-50855224D01*
X200611000Y-50855224D01*
X200611000Y-51871224D01*
G36*
X200611000Y-51871224D02*
G01*
X199595000Y-51871224D01*
X199595000Y-50855224D01*
X200611000Y-50855224D01*
X200611000Y-51871224D01*
G37*
X189435000Y-54411224D02*
X188419000Y-54411224D01*
X188419000Y-53395224D01*
X189435000Y-53395224D01*
X189435000Y-54411224D01*
G36*
X189435000Y-54411224D02*
G01*
X188419000Y-54411224D01*
X188419000Y-53395224D01*
X189435000Y-53395224D01*
X189435000Y-54411224D01*
G37*
X200611000Y-54411224D02*
X199595000Y-54411224D01*
X199595000Y-53395224D01*
X200611000Y-53395224D01*
X200611000Y-54411224D01*
G36*
X200611000Y-54411224D02*
G01*
X199595000Y-54411224D01*
X199595000Y-53395224D01*
X200611000Y-53395224D01*
X200611000Y-54411224D01*
G37*
X189435000Y-56951224D02*
X188419000Y-56951224D01*
X188419000Y-55935224D01*
X189435000Y-55935224D01*
X189435000Y-56951224D01*
G36*
X189435000Y-56951224D02*
G01*
X188419000Y-56951224D01*
X188419000Y-55935224D01*
X189435000Y-55935224D01*
X189435000Y-56951224D01*
G37*
X200611000Y-56951224D02*
X199595000Y-56951224D01*
X199595000Y-55935224D01*
X200611000Y-55935224D01*
X200611000Y-56951224D01*
G36*
X200611000Y-56951224D02*
G01*
X199595000Y-56951224D01*
X199595000Y-55935224D01*
X200611000Y-55935224D01*
X200611000Y-56951224D01*
G37*
X189435000Y-59491224D02*
X188419000Y-59491224D01*
X188419000Y-58475224D01*
X189435000Y-58475224D01*
X189435000Y-59491224D01*
G36*
X189435000Y-59491224D02*
G01*
X188419000Y-59491224D01*
X188419000Y-58475224D01*
X189435000Y-58475224D01*
X189435000Y-59491224D01*
G37*
X200611000Y-59491224D02*
X199595000Y-59491224D01*
X199595000Y-58475224D01*
X200611000Y-58475224D01*
X200611000Y-59491224D01*
G36*
X200611000Y-59491224D02*
G01*
X199595000Y-59491224D01*
X199595000Y-58475224D01*
X200611000Y-58475224D01*
X200611000Y-59491224D01*
G37*
X189435000Y-62031224D02*
X188419000Y-62031224D01*
X188419000Y-61015224D01*
X189435000Y-61015224D01*
X189435000Y-62031224D01*
G36*
X189435000Y-62031224D02*
G01*
X188419000Y-62031224D01*
X188419000Y-61015224D01*
X189435000Y-61015224D01*
X189435000Y-62031224D01*
G37*
X200611000Y-62031224D02*
X199595000Y-62031224D01*
X199595000Y-61015224D01*
X200611000Y-61015224D01*
X200611000Y-62031224D01*
G36*
X200611000Y-62031224D02*
G01*
X199595000Y-62031224D01*
X199595000Y-61015224D01*
X200611000Y-61015224D01*
X200611000Y-62031224D01*
G37*
X189435000Y-64571224D02*
X188419000Y-64571224D01*
X188419000Y-63555224D01*
X189435000Y-63555224D01*
X189435000Y-64571224D01*
G36*
X189435000Y-64571224D02*
G01*
X188419000Y-64571224D01*
X188419000Y-63555224D01*
X189435000Y-63555224D01*
X189435000Y-64571224D01*
G37*
X200611000Y-64571224D02*
X199595000Y-64571224D01*
X199595000Y-63555224D01*
X200611000Y-63555224D01*
X200611000Y-64571224D01*
G36*
X200611000Y-64571224D02*
G01*
X199595000Y-64571224D01*
X199595000Y-63555224D01*
X200611000Y-63555224D01*
X200611000Y-64571224D01*
G37*
X189435000Y-67111224D02*
X188419000Y-67111224D01*
X188419000Y-66095224D01*
X189435000Y-66095224D01*
X189435000Y-67111224D01*
G36*
X189435000Y-67111224D02*
G01*
X188419000Y-67111224D01*
X188419000Y-66095224D01*
X189435000Y-66095224D01*
X189435000Y-67111224D01*
G37*
X200611000Y-67111224D02*
X199595000Y-67111224D01*
X199595000Y-66095224D01*
X200611000Y-66095224D01*
X200611000Y-67111224D01*
G36*
X200611000Y-67111224D02*
G01*
X199595000Y-67111224D01*
X199595000Y-66095224D01*
X200611000Y-66095224D01*
X200611000Y-67111224D01*
G37*
X189435000Y-69651224D02*
X188419000Y-69651224D01*
X188419000Y-68635224D01*
X189435000Y-68635224D01*
X189435000Y-69651224D01*
G36*
X189435000Y-69651224D02*
G01*
X188419000Y-69651224D01*
X188419000Y-68635224D01*
X189435000Y-68635224D01*
X189435000Y-69651224D01*
G37*
X200611000Y-69651224D02*
X199595000Y-69651224D01*
X199595000Y-68635224D01*
X200611000Y-68635224D01*
X200611000Y-69651224D01*
G36*
X200611000Y-69651224D02*
G01*
X199595000Y-69651224D01*
X199595000Y-68635224D01*
X200611000Y-68635224D01*
X200611000Y-69651224D01*
G37*
X189435000Y-72191224D02*
X188419000Y-72191224D01*
X188419000Y-71175224D01*
X189435000Y-71175224D01*
X189435000Y-72191224D01*
G36*
X189435000Y-72191224D02*
G01*
X188419000Y-72191224D01*
X188419000Y-71175224D01*
X189435000Y-71175224D01*
X189435000Y-72191224D01*
G37*
X200611000Y-72191224D02*
X199595000Y-72191224D01*
X199595000Y-71175224D01*
X200611000Y-71175224D01*
X200611000Y-72191224D01*
G36*
X200611000Y-72191224D02*
G01*
X199595000Y-72191224D01*
X199595000Y-71175224D01*
X200611000Y-71175224D01*
X200611000Y-72191224D01*
G37*
X189435000Y-74731224D02*
X188419000Y-74731224D01*
X188419000Y-73715224D01*
X189435000Y-73715224D01*
X189435000Y-74731224D01*
G36*
X189435000Y-74731224D02*
G01*
X188419000Y-74731224D01*
X188419000Y-73715224D01*
X189435000Y-73715224D01*
X189435000Y-74731224D01*
G37*
X200611000Y-74731224D02*
X199595000Y-74731224D01*
X199595000Y-73715224D01*
X200611000Y-73715224D01*
X200611000Y-74731224D01*
G36*
X200611000Y-74731224D02*
G01*
X199595000Y-74731224D01*
X199595000Y-73715224D01*
X200611000Y-73715224D01*
X200611000Y-74731224D01*
G37*
X189435000Y-77271224D02*
X188419000Y-77271224D01*
X188419000Y-76255224D01*
X189435000Y-76255224D01*
X189435000Y-77271224D01*
G36*
X189435000Y-77271224D02*
G01*
X188419000Y-77271224D01*
X188419000Y-76255224D01*
X189435000Y-76255224D01*
X189435000Y-77271224D01*
G37*
X200611000Y-77271224D02*
X199595000Y-77271224D01*
X199595000Y-76255224D01*
X200611000Y-76255224D01*
X200611000Y-77271224D01*
G36*
X200611000Y-77271224D02*
G01*
X199595000Y-77271224D01*
X199595000Y-76255224D01*
X200611000Y-76255224D01*
X200611000Y-77271224D01*
G37*
X189435000Y-79811224D02*
X188419000Y-79811224D01*
X188419000Y-78795224D01*
X189435000Y-78795224D01*
X189435000Y-79811224D01*
G36*
X189435000Y-79811224D02*
G01*
X188419000Y-79811224D01*
X188419000Y-78795224D01*
X189435000Y-78795224D01*
X189435000Y-79811224D01*
G37*
X200611000Y-79811224D02*
X199595000Y-79811224D01*
X199595000Y-78795224D01*
X200611000Y-78795224D01*
X200611000Y-79811224D01*
G36*
X200611000Y-79811224D02*
G01*
X199595000Y-79811224D01*
X199595000Y-78795224D01*
X200611000Y-78795224D01*
X200611000Y-79811224D01*
G37*
%TD*%
D12*
%TO.C,K26*%
X187140000Y-143280000D03*
D13*
X191987169Y-145879029D03*
D12*
X196834338Y-148478058D03*
D14*
X186978613Y-149717892D03*
X189199119Y-151078719D03*
X191561391Y-152175156D03*
X185784959Y-146865228D03*
X185888445Y-147941932D03*
X193643916Y-152100379D03*
X194597993Y-151590736D03*
%TD*%
D12*
%TO.C,K25*%
X173287831Y-131000971D03*
D13*
X178135000Y-133600000D03*
D12*
X182982169Y-136199029D03*
D14*
X173126444Y-137438863D03*
X175346950Y-138799690D03*
X177709222Y-139896127D03*
X171932790Y-134586199D03*
X172036276Y-135662903D03*
X179791747Y-139821350D03*
X180745824Y-139311707D03*
%TD*%
D15*
%TO.C,SW2*%
X171710000Y-48210000D03*
D16*
X168610000Y-48210000D03*
X174810000Y-48210000D03*
X168610000Y-51910000D03*
X174810000Y-51910000D03*
D15*
X171710000Y-51910000D03*
%TD*%
D17*
%TO.C,U2*%
X202135000Y-51363224D03*
D18*
X200357000Y-51363224D03*
D19*
X188673000Y-51363224D03*
D17*
X186895000Y-51363224D03*
D20*
X186895000Y-51363224D03*
D17*
X202135000Y-53903224D03*
D18*
X200357000Y-53903224D03*
D19*
X188673000Y-53903224D03*
D17*
X186895000Y-53903224D03*
X202135000Y-56443224D03*
D18*
X200357000Y-56443224D03*
D19*
X188673000Y-56443224D03*
D17*
X186895000Y-56443224D03*
X202135000Y-58983224D03*
D18*
X200357000Y-58983224D03*
D19*
X188673000Y-58983224D03*
D17*
X186895000Y-58983224D03*
X202135000Y-61523224D03*
D18*
X200357000Y-61523224D03*
D19*
X188673000Y-61523224D03*
D17*
X186895000Y-61523224D03*
X202135000Y-64063224D03*
D18*
X200357000Y-64063224D03*
D19*
X188673000Y-64063224D03*
D17*
X186895000Y-64063224D03*
X202135000Y-66603224D03*
D18*
X200357000Y-66603224D03*
D19*
X188673000Y-66603224D03*
D17*
X186895000Y-66603224D03*
X202135000Y-69143224D03*
D18*
X200357000Y-69143224D03*
D19*
X188673000Y-69143224D03*
D17*
X186895000Y-69143224D03*
X202135000Y-71683224D03*
D18*
X200357000Y-71683224D03*
D19*
X188673000Y-71683224D03*
D17*
X186895000Y-71683224D03*
X202135000Y-74223224D03*
D18*
X200357000Y-74223224D03*
D19*
X188673000Y-74223224D03*
D17*
X186895000Y-74223224D03*
X202135000Y-76763224D03*
D18*
X200357000Y-76763224D03*
D19*
X188673000Y-76763224D03*
D17*
X186895000Y-76763224D03*
X202135000Y-79303224D03*
D18*
X200357000Y-79303224D03*
D19*
X188673000Y-79303224D03*
D17*
X186895000Y-79303224D03*
D21*
X199341000Y-51363224D03*
X199341000Y-53903224D03*
X199341000Y-56443224D03*
X199341000Y-58983224D03*
X199341000Y-61523224D03*
X199341000Y-64063224D03*
X199341000Y-66603224D03*
X199341000Y-69143224D03*
X199341000Y-71683224D03*
X199341000Y-74223224D03*
X199341000Y-76763224D03*
X199341000Y-79303224D03*
D22*
X189689000Y-79303224D03*
X189689000Y-76763224D03*
X189689000Y-74223224D03*
X189689000Y-71683224D03*
X189689000Y-69143224D03*
X189689000Y-66603224D03*
X189689000Y-64063224D03*
X189689000Y-61523224D03*
X189689000Y-58983224D03*
X189689000Y-56443224D03*
X189689000Y-53903224D03*
X189689000Y-51363224D03*
%TD*%
D12*
%TO.C,K3*%
X80500000Y-92000000D03*
D13*
X86000000Y-92000000D03*
D12*
X91500000Y-92000000D03*
D14*
X83400000Y-97750000D03*
X86000000Y-97900000D03*
X88600000Y-97750000D03*
X81000000Y-95800000D03*
X81600000Y-96700000D03*
X90400000Y-96700000D03*
X91000000Y-95800000D03*
%TD*%
D12*
%TO.C,K7*%
X98500000Y-92000000D03*
D13*
X104000000Y-92000000D03*
D12*
X109500000Y-92000000D03*
D14*
X101400000Y-97750000D03*
X104000000Y-97900000D03*
X106600000Y-97750000D03*
X99000000Y-95800000D03*
X99600000Y-96700000D03*
X108400000Y-96700000D03*
X109000000Y-95800000D03*
%TD*%
D12*
%TO.C,K16*%
X134500000Y-101000000D03*
D13*
X140000000Y-101000000D03*
D12*
X145500000Y-101000000D03*
D14*
X137400000Y-106750000D03*
X140000000Y-106900000D03*
X142600000Y-106750000D03*
X135000000Y-104800000D03*
X135600000Y-105700000D03*
X144400000Y-105700000D03*
X145000000Y-104800000D03*
%TD*%
D12*
%TO.C,K17*%
X152500000Y-56400000D03*
D13*
X158000000Y-56400000D03*
D12*
X163500000Y-56400000D03*
D14*
X155400000Y-62150000D03*
X158000000Y-62300000D03*
X160600000Y-62150000D03*
X153000000Y-60200000D03*
X153600000Y-61100000D03*
X162400000Y-61100000D03*
X163000000Y-60200000D03*
%TD*%
D12*
%TO.C,K11*%
X116500000Y-87500000D03*
D13*
X122000000Y-87500000D03*
D12*
X127500000Y-87500000D03*
D14*
X119400000Y-93250000D03*
X122000000Y-93400000D03*
X124600000Y-93250000D03*
X117000000Y-91300000D03*
X117600000Y-92200000D03*
X126400000Y-92200000D03*
X127000000Y-91300000D03*
%TD*%
D12*
%TO.C,K5*%
X98500000Y-58000000D03*
D13*
X104000000Y-58000000D03*
D12*
X109500000Y-58000000D03*
D14*
X101400000Y-63750000D03*
X104000000Y-63900000D03*
X106600000Y-63750000D03*
X99000000Y-61800000D03*
X99600000Y-62700000D03*
X108400000Y-62700000D03*
X109000000Y-61800000D03*
%TD*%
D23*
%TO.C,D4*%
X103050000Y-105300000D03*
X104950000Y-105300000D03*
X104000000Y-103300000D03*
%TD*%
%TO.C,D10*%
X175050000Y-56600000D03*
X176950000Y-56600000D03*
X176000000Y-54600000D03*
%TD*%
D12*
%TO.C,K23*%
X170500000Y-94300000D03*
D13*
X176000000Y-94300000D03*
D12*
X181500000Y-94300000D03*
D14*
X173400000Y-100050000D03*
X176000000Y-100200000D03*
X178600000Y-100050000D03*
X171000000Y-98100000D03*
X171600000Y-99000000D03*
X180400000Y-99000000D03*
X181000000Y-98100000D03*
%TD*%
D12*
%TO.C,K14*%
X134500000Y-67000000D03*
D13*
X140000000Y-67000000D03*
D12*
X145500000Y-67000000D03*
D14*
X137400000Y-72750000D03*
X140000000Y-72900000D03*
X142600000Y-72750000D03*
X135000000Y-70800000D03*
X135600000Y-71700000D03*
X144400000Y-71700000D03*
X145000000Y-70800000D03*
%TD*%
D24*
%TO.C,J5*%
X195760000Y-94570000D03*
X202760000Y-94570000D03*
D25*
X197960000Y-90720000D03*
X200960000Y-90720000D03*
X192460000Y-94920000D03*
X193960000Y-90720000D03*
D24*
X202760000Y-92820000D03*
X195760000Y-92820000D03*
%TD*%
D12*
%TO.C,K18*%
X152500000Y-73400000D03*
D13*
X158000000Y-73400000D03*
D12*
X163500000Y-73400000D03*
D14*
X155400000Y-79150000D03*
X158000000Y-79300000D03*
X160600000Y-79150000D03*
X153000000Y-77200000D03*
X153600000Y-78100000D03*
X162400000Y-78100000D03*
X163000000Y-77200000D03*
%TD*%
D12*
%TO.C,K10*%
X116500000Y-70500000D03*
D13*
X122000000Y-70500000D03*
D12*
X127500000Y-70500000D03*
D14*
X119400000Y-76250000D03*
X122000000Y-76400000D03*
X124600000Y-76250000D03*
X117000000Y-74300000D03*
X117600000Y-75200000D03*
X126400000Y-75200000D03*
X127000000Y-74300000D03*
%TD*%
D12*
%TO.C,K6*%
X98500000Y-75000000D03*
D13*
X104000000Y-75000000D03*
D12*
X109500000Y-75000000D03*
D14*
X101400000Y-80750000D03*
X104000000Y-80900000D03*
X106600000Y-80750000D03*
X99000000Y-78800000D03*
X99600000Y-79700000D03*
X108400000Y-79700000D03*
X109000000Y-78800000D03*
%TD*%
D26*
%TO.C,D14*%
X179057500Y-129884684D03*
X180731992Y-130782501D03*
X180839816Y-128570969D03*
%TD*%
D23*
%TO.C,D1*%
X103050000Y-54300000D03*
X104950000Y-54300000D03*
X104000000Y-52300000D03*
%TD*%
D12*
%TO.C,K12*%
X116500000Y-104500000D03*
D13*
X122000000Y-104500000D03*
D12*
X127500000Y-104500000D03*
D14*
X119400000Y-110250000D03*
X122000000Y-110400000D03*
X124600000Y-110250000D03*
X117000000Y-108300000D03*
X117600000Y-109200000D03*
X126400000Y-109200000D03*
X127000000Y-108300000D03*
%TD*%
D23*
%TO.C,D5*%
X139050000Y-97300000D03*
X140950000Y-97300000D03*
X140000000Y-95300000D03*
%TD*%
D12*
%TO.C,K22*%
X170500000Y-77300000D03*
D13*
X176000000Y-77300000D03*
D12*
X181500000Y-77300000D03*
D14*
X173400000Y-83050000D03*
X176000000Y-83200000D03*
X178600000Y-83050000D03*
X171000000Y-81100000D03*
X171600000Y-82000000D03*
X180400000Y-82000000D03*
X181000000Y-81100000D03*
%TD*%
D27*
%TO.C,H13*%
X-68455000Y-47330000D03*
X-30355000Y-47330000D03*
X-49405000Y-66380000D03*
X-49405000Y-28280000D03*
%TD*%
D12*
%TO.C,K20*%
X152500000Y-107400000D03*
D13*
X158000000Y-107400000D03*
D12*
X163500000Y-107400000D03*
D14*
X155400000Y-113150000D03*
X158000000Y-113300000D03*
X160600000Y-113150000D03*
X153000000Y-111200000D03*
X153600000Y-112100000D03*
X162400000Y-112100000D03*
X163000000Y-111200000D03*
%TD*%
D12*
%TO.C,K15*%
X134500000Y-84000000D03*
D13*
X140000000Y-84000000D03*
D12*
X145500000Y-84000000D03*
D14*
X137400000Y-89750000D03*
X140000000Y-89900000D03*
X142600000Y-89750000D03*
X135000000Y-87800000D03*
X135600000Y-88700000D03*
X144400000Y-88700000D03*
X145000000Y-87800000D03*
%TD*%
D12*
%TO.C,K4*%
X80500000Y-109000000D03*
D13*
X86000000Y-109000000D03*
D12*
X91500000Y-109000000D03*
D14*
X83400000Y-114750000D03*
X86000000Y-114900000D03*
X88600000Y-114750000D03*
X81000000Y-112800000D03*
X81600000Y-113700000D03*
X90400000Y-113700000D03*
X91000000Y-112800000D03*
%TD*%
D12*
%TO.C,K21*%
X170500000Y-60300000D03*
D13*
X176000000Y-60300000D03*
D12*
X181500000Y-60300000D03*
D14*
X173400000Y-66050000D03*
X176000000Y-66200000D03*
X178600000Y-66050000D03*
X171000000Y-64100000D03*
X171600000Y-65000000D03*
X180400000Y-65000000D03*
X181000000Y-64100000D03*
%TD*%
D12*
%TO.C,K13*%
X134500000Y-50000000D03*
D13*
X140000000Y-50000000D03*
D12*
X145500000Y-50000000D03*
D14*
X137400000Y-55750000D03*
X140000000Y-55900000D03*
X142600000Y-55750000D03*
X135000000Y-53800000D03*
X135600000Y-54700000D03*
X144400000Y-54700000D03*
X145000000Y-53800000D03*
%TD*%
D12*
%TO.C,K2*%
X80500000Y-75000000D03*
D13*
X86000000Y-75000000D03*
D12*
X91500000Y-75000000D03*
D14*
X83400000Y-80750000D03*
X86000000Y-80900000D03*
X88600000Y-80750000D03*
X81000000Y-78800000D03*
X81600000Y-79700000D03*
X90400000Y-79700000D03*
X91000000Y-78800000D03*
%TD*%
D23*
%TO.C,D6*%
X139050000Y-46300000D03*
X140950000Y-46300000D03*
X140000000Y-44300000D03*
%TD*%
D12*
%TO.C,K1*%
X80500000Y-58000000D03*
D13*
X86000000Y-58000000D03*
D12*
X91500000Y-58000000D03*
D14*
X83400000Y-63750000D03*
X86000000Y-63900000D03*
X88600000Y-63750000D03*
X81000000Y-61800000D03*
X81600000Y-62700000D03*
X90400000Y-62700000D03*
X91000000Y-61800000D03*
%TD*%
D23*
%TO.C,D8*%
X139050000Y-80300000D03*
X140950000Y-80300000D03*
X140000000Y-78300000D03*
%TD*%
D12*
%TO.C,K24*%
X170500000Y-111300000D03*
D13*
X176000000Y-111300000D03*
D12*
X181500000Y-111300000D03*
D14*
X173400000Y-117050000D03*
X176000000Y-117200000D03*
X178600000Y-117050000D03*
X171000000Y-115100000D03*
X171600000Y-116000000D03*
X180400000Y-116000000D03*
X181000000Y-115100000D03*
%TD*%
D23*
%TO.C,D11*%
X175050000Y-73600000D03*
X176950000Y-73600000D03*
X176000000Y-71600000D03*
%TD*%
%TO.C,D9*%
X175050000Y-107600000D03*
X176950000Y-107600000D03*
X176000000Y-105600000D03*
%TD*%
D12*
%TO.C,K19*%
X152500000Y-90400000D03*
D13*
X158000000Y-90400000D03*
D12*
X163500000Y-90400000D03*
D14*
X155400000Y-96150000D03*
X158000000Y-96300000D03*
X160600000Y-96150000D03*
X153000000Y-94200000D03*
X153600000Y-95100000D03*
X162400000Y-95100000D03*
X163000000Y-94200000D03*
%TD*%
D23*
%TO.C,D2*%
X103050000Y-71300000D03*
X104950000Y-71300000D03*
X104000000Y-69300000D03*
%TD*%
D12*
%TO.C,K9*%
X116500000Y-53500000D03*
D13*
X122000000Y-53500000D03*
D12*
X127500000Y-53500000D03*
D14*
X119400000Y-59250000D03*
X122000000Y-59400000D03*
X124600000Y-59250000D03*
X117000000Y-57300000D03*
X117600000Y-58200000D03*
X126400000Y-58200000D03*
X127000000Y-57300000D03*
%TD*%
D28*
%TO.C,J2*%
X200687007Y-133297827D03*
X199937892Y-132896172D03*
X199188777Y-132494517D03*
X198439662Y-132092862D03*
X197690547Y-131691207D03*
X196941432Y-131289552D03*
X196192317Y-130887897D03*
X195443202Y-130486242D03*
X196081125Y-129296471D03*
X196830240Y-129698126D03*
X197579355Y-130099781D03*
X198328470Y-130501436D03*
X199077585Y-130903091D03*
X199826700Y-131304746D03*
X200575814Y-131706401D03*
X201324929Y-132108056D03*
D29*
X202108639Y-133492732D03*
D30*
X204069660Y-129835288D03*
D29*
X194494105Y-129410026D03*
D30*
X196455127Y-125752582D03*
%TD*%
D23*
%TO.C,D3*%
X103050000Y-88300000D03*
X104950000Y-88300000D03*
X104000000Y-86300000D03*
%TD*%
%TO.C,D7*%
X139050000Y-63300000D03*
X140950000Y-63300000D03*
X140000000Y-61300000D03*
%TD*%
D12*
%TO.C,K8*%
X98500000Y-109000000D03*
D13*
X104000000Y-109000000D03*
D12*
X109500000Y-109000000D03*
D14*
X101400000Y-114750000D03*
X104000000Y-114900000D03*
X106600000Y-114750000D03*
X99000000Y-112800000D03*
X99600000Y-113700000D03*
X108400000Y-113700000D03*
X109000000Y-112800000D03*
%TD*%
D23*
%TO.C,D12*%
X175050000Y-90600000D03*
X176950000Y-90600000D03*
X176000000Y-88600000D03*
%TD*%
M02*
