%TF.GenerationSoftware,KiCad,Pcbnew,7.0.6*%
%TF.CreationDate,2023-11-22T12:36:20+08:00*%
%TF.ProjectId,tenten,74656e74-656e-42e6-9b69-6361645f7063,rev?*%
%TF.SameCoordinates,Original*%
%TF.FileFunction,Legend,Bot*%
%TF.FilePolarity,Positive*%
%FSLAX46Y46*%
G04 Gerber Fmt 4.6, Leading zero omitted, Abs format (unit mm)*
G04 Created by KiCad (PCBNEW 7.0.6) date 2023-11-22 12:36:20*
%MOMM*%
%LPD*%
G01*
G04 APERTURE LIST*
%ADD10C,0.150000*%
%ADD11C,0.050000*%
G04 APERTURE END LIST*
D10*
X73538094Y-106667200D02*
X73395237Y-106714819D01*
X73395237Y-106714819D02*
X73157142Y-106714819D01*
X73157142Y-106714819D02*
X73061904Y-106667200D01*
X73061904Y-106667200D02*
X73014285Y-106619580D01*
X73014285Y-106619580D02*
X72966666Y-106524342D01*
X72966666Y-106524342D02*
X72966666Y-106429104D01*
X72966666Y-106429104D02*
X73014285Y-106333866D01*
X73014285Y-106333866D02*
X73061904Y-106286247D01*
X73061904Y-106286247D02*
X73157142Y-106238628D01*
X73157142Y-106238628D02*
X73347618Y-106191009D01*
X73347618Y-106191009D02*
X73442856Y-106143390D01*
X73442856Y-106143390D02*
X73490475Y-106095771D01*
X73490475Y-106095771D02*
X73538094Y-106000533D01*
X73538094Y-106000533D02*
X73538094Y-105905295D01*
X73538094Y-105905295D02*
X73490475Y-105810057D01*
X73490475Y-105810057D02*
X73442856Y-105762438D01*
X73442856Y-105762438D02*
X73347618Y-105714819D01*
X73347618Y-105714819D02*
X73109523Y-105714819D01*
X73109523Y-105714819D02*
X72966666Y-105762438D01*
X72585713Y-105810057D02*
X72538094Y-105762438D01*
X72538094Y-105762438D02*
X72442856Y-105714819D01*
X72442856Y-105714819D02*
X72204761Y-105714819D01*
X72204761Y-105714819D02*
X72109523Y-105762438D01*
X72109523Y-105762438D02*
X72061904Y-105810057D01*
X72061904Y-105810057D02*
X72014285Y-105905295D01*
X72014285Y-105905295D02*
X72014285Y-106000533D01*
X72014285Y-106000533D02*
X72061904Y-106143390D01*
X72061904Y-106143390D02*
X72633332Y-106714819D01*
X72633332Y-106714819D02*
X72014285Y-106714819D01*
X71061904Y-106714819D02*
X71633332Y-106714819D01*
X71347618Y-106714819D02*
X71347618Y-105714819D01*
X71347618Y-105714819D02*
X71442856Y-105857676D01*
X71442856Y-105857676D02*
X71538094Y-105952914D01*
X71538094Y-105952914D02*
X71633332Y-106000533D01*
X73219828Y-61097057D02*
X73076971Y-61144676D01*
X73076971Y-61144676D02*
X72838876Y-61144676D01*
X72838876Y-61144676D02*
X72743638Y-61097057D01*
X72743638Y-61097057D02*
X72696019Y-61049437D01*
X72696019Y-61049437D02*
X72648400Y-60954199D01*
X72648400Y-60954199D02*
X72648400Y-60858961D01*
X72648400Y-60858961D02*
X72696019Y-60763723D01*
X72696019Y-60763723D02*
X72743638Y-60716104D01*
X72743638Y-60716104D02*
X72838876Y-60668485D01*
X72838876Y-60668485D02*
X73029352Y-60620866D01*
X73029352Y-60620866D02*
X73124590Y-60573247D01*
X73124590Y-60573247D02*
X73172209Y-60525628D01*
X73172209Y-60525628D02*
X73219828Y-60430390D01*
X73219828Y-60430390D02*
X73219828Y-60335152D01*
X73219828Y-60335152D02*
X73172209Y-60239914D01*
X73172209Y-60239914D02*
X73124590Y-60192295D01*
X73124590Y-60192295D02*
X73029352Y-60144676D01*
X73029352Y-60144676D02*
X72791257Y-60144676D01*
X72791257Y-60144676D02*
X72648400Y-60192295D01*
X71696019Y-61144676D02*
X72267447Y-61144676D01*
X71981733Y-61144676D02*
X71981733Y-60144676D01*
X71981733Y-60144676D02*
X72076971Y-60287533D01*
X72076971Y-60287533D02*
X72172209Y-60382771D01*
X72172209Y-60382771D02*
X72267447Y-60430390D01*
X91262104Y-62764200D02*
X91119247Y-62811819D01*
X91119247Y-62811819D02*
X90881152Y-62811819D01*
X90881152Y-62811819D02*
X90785914Y-62764200D01*
X90785914Y-62764200D02*
X90738295Y-62716580D01*
X90738295Y-62716580D02*
X90690676Y-62621342D01*
X90690676Y-62621342D02*
X90690676Y-62526104D01*
X90690676Y-62526104D02*
X90738295Y-62430866D01*
X90738295Y-62430866D02*
X90785914Y-62383247D01*
X90785914Y-62383247D02*
X90881152Y-62335628D01*
X90881152Y-62335628D02*
X91071628Y-62288009D01*
X91071628Y-62288009D02*
X91166866Y-62240390D01*
X91166866Y-62240390D02*
X91214485Y-62192771D01*
X91214485Y-62192771D02*
X91262104Y-62097533D01*
X91262104Y-62097533D02*
X91262104Y-62002295D01*
X91262104Y-62002295D02*
X91214485Y-61907057D01*
X91214485Y-61907057D02*
X91166866Y-61859438D01*
X91166866Y-61859438D02*
X91071628Y-61811819D01*
X91071628Y-61811819D02*
X90833533Y-61811819D01*
X90833533Y-61811819D02*
X90690676Y-61859438D01*
X90309723Y-61907057D02*
X90262104Y-61859438D01*
X90262104Y-61859438D02*
X90166866Y-61811819D01*
X90166866Y-61811819D02*
X89928771Y-61811819D01*
X89928771Y-61811819D02*
X89833533Y-61859438D01*
X89833533Y-61859438D02*
X89785914Y-61907057D01*
X89785914Y-61907057D02*
X89738295Y-62002295D01*
X89738295Y-62002295D02*
X89738295Y-62097533D01*
X89738295Y-62097533D02*
X89785914Y-62240390D01*
X89785914Y-62240390D02*
X90357342Y-62811819D01*
X90357342Y-62811819D02*
X89738295Y-62811819D01*
X91687494Y-96647800D02*
X91544637Y-96695419D01*
X91544637Y-96695419D02*
X91306542Y-96695419D01*
X91306542Y-96695419D02*
X91211304Y-96647800D01*
X91211304Y-96647800D02*
X91163685Y-96600180D01*
X91163685Y-96600180D02*
X91116066Y-96504942D01*
X91116066Y-96504942D02*
X91116066Y-96409704D01*
X91116066Y-96409704D02*
X91163685Y-96314466D01*
X91163685Y-96314466D02*
X91211304Y-96266847D01*
X91211304Y-96266847D02*
X91306542Y-96219228D01*
X91306542Y-96219228D02*
X91497018Y-96171609D01*
X91497018Y-96171609D02*
X91592256Y-96123990D01*
X91592256Y-96123990D02*
X91639875Y-96076371D01*
X91639875Y-96076371D02*
X91687494Y-95981133D01*
X91687494Y-95981133D02*
X91687494Y-95885895D01*
X91687494Y-95885895D02*
X91639875Y-95790657D01*
X91639875Y-95790657D02*
X91592256Y-95743038D01*
X91592256Y-95743038D02*
X91497018Y-95695419D01*
X91497018Y-95695419D02*
X91258923Y-95695419D01*
X91258923Y-95695419D02*
X91116066Y-95743038D01*
X90735113Y-95790657D02*
X90687494Y-95743038D01*
X90687494Y-95743038D02*
X90592256Y-95695419D01*
X90592256Y-95695419D02*
X90354161Y-95695419D01*
X90354161Y-95695419D02*
X90258923Y-95743038D01*
X90258923Y-95743038D02*
X90211304Y-95790657D01*
X90211304Y-95790657D02*
X90163685Y-95885895D01*
X90163685Y-95885895D02*
X90163685Y-95981133D01*
X90163685Y-95981133D02*
X90211304Y-96123990D01*
X90211304Y-96123990D02*
X90782732Y-96695419D01*
X90782732Y-96695419D02*
X90163685Y-96695419D01*
X89782732Y-95790657D02*
X89735113Y-95743038D01*
X89735113Y-95743038D02*
X89639875Y-95695419D01*
X89639875Y-95695419D02*
X89401780Y-95695419D01*
X89401780Y-95695419D02*
X89306542Y-95743038D01*
X89306542Y-95743038D02*
X89258923Y-95790657D01*
X89258923Y-95790657D02*
X89211304Y-95885895D01*
X89211304Y-95885895D02*
X89211304Y-95981133D01*
X89211304Y-95981133D02*
X89258923Y-96123990D01*
X89258923Y-96123990D02*
X89830351Y-96695419D01*
X89830351Y-96695419D02*
X89211304Y-96695419D01*
X127696018Y-67697057D02*
X127553161Y-67744676D01*
X127553161Y-67744676D02*
X127315066Y-67744676D01*
X127315066Y-67744676D02*
X127219828Y-67697057D01*
X127219828Y-67697057D02*
X127172209Y-67649437D01*
X127172209Y-67649437D02*
X127124590Y-67554199D01*
X127124590Y-67554199D02*
X127124590Y-67458961D01*
X127124590Y-67458961D02*
X127172209Y-67363723D01*
X127172209Y-67363723D02*
X127219828Y-67316104D01*
X127219828Y-67316104D02*
X127315066Y-67268485D01*
X127315066Y-67268485D02*
X127505542Y-67220866D01*
X127505542Y-67220866D02*
X127600780Y-67173247D01*
X127600780Y-67173247D02*
X127648399Y-67125628D01*
X127648399Y-67125628D02*
X127696018Y-67030390D01*
X127696018Y-67030390D02*
X127696018Y-66935152D01*
X127696018Y-66935152D02*
X127648399Y-66839914D01*
X127648399Y-66839914D02*
X127600780Y-66792295D01*
X127600780Y-66792295D02*
X127505542Y-66744676D01*
X127505542Y-66744676D02*
X127267447Y-66744676D01*
X127267447Y-66744676D02*
X127124590Y-66792295D01*
X126172209Y-67744676D02*
X126743637Y-67744676D01*
X126457923Y-67744676D02*
X126457923Y-66744676D01*
X126457923Y-66744676D02*
X126553161Y-66887533D01*
X126553161Y-66887533D02*
X126648399Y-66982771D01*
X126648399Y-66982771D02*
X126743637Y-67030390D01*
X125315066Y-67078009D02*
X125315066Y-67744676D01*
X125553161Y-66697057D02*
X125791256Y-67411342D01*
X125791256Y-67411342D02*
X125172209Y-67411342D01*
X145687894Y-100026000D02*
X145545037Y-100073619D01*
X145545037Y-100073619D02*
X145306942Y-100073619D01*
X145306942Y-100073619D02*
X145211704Y-100026000D01*
X145211704Y-100026000D02*
X145164085Y-99978380D01*
X145164085Y-99978380D02*
X145116466Y-99883142D01*
X145116466Y-99883142D02*
X145116466Y-99787904D01*
X145116466Y-99787904D02*
X145164085Y-99692666D01*
X145164085Y-99692666D02*
X145211704Y-99645047D01*
X145211704Y-99645047D02*
X145306942Y-99597428D01*
X145306942Y-99597428D02*
X145497418Y-99549809D01*
X145497418Y-99549809D02*
X145592656Y-99502190D01*
X145592656Y-99502190D02*
X145640275Y-99454571D01*
X145640275Y-99454571D02*
X145687894Y-99359333D01*
X145687894Y-99359333D02*
X145687894Y-99264095D01*
X145687894Y-99264095D02*
X145640275Y-99168857D01*
X145640275Y-99168857D02*
X145592656Y-99121238D01*
X145592656Y-99121238D02*
X145497418Y-99073619D01*
X145497418Y-99073619D02*
X145259323Y-99073619D01*
X145259323Y-99073619D02*
X145116466Y-99121238D01*
X144735513Y-99168857D02*
X144687894Y-99121238D01*
X144687894Y-99121238D02*
X144592656Y-99073619D01*
X144592656Y-99073619D02*
X144354561Y-99073619D01*
X144354561Y-99073619D02*
X144259323Y-99121238D01*
X144259323Y-99121238D02*
X144211704Y-99168857D01*
X144211704Y-99168857D02*
X144164085Y-99264095D01*
X144164085Y-99264095D02*
X144164085Y-99359333D01*
X144164085Y-99359333D02*
X144211704Y-99502190D01*
X144211704Y-99502190D02*
X144783132Y-100073619D01*
X144783132Y-100073619D02*
X144164085Y-100073619D01*
X143259323Y-99073619D02*
X143735513Y-99073619D01*
X143735513Y-99073619D02*
X143783132Y-99549809D01*
X143783132Y-99549809D02*
X143735513Y-99502190D01*
X143735513Y-99502190D02*
X143640275Y-99454571D01*
X143640275Y-99454571D02*
X143402180Y-99454571D01*
X143402180Y-99454571D02*
X143306942Y-99502190D01*
X143306942Y-99502190D02*
X143259323Y-99549809D01*
X143259323Y-99549809D02*
X143211704Y-99645047D01*
X143211704Y-99645047D02*
X143211704Y-99883142D01*
X143211704Y-99883142D02*
X143259323Y-99978380D01*
X143259323Y-99978380D02*
X143306942Y-100026000D01*
X143306942Y-100026000D02*
X143402180Y-100073619D01*
X143402180Y-100073619D02*
X143640275Y-100073619D01*
X143640275Y-100073619D02*
X143735513Y-100026000D01*
X143735513Y-100026000D02*
X143783132Y-99978380D01*
X109619894Y-89866000D02*
X109477037Y-89913619D01*
X109477037Y-89913619D02*
X109238942Y-89913619D01*
X109238942Y-89913619D02*
X109143704Y-89866000D01*
X109143704Y-89866000D02*
X109096085Y-89818380D01*
X109096085Y-89818380D02*
X109048466Y-89723142D01*
X109048466Y-89723142D02*
X109048466Y-89627904D01*
X109048466Y-89627904D02*
X109096085Y-89532666D01*
X109096085Y-89532666D02*
X109143704Y-89485047D01*
X109143704Y-89485047D02*
X109238942Y-89437428D01*
X109238942Y-89437428D02*
X109429418Y-89389809D01*
X109429418Y-89389809D02*
X109524656Y-89342190D01*
X109524656Y-89342190D02*
X109572275Y-89294571D01*
X109572275Y-89294571D02*
X109619894Y-89199333D01*
X109619894Y-89199333D02*
X109619894Y-89104095D01*
X109619894Y-89104095D02*
X109572275Y-89008857D01*
X109572275Y-89008857D02*
X109524656Y-88961238D01*
X109524656Y-88961238D02*
X109429418Y-88913619D01*
X109429418Y-88913619D02*
X109191323Y-88913619D01*
X109191323Y-88913619D02*
X109048466Y-88961238D01*
X108667513Y-89008857D02*
X108619894Y-88961238D01*
X108619894Y-88961238D02*
X108524656Y-88913619D01*
X108524656Y-88913619D02*
X108286561Y-88913619D01*
X108286561Y-88913619D02*
X108191323Y-88961238D01*
X108191323Y-88961238D02*
X108143704Y-89008857D01*
X108143704Y-89008857D02*
X108096085Y-89104095D01*
X108096085Y-89104095D02*
X108096085Y-89199333D01*
X108096085Y-89199333D02*
X108143704Y-89342190D01*
X108143704Y-89342190D02*
X108715132Y-89913619D01*
X108715132Y-89913619D02*
X108096085Y-89913619D01*
X107762751Y-88913619D02*
X107143704Y-88913619D01*
X107143704Y-88913619D02*
X107477037Y-89294571D01*
X107477037Y-89294571D02*
X107334180Y-89294571D01*
X107334180Y-89294571D02*
X107238942Y-89342190D01*
X107238942Y-89342190D02*
X107191323Y-89389809D01*
X107191323Y-89389809D02*
X107143704Y-89485047D01*
X107143704Y-89485047D02*
X107143704Y-89723142D01*
X107143704Y-89723142D02*
X107191323Y-89818380D01*
X107191323Y-89818380D02*
X107238942Y-89866000D01*
X107238942Y-89866000D02*
X107334180Y-89913619D01*
X107334180Y-89913619D02*
X107619894Y-89913619D01*
X107619894Y-89913619D02*
X107715132Y-89866000D01*
X107715132Y-89866000D02*
X107762751Y-89818380D01*
X109670694Y-72670200D02*
X109527837Y-72717819D01*
X109527837Y-72717819D02*
X109289742Y-72717819D01*
X109289742Y-72717819D02*
X109194504Y-72670200D01*
X109194504Y-72670200D02*
X109146885Y-72622580D01*
X109146885Y-72622580D02*
X109099266Y-72527342D01*
X109099266Y-72527342D02*
X109099266Y-72432104D01*
X109099266Y-72432104D02*
X109146885Y-72336866D01*
X109146885Y-72336866D02*
X109194504Y-72289247D01*
X109194504Y-72289247D02*
X109289742Y-72241628D01*
X109289742Y-72241628D02*
X109480218Y-72194009D01*
X109480218Y-72194009D02*
X109575456Y-72146390D01*
X109575456Y-72146390D02*
X109623075Y-72098771D01*
X109623075Y-72098771D02*
X109670694Y-72003533D01*
X109670694Y-72003533D02*
X109670694Y-71908295D01*
X109670694Y-71908295D02*
X109623075Y-71813057D01*
X109623075Y-71813057D02*
X109575456Y-71765438D01*
X109575456Y-71765438D02*
X109480218Y-71717819D01*
X109480218Y-71717819D02*
X109242123Y-71717819D01*
X109242123Y-71717819D02*
X109099266Y-71765438D01*
X108146885Y-72717819D02*
X108718313Y-72717819D01*
X108432599Y-72717819D02*
X108432599Y-71717819D01*
X108432599Y-71717819D02*
X108527837Y-71860676D01*
X108527837Y-71860676D02*
X108623075Y-71955914D01*
X108623075Y-71955914D02*
X108718313Y-72003533D01*
X107813551Y-71717819D02*
X107194504Y-71717819D01*
X107194504Y-71717819D02*
X107527837Y-72098771D01*
X107527837Y-72098771D02*
X107384980Y-72098771D01*
X107384980Y-72098771D02*
X107289742Y-72146390D01*
X107289742Y-72146390D02*
X107242123Y-72194009D01*
X107242123Y-72194009D02*
X107194504Y-72289247D01*
X107194504Y-72289247D02*
X107194504Y-72527342D01*
X107194504Y-72527342D02*
X107242123Y-72622580D01*
X107242123Y-72622580D02*
X107289742Y-72670200D01*
X107289742Y-72670200D02*
X107384980Y-72717819D01*
X107384980Y-72717819D02*
X107670694Y-72717819D01*
X107670694Y-72717819D02*
X107765932Y-72670200D01*
X107765932Y-72670200D02*
X107813551Y-72622580D01*
X157916192Y-131565092D02*
X157767700Y-131540070D01*
X157767700Y-131540070D02*
X157557475Y-131428291D01*
X157557475Y-131428291D02*
X157495740Y-131341534D01*
X157495740Y-131341534D02*
X157476051Y-131277133D01*
X157476051Y-131277133D02*
X157478717Y-131170687D01*
X157478717Y-131170687D02*
X157523429Y-131086597D01*
X157523429Y-131086597D02*
X157610186Y-131024863D01*
X157610186Y-131024863D02*
X157674587Y-131005173D01*
X157674587Y-131005173D02*
X157781033Y-131007840D01*
X157781033Y-131007840D02*
X157971569Y-131055218D01*
X157971569Y-131055218D02*
X158078015Y-131057884D01*
X158078015Y-131057884D02*
X158142416Y-131038195D01*
X158142416Y-131038195D02*
X158229173Y-130976460D01*
X158229173Y-130976460D02*
X158273884Y-130892370D01*
X158273884Y-130892370D02*
X158276551Y-130785924D01*
X158276551Y-130785924D02*
X158256861Y-130721523D01*
X158256861Y-130721523D02*
X158195127Y-130634766D01*
X158195127Y-130634766D02*
X157984901Y-130522987D01*
X157984901Y-130522987D02*
X157836410Y-130497965D01*
X157564450Y-130299430D02*
X157017863Y-130008804D01*
X157017863Y-130008804D02*
X157133333Y-130501656D01*
X157133333Y-130501656D02*
X157007197Y-130434588D01*
X157007197Y-130434588D02*
X156900751Y-130431922D01*
X156900751Y-130431922D02*
X156836351Y-130451611D01*
X156836351Y-130451611D02*
X156749594Y-130513346D01*
X156749594Y-130513346D02*
X156637815Y-130723571D01*
X156637815Y-130723571D02*
X156635148Y-130830017D01*
X156635148Y-130830017D02*
X156654838Y-130894418D01*
X156654838Y-130894418D02*
X156716572Y-130981175D01*
X156716572Y-130981175D02*
X156968843Y-131115310D01*
X156968843Y-131115310D02*
X157075289Y-131117976D01*
X157075289Y-131117976D02*
X157139690Y-131098287D01*
X156636791Y-129914048D02*
X156617101Y-129849647D01*
X156617101Y-129849647D02*
X156555367Y-129762891D01*
X156555367Y-129762891D02*
X156345141Y-129651112D01*
X156345141Y-129651112D02*
X156238695Y-129648445D01*
X156238695Y-129648445D02*
X156174294Y-129668135D01*
X156174294Y-129668135D02*
X156087538Y-129729869D01*
X156087538Y-129729869D02*
X156042826Y-129813959D01*
X156042826Y-129813959D02*
X156017804Y-129962450D01*
X156017804Y-129962450D02*
X156254076Y-130735261D01*
X156254076Y-130735261D02*
X155707489Y-130444636D01*
X145713294Y-83312800D02*
X145570437Y-83360419D01*
X145570437Y-83360419D02*
X145332342Y-83360419D01*
X145332342Y-83360419D02*
X145237104Y-83312800D01*
X145237104Y-83312800D02*
X145189485Y-83265180D01*
X145189485Y-83265180D02*
X145141866Y-83169942D01*
X145141866Y-83169942D02*
X145141866Y-83074704D01*
X145141866Y-83074704D02*
X145189485Y-82979466D01*
X145189485Y-82979466D02*
X145237104Y-82931847D01*
X145237104Y-82931847D02*
X145332342Y-82884228D01*
X145332342Y-82884228D02*
X145522818Y-82836609D01*
X145522818Y-82836609D02*
X145618056Y-82788990D01*
X145618056Y-82788990D02*
X145665675Y-82741371D01*
X145665675Y-82741371D02*
X145713294Y-82646133D01*
X145713294Y-82646133D02*
X145713294Y-82550895D01*
X145713294Y-82550895D02*
X145665675Y-82455657D01*
X145665675Y-82455657D02*
X145618056Y-82408038D01*
X145618056Y-82408038D02*
X145522818Y-82360419D01*
X145522818Y-82360419D02*
X145284723Y-82360419D01*
X145284723Y-82360419D02*
X145141866Y-82408038D01*
X144189485Y-83360419D02*
X144760913Y-83360419D01*
X144475199Y-83360419D02*
X144475199Y-82360419D01*
X144475199Y-82360419D02*
X144570437Y-82503276D01*
X144570437Y-82503276D02*
X144665675Y-82598514D01*
X144665675Y-82598514D02*
X144760913Y-82646133D01*
X143284723Y-82360419D02*
X143760913Y-82360419D01*
X143760913Y-82360419D02*
X143808532Y-82836609D01*
X143808532Y-82836609D02*
X143760913Y-82788990D01*
X143760913Y-82788990D02*
X143665675Y-82741371D01*
X143665675Y-82741371D02*
X143427580Y-82741371D01*
X143427580Y-82741371D02*
X143332342Y-82788990D01*
X143332342Y-82788990D02*
X143284723Y-82836609D01*
X143284723Y-82836609D02*
X143237104Y-82931847D01*
X143237104Y-82931847D02*
X143237104Y-83169942D01*
X143237104Y-83169942D02*
X143284723Y-83265180D01*
X143284723Y-83265180D02*
X143332342Y-83312800D01*
X143332342Y-83312800D02*
X143427580Y-83360419D01*
X143427580Y-83360419D02*
X143665675Y-83360419D01*
X143665675Y-83360419D02*
X143760913Y-83312800D01*
X143760913Y-83312800D02*
X143808532Y-83265180D01*
X145237104Y-66142400D02*
X145094247Y-66190019D01*
X145094247Y-66190019D02*
X144856152Y-66190019D01*
X144856152Y-66190019D02*
X144760914Y-66142400D01*
X144760914Y-66142400D02*
X144713295Y-66094780D01*
X144713295Y-66094780D02*
X144665676Y-65999542D01*
X144665676Y-65999542D02*
X144665676Y-65904304D01*
X144665676Y-65904304D02*
X144713295Y-65809066D01*
X144713295Y-65809066D02*
X144760914Y-65761447D01*
X144760914Y-65761447D02*
X144856152Y-65713828D01*
X144856152Y-65713828D02*
X145046628Y-65666209D01*
X145046628Y-65666209D02*
X145141866Y-65618590D01*
X145141866Y-65618590D02*
X145189485Y-65570971D01*
X145189485Y-65570971D02*
X145237104Y-65475733D01*
X145237104Y-65475733D02*
X145237104Y-65380495D01*
X145237104Y-65380495D02*
X145189485Y-65285257D01*
X145189485Y-65285257D02*
X145141866Y-65237638D01*
X145141866Y-65237638D02*
X145046628Y-65190019D01*
X145046628Y-65190019D02*
X144808533Y-65190019D01*
X144808533Y-65190019D02*
X144665676Y-65237638D01*
X143760914Y-65190019D02*
X144237104Y-65190019D01*
X144237104Y-65190019D02*
X144284723Y-65666209D01*
X144284723Y-65666209D02*
X144237104Y-65618590D01*
X144237104Y-65618590D02*
X144141866Y-65570971D01*
X144141866Y-65570971D02*
X143903771Y-65570971D01*
X143903771Y-65570971D02*
X143808533Y-65618590D01*
X143808533Y-65618590D02*
X143760914Y-65666209D01*
X143760914Y-65666209D02*
X143713295Y-65761447D01*
X143713295Y-65761447D02*
X143713295Y-65999542D01*
X143713295Y-65999542D02*
X143760914Y-66094780D01*
X143760914Y-66094780D02*
X143808533Y-66142400D01*
X143808533Y-66142400D02*
X143903771Y-66190019D01*
X143903771Y-66190019D02*
X144141866Y-66190019D01*
X144141866Y-66190019D02*
X144237104Y-66142400D01*
X144237104Y-66142400D02*
X144284723Y-66094780D01*
X127253904Y-62434000D02*
X127111047Y-62481619D01*
X127111047Y-62481619D02*
X126872952Y-62481619D01*
X126872952Y-62481619D02*
X126777714Y-62434000D01*
X126777714Y-62434000D02*
X126730095Y-62386380D01*
X126730095Y-62386380D02*
X126682476Y-62291142D01*
X126682476Y-62291142D02*
X126682476Y-62195904D01*
X126682476Y-62195904D02*
X126730095Y-62100666D01*
X126730095Y-62100666D02*
X126777714Y-62053047D01*
X126777714Y-62053047D02*
X126872952Y-62005428D01*
X126872952Y-62005428D02*
X127063428Y-61957809D01*
X127063428Y-61957809D02*
X127158666Y-61910190D01*
X127158666Y-61910190D02*
X127206285Y-61862571D01*
X127206285Y-61862571D02*
X127253904Y-61767333D01*
X127253904Y-61767333D02*
X127253904Y-61672095D01*
X127253904Y-61672095D02*
X127206285Y-61576857D01*
X127206285Y-61576857D02*
X127158666Y-61529238D01*
X127158666Y-61529238D02*
X127063428Y-61481619D01*
X127063428Y-61481619D02*
X126825333Y-61481619D01*
X126825333Y-61481619D02*
X126682476Y-61529238D01*
X125825333Y-61814952D02*
X125825333Y-62481619D01*
X126063428Y-61434000D02*
X126301523Y-62148285D01*
X126301523Y-62148285D02*
X125682476Y-62148285D01*
X127628494Y-96419200D02*
X127485637Y-96466819D01*
X127485637Y-96466819D02*
X127247542Y-96466819D01*
X127247542Y-96466819D02*
X127152304Y-96419200D01*
X127152304Y-96419200D02*
X127104685Y-96371580D01*
X127104685Y-96371580D02*
X127057066Y-96276342D01*
X127057066Y-96276342D02*
X127057066Y-96181104D01*
X127057066Y-96181104D02*
X127104685Y-96085866D01*
X127104685Y-96085866D02*
X127152304Y-96038247D01*
X127152304Y-96038247D02*
X127247542Y-95990628D01*
X127247542Y-95990628D02*
X127438018Y-95943009D01*
X127438018Y-95943009D02*
X127533256Y-95895390D01*
X127533256Y-95895390D02*
X127580875Y-95847771D01*
X127580875Y-95847771D02*
X127628494Y-95752533D01*
X127628494Y-95752533D02*
X127628494Y-95657295D01*
X127628494Y-95657295D02*
X127580875Y-95562057D01*
X127580875Y-95562057D02*
X127533256Y-95514438D01*
X127533256Y-95514438D02*
X127438018Y-95466819D01*
X127438018Y-95466819D02*
X127199923Y-95466819D01*
X127199923Y-95466819D02*
X127057066Y-95514438D01*
X126676113Y-95562057D02*
X126628494Y-95514438D01*
X126628494Y-95514438D02*
X126533256Y-95466819D01*
X126533256Y-95466819D02*
X126295161Y-95466819D01*
X126295161Y-95466819D02*
X126199923Y-95514438D01*
X126199923Y-95514438D02*
X126152304Y-95562057D01*
X126152304Y-95562057D02*
X126104685Y-95657295D01*
X126104685Y-95657295D02*
X126104685Y-95752533D01*
X126104685Y-95752533D02*
X126152304Y-95895390D01*
X126152304Y-95895390D02*
X126723732Y-96466819D01*
X126723732Y-96466819D02*
X126104685Y-96466819D01*
X125247542Y-95800152D02*
X125247542Y-96466819D01*
X125485637Y-95419200D02*
X125723732Y-96133485D01*
X125723732Y-96133485D02*
X125104685Y-96133485D01*
X109772294Y-106934800D02*
X109629437Y-106982419D01*
X109629437Y-106982419D02*
X109391342Y-106982419D01*
X109391342Y-106982419D02*
X109296104Y-106934800D01*
X109296104Y-106934800D02*
X109248485Y-106887180D01*
X109248485Y-106887180D02*
X109200866Y-106791942D01*
X109200866Y-106791942D02*
X109200866Y-106696704D01*
X109200866Y-106696704D02*
X109248485Y-106601466D01*
X109248485Y-106601466D02*
X109296104Y-106553847D01*
X109296104Y-106553847D02*
X109391342Y-106506228D01*
X109391342Y-106506228D02*
X109581818Y-106458609D01*
X109581818Y-106458609D02*
X109677056Y-106410990D01*
X109677056Y-106410990D02*
X109724675Y-106363371D01*
X109724675Y-106363371D02*
X109772294Y-106268133D01*
X109772294Y-106268133D02*
X109772294Y-106172895D01*
X109772294Y-106172895D02*
X109724675Y-106077657D01*
X109724675Y-106077657D02*
X109677056Y-106030038D01*
X109677056Y-106030038D02*
X109581818Y-105982419D01*
X109581818Y-105982419D02*
X109343723Y-105982419D01*
X109343723Y-105982419D02*
X109200866Y-106030038D01*
X108867532Y-105982419D02*
X108248485Y-105982419D01*
X108248485Y-105982419D02*
X108581818Y-106363371D01*
X108581818Y-106363371D02*
X108438961Y-106363371D01*
X108438961Y-106363371D02*
X108343723Y-106410990D01*
X108343723Y-106410990D02*
X108296104Y-106458609D01*
X108296104Y-106458609D02*
X108248485Y-106553847D01*
X108248485Y-106553847D02*
X108248485Y-106791942D01*
X108248485Y-106791942D02*
X108296104Y-106887180D01*
X108296104Y-106887180D02*
X108343723Y-106934800D01*
X108343723Y-106934800D02*
X108438961Y-106982419D01*
X108438961Y-106982419D02*
X108724675Y-106982419D01*
X108724675Y-106982419D02*
X108819913Y-106934800D01*
X108819913Y-106934800D02*
X108867532Y-106887180D01*
X107629437Y-105982419D02*
X107534199Y-105982419D01*
X107534199Y-105982419D02*
X107438961Y-106030038D01*
X107438961Y-106030038D02*
X107391342Y-106077657D01*
X107391342Y-106077657D02*
X107343723Y-106172895D01*
X107343723Y-106172895D02*
X107296104Y-106363371D01*
X107296104Y-106363371D02*
X107296104Y-106601466D01*
X107296104Y-106601466D02*
X107343723Y-106791942D01*
X107343723Y-106791942D02*
X107391342Y-106887180D01*
X107391342Y-106887180D02*
X107438961Y-106934800D01*
X107438961Y-106934800D02*
X107534199Y-106982419D01*
X107534199Y-106982419D02*
X107629437Y-106982419D01*
X107629437Y-106982419D02*
X107724675Y-106934800D01*
X107724675Y-106934800D02*
X107772294Y-106887180D01*
X107772294Y-106887180D02*
X107819913Y-106791942D01*
X107819913Y-106791942D02*
X107867532Y-106601466D01*
X107867532Y-106601466D02*
X107867532Y-106363371D01*
X107867532Y-106363371D02*
X107819913Y-106172895D01*
X107819913Y-106172895D02*
X107772294Y-106077657D01*
X107772294Y-106077657D02*
X107724675Y-106030038D01*
X107724675Y-106030038D02*
X107629437Y-105982419D01*
X91585894Y-79706000D02*
X91443037Y-79753619D01*
X91443037Y-79753619D02*
X91204942Y-79753619D01*
X91204942Y-79753619D02*
X91109704Y-79706000D01*
X91109704Y-79706000D02*
X91062085Y-79658380D01*
X91062085Y-79658380D02*
X91014466Y-79563142D01*
X91014466Y-79563142D02*
X91014466Y-79467904D01*
X91014466Y-79467904D02*
X91062085Y-79372666D01*
X91062085Y-79372666D02*
X91109704Y-79325047D01*
X91109704Y-79325047D02*
X91204942Y-79277428D01*
X91204942Y-79277428D02*
X91395418Y-79229809D01*
X91395418Y-79229809D02*
X91490656Y-79182190D01*
X91490656Y-79182190D02*
X91538275Y-79134571D01*
X91538275Y-79134571D02*
X91585894Y-79039333D01*
X91585894Y-79039333D02*
X91585894Y-78944095D01*
X91585894Y-78944095D02*
X91538275Y-78848857D01*
X91538275Y-78848857D02*
X91490656Y-78801238D01*
X91490656Y-78801238D02*
X91395418Y-78753619D01*
X91395418Y-78753619D02*
X91157323Y-78753619D01*
X91157323Y-78753619D02*
X91014466Y-78801238D01*
X90062085Y-79753619D02*
X90633513Y-79753619D01*
X90347799Y-79753619D02*
X90347799Y-78753619D01*
X90347799Y-78753619D02*
X90443037Y-78896476D01*
X90443037Y-78896476D02*
X90538275Y-78991714D01*
X90538275Y-78991714D02*
X90633513Y-79039333D01*
X89681132Y-78848857D02*
X89633513Y-78801238D01*
X89633513Y-78801238D02*
X89538275Y-78753619D01*
X89538275Y-78753619D02*
X89300180Y-78753619D01*
X89300180Y-78753619D02*
X89204942Y-78801238D01*
X89204942Y-78801238D02*
X89157323Y-78848857D01*
X89157323Y-78848857D02*
X89109704Y-78944095D01*
X89109704Y-78944095D02*
X89109704Y-79039333D01*
X89109704Y-79039333D02*
X89157323Y-79182190D01*
X89157323Y-79182190D02*
X89728751Y-79753619D01*
X89728751Y-79753619D02*
X89109704Y-79753619D01*
X142132401Y-122949192D02*
X141983909Y-122924170D01*
X141983909Y-122924170D02*
X141773684Y-122812391D01*
X141773684Y-122812391D02*
X141711949Y-122725634D01*
X141711949Y-122725634D02*
X141692260Y-122661233D01*
X141692260Y-122661233D02*
X141694926Y-122554787D01*
X141694926Y-122554787D02*
X141739638Y-122470697D01*
X141739638Y-122470697D02*
X141826395Y-122408963D01*
X141826395Y-122408963D02*
X141890796Y-122389273D01*
X141890796Y-122389273D02*
X141997242Y-122391940D01*
X141997242Y-122391940D02*
X142187778Y-122439318D01*
X142187778Y-122439318D02*
X142294224Y-122441984D01*
X142294224Y-122441984D02*
X142358625Y-122422295D01*
X142358625Y-122422295D02*
X142445382Y-122360560D01*
X142445382Y-122360560D02*
X142490093Y-122276470D01*
X142490093Y-122276470D02*
X142492760Y-122170024D01*
X142492760Y-122170024D02*
X142473070Y-122105623D01*
X142473070Y-122105623D02*
X142411336Y-122018866D01*
X142411336Y-122018866D02*
X142201110Y-121907087D01*
X142201110Y-121907087D02*
X142052619Y-121882065D01*
X141780659Y-121683530D02*
X141234072Y-121392904D01*
X141234072Y-121392904D02*
X141349542Y-121885756D01*
X141349542Y-121885756D02*
X141223406Y-121818688D01*
X141223406Y-121818688D02*
X141116960Y-121816022D01*
X141116960Y-121816022D02*
X141052560Y-121835711D01*
X141052560Y-121835711D02*
X140965803Y-121897446D01*
X140965803Y-121897446D02*
X140854024Y-122107671D01*
X140854024Y-122107671D02*
X140851357Y-122214117D01*
X140851357Y-122214117D02*
X140871047Y-122278518D01*
X140871047Y-122278518D02*
X140932781Y-122365275D01*
X140932781Y-122365275D02*
X141185052Y-122499410D01*
X141185052Y-122499410D02*
X141291498Y-122502076D01*
X141291498Y-122502076D02*
X141355899Y-122482387D01*
X139923698Y-121828736D02*
X140428240Y-122097006D01*
X140175969Y-121962871D02*
X140645441Y-121079923D01*
X140645441Y-121079923D02*
X140662463Y-121250770D01*
X140662463Y-121250770D02*
X140701842Y-121379572D01*
X140701842Y-121379572D02*
X140763577Y-121466329D01*
X109270704Y-55931600D02*
X109127847Y-55979219D01*
X109127847Y-55979219D02*
X108889752Y-55979219D01*
X108889752Y-55979219D02*
X108794514Y-55931600D01*
X108794514Y-55931600D02*
X108746895Y-55883980D01*
X108746895Y-55883980D02*
X108699276Y-55788742D01*
X108699276Y-55788742D02*
X108699276Y-55693504D01*
X108699276Y-55693504D02*
X108746895Y-55598266D01*
X108746895Y-55598266D02*
X108794514Y-55550647D01*
X108794514Y-55550647D02*
X108889752Y-55503028D01*
X108889752Y-55503028D02*
X109080228Y-55455409D01*
X109080228Y-55455409D02*
X109175466Y-55407790D01*
X109175466Y-55407790D02*
X109223085Y-55360171D01*
X109223085Y-55360171D02*
X109270704Y-55264933D01*
X109270704Y-55264933D02*
X109270704Y-55169695D01*
X109270704Y-55169695D02*
X109223085Y-55074457D01*
X109223085Y-55074457D02*
X109175466Y-55026838D01*
X109175466Y-55026838D02*
X109080228Y-54979219D01*
X109080228Y-54979219D02*
X108842133Y-54979219D01*
X108842133Y-54979219D02*
X108699276Y-55026838D01*
X108365942Y-54979219D02*
X107746895Y-54979219D01*
X107746895Y-54979219D02*
X108080228Y-55360171D01*
X108080228Y-55360171D02*
X107937371Y-55360171D01*
X107937371Y-55360171D02*
X107842133Y-55407790D01*
X107842133Y-55407790D02*
X107794514Y-55455409D01*
X107794514Y-55455409D02*
X107746895Y-55550647D01*
X107746895Y-55550647D02*
X107746895Y-55788742D01*
X107746895Y-55788742D02*
X107794514Y-55883980D01*
X107794514Y-55883980D02*
X107842133Y-55931600D01*
X107842133Y-55931600D02*
X107937371Y-55979219D01*
X107937371Y-55979219D02*
X108223085Y-55979219D01*
X108223085Y-55979219D02*
X108318323Y-55931600D01*
X108318323Y-55931600D02*
X108365942Y-55883980D01*
X73628094Y-89739000D02*
X73485237Y-89786619D01*
X73485237Y-89786619D02*
X73247142Y-89786619D01*
X73247142Y-89786619D02*
X73151904Y-89739000D01*
X73151904Y-89739000D02*
X73104285Y-89691380D01*
X73104285Y-89691380D02*
X73056666Y-89596142D01*
X73056666Y-89596142D02*
X73056666Y-89500904D01*
X73056666Y-89500904D02*
X73104285Y-89405666D01*
X73104285Y-89405666D02*
X73151904Y-89358047D01*
X73151904Y-89358047D02*
X73247142Y-89310428D01*
X73247142Y-89310428D02*
X73437618Y-89262809D01*
X73437618Y-89262809D02*
X73532856Y-89215190D01*
X73532856Y-89215190D02*
X73580475Y-89167571D01*
X73580475Y-89167571D02*
X73628094Y-89072333D01*
X73628094Y-89072333D02*
X73628094Y-88977095D01*
X73628094Y-88977095D02*
X73580475Y-88881857D01*
X73580475Y-88881857D02*
X73532856Y-88834238D01*
X73532856Y-88834238D02*
X73437618Y-88786619D01*
X73437618Y-88786619D02*
X73199523Y-88786619D01*
X73199523Y-88786619D02*
X73056666Y-88834238D01*
X72104285Y-89786619D02*
X72675713Y-89786619D01*
X72389999Y-89786619D02*
X72389999Y-88786619D01*
X72389999Y-88786619D02*
X72485237Y-88929476D01*
X72485237Y-88929476D02*
X72580475Y-89024714D01*
X72580475Y-89024714D02*
X72675713Y-89072333D01*
X71151904Y-89786619D02*
X71723332Y-89786619D01*
X71437618Y-89786619D02*
X71437618Y-88786619D01*
X71437618Y-88786619D02*
X71532856Y-88929476D01*
X71532856Y-88929476D02*
X71628094Y-89024714D01*
X71628094Y-89024714D02*
X71723332Y-89072333D01*
%TO.C,S21*%
X65457924Y-95944857D02*
X66457924Y-95944857D01*
X65457924Y-96944857D02*
X65457924Y-95944857D01*
X65457924Y-109944857D02*
X65457924Y-108944857D01*
X66457924Y-109944857D02*
X65457924Y-109944857D01*
X78457924Y-95944857D02*
X79457924Y-95944857D01*
X79457924Y-95944857D02*
X79457924Y-96944857D01*
X79457924Y-108944857D02*
X79457924Y-109944857D01*
X79457924Y-109944857D02*
X78457924Y-109944857D01*
%TO.C,S1*%
X65457924Y-61944857D02*
X66457924Y-61944857D01*
X65457924Y-62944857D02*
X65457924Y-61944857D01*
X65457924Y-75944857D02*
X65457924Y-74944857D01*
X66457924Y-75944857D02*
X65457924Y-75944857D01*
X78457924Y-61944857D02*
X79457924Y-61944857D01*
X79457924Y-61944857D02*
X79457924Y-62944857D01*
X79457924Y-74944857D02*
X79457924Y-75944857D01*
X79457924Y-75944857D02*
X78457924Y-75944857D01*
%TO.C,S2*%
X83457924Y-51802857D02*
X84457924Y-51802857D01*
X83457924Y-52802857D02*
X83457924Y-51802857D01*
X83457924Y-65802857D02*
X83457924Y-64802857D01*
X84457924Y-65802857D02*
X83457924Y-65802857D01*
X96457924Y-51802857D02*
X97457924Y-51802857D01*
X97457924Y-51802857D02*
X97457924Y-52802857D01*
X97457924Y-64802857D02*
X97457924Y-65802857D01*
X97457924Y-65802857D02*
X96457924Y-65802857D01*
%TO.C,S22*%
X83457924Y-85802857D02*
X84457924Y-85802857D01*
X83457924Y-86802857D02*
X83457924Y-85802857D01*
X83457924Y-99802857D02*
X83457924Y-98802857D01*
X84457924Y-99802857D02*
X83457924Y-99802857D01*
X96457924Y-85802857D02*
X97457924Y-85802857D01*
X97457924Y-85802857D02*
X97457924Y-86802857D01*
X97457924Y-98802857D02*
X97457924Y-99802857D01*
X97457924Y-99802857D02*
X96457924Y-99802857D01*
%TO.C,S14*%
X119457924Y-68544857D02*
X120457924Y-68544857D01*
X119457924Y-69544857D02*
X119457924Y-68544857D01*
X119457924Y-82544857D02*
X119457924Y-81544857D01*
X120457924Y-82544857D02*
X119457924Y-82544857D01*
X132457924Y-68544857D02*
X133457924Y-68544857D01*
X133457924Y-68544857D02*
X133457924Y-69544857D01*
X133457924Y-81544857D02*
X133457924Y-82544857D01*
X133457924Y-82544857D02*
X132457924Y-82544857D01*
%TO.C,S25*%
X137457924Y-89244857D02*
X138457924Y-89244857D01*
X137457924Y-90244857D02*
X137457924Y-89244857D01*
X137457924Y-103244857D02*
X137457924Y-102244857D01*
X138457924Y-103244857D02*
X137457924Y-103244857D01*
X150457924Y-89244857D02*
X151457924Y-89244857D01*
X151457924Y-89244857D02*
X151457924Y-90244857D01*
X151457924Y-102244857D02*
X151457924Y-103244857D01*
X151457924Y-103244857D02*
X150457924Y-103244857D01*
%TO.C,S23*%
X101457924Y-78944857D02*
X102457924Y-78944857D01*
X101457924Y-79944857D02*
X101457924Y-78944857D01*
X101457924Y-92944857D02*
X101457924Y-91944857D01*
X102457924Y-92944857D02*
X101457924Y-92944857D01*
X114457924Y-78944857D02*
X115457924Y-78944857D01*
X115457924Y-78944857D02*
X115457924Y-79944857D01*
X115457924Y-91944857D02*
X115457924Y-92944857D01*
X115457924Y-92944857D02*
X114457924Y-92944857D01*
%TO.C,S13*%
X101457924Y-61944857D02*
X102457924Y-61944857D01*
X101457924Y-62944857D02*
X101457924Y-61944857D01*
X101457924Y-75944857D02*
X101457924Y-74944857D01*
X102457924Y-75944857D02*
X101457924Y-75944857D01*
X114457924Y-61944857D02*
X115457924Y-61944857D01*
X115457924Y-61944857D02*
X115457924Y-62944857D01*
X115457924Y-74944857D02*
X115457924Y-75944857D01*
X115457924Y-75944857D02*
X114457924Y-75944857D01*
%TO.C,S32*%
X155775668Y-118253066D02*
X156658615Y-118722537D01*
X155306196Y-119136014D02*
X155775668Y-118253066D01*
X149203066Y-130614332D02*
X149672537Y-129731385D01*
X150086014Y-131083804D02*
X149203066Y-130614332D01*
X167253986Y-124356196D02*
X168136934Y-124825668D01*
X168136934Y-124825668D02*
X167667463Y-125708615D01*
X162033804Y-136303986D02*
X161564332Y-137186934D01*
X161564332Y-137186934D02*
X160681385Y-136717463D01*
%TO.C,S15*%
X137457924Y-72244857D02*
X138457924Y-72244857D01*
X137457924Y-73244857D02*
X137457924Y-72244857D01*
X137457924Y-86244857D02*
X137457924Y-85244857D01*
X138457924Y-86244857D02*
X137457924Y-86244857D01*
X150457924Y-72244857D02*
X151457924Y-72244857D01*
X151457924Y-72244857D02*
X151457924Y-73244857D01*
X151457924Y-85244857D02*
X151457924Y-86244857D01*
X151457924Y-86244857D02*
X150457924Y-86244857D01*
%TO.C,S5*%
X137457924Y-55244857D02*
X138457924Y-55244857D01*
X137457924Y-56244857D02*
X137457924Y-55244857D01*
X137457924Y-69244857D02*
X137457924Y-68244857D01*
X138457924Y-69244857D02*
X137457924Y-69244857D01*
X150457924Y-55244857D02*
X151457924Y-55244857D01*
X151457924Y-55244857D02*
X151457924Y-56244857D01*
X151457924Y-68244857D02*
X151457924Y-69244857D01*
X151457924Y-69244857D02*
X150457924Y-69244857D01*
D11*
%TO.C,U1*%
X65600000Y-60920000D02*
X64100000Y-60920000D01*
X64100000Y-60920000D02*
X64100000Y-62920000D01*
X64100000Y-62920000D02*
X65600000Y-62920000D01*
X65600000Y-62920000D02*
X65600000Y-60920000D01*
X66470000Y-37760000D02*
X68470000Y-37760000D01*
X68470000Y-37760000D02*
X68470000Y-39260000D01*
X68470000Y-39260000D02*
X66470000Y-39260000D01*
X66470000Y-39260000D02*
X66470000Y-37760000D01*
X66470000Y-40300000D02*
X68470000Y-40300000D01*
X68470000Y-40300000D02*
X68470000Y-41800000D01*
X68470000Y-41800000D02*
X66470000Y-41800000D01*
X66470000Y-41800000D02*
X66470000Y-40300000D01*
X66470000Y-42840000D02*
X68470000Y-42840000D01*
X68470000Y-42840000D02*
X68470000Y-44340000D01*
X68470000Y-44340000D02*
X66470000Y-44340000D01*
X66470000Y-44340000D02*
X66470000Y-42840000D01*
X66470000Y-45380000D02*
X68470000Y-45380000D01*
X68470000Y-45380000D02*
X68470000Y-46880000D01*
X68470000Y-46880000D02*
X66470000Y-46880000D01*
X66470000Y-46880000D02*
X66470000Y-45380000D01*
X66470000Y-47920000D02*
X68470000Y-47920000D01*
X68470000Y-47920000D02*
X68470000Y-49420000D01*
X68470000Y-49420000D02*
X66470000Y-49420000D01*
X66470000Y-49420000D02*
X66470000Y-47920000D01*
X66470000Y-50460000D02*
X68470000Y-50460000D01*
X68470000Y-50460000D02*
X68470000Y-51960000D01*
X68470000Y-51960000D02*
X66470000Y-51960000D01*
X66470000Y-51960000D02*
X66470000Y-50460000D01*
X66470000Y-53000000D02*
X68470000Y-53000000D01*
X68470000Y-53000000D02*
X68470000Y-54500000D01*
X68470000Y-54500000D02*
X66470000Y-54500000D01*
X66470000Y-54500000D02*
X66470000Y-53000000D01*
X66470000Y-55540000D02*
X68470000Y-55540000D01*
X68470000Y-55540000D02*
X68470000Y-57040000D01*
X68470000Y-57040000D02*
X66470000Y-57040000D01*
X66470000Y-57040000D02*
X66470000Y-55540000D01*
X68140000Y-60920000D02*
X66640000Y-60920000D01*
X66640000Y-60920000D02*
X66640000Y-62920000D01*
X66640000Y-62920000D02*
X68140000Y-62920000D01*
X68140000Y-62920000D02*
X68140000Y-60920000D01*
X70680000Y-60920000D02*
X69180000Y-60920000D01*
X69180000Y-60920000D02*
X69180000Y-62920000D01*
X69180000Y-62920000D02*
X70680000Y-62920000D01*
X70680000Y-62920000D02*
X70680000Y-60920000D01*
X75760000Y-60920000D02*
X74260000Y-60920000D01*
X74260000Y-60920000D02*
X74260000Y-62920000D01*
X74260000Y-62920000D02*
X75760000Y-62920000D01*
X75760000Y-62920000D02*
X75760000Y-60920000D01*
X78300000Y-60920000D02*
X76800000Y-60920000D01*
X76800000Y-60920000D02*
X76800000Y-62920000D01*
X76800000Y-62920000D02*
X78300000Y-62920000D01*
X78300000Y-62920000D02*
X78300000Y-60920000D01*
X78470000Y-39260000D02*
X76470000Y-39260000D01*
X76470000Y-39260000D02*
X76470000Y-37760000D01*
X76470000Y-37760000D02*
X78470000Y-37760000D01*
X78470000Y-37760000D02*
X78470000Y-39260000D01*
X78470000Y-41800000D02*
X76470000Y-41800000D01*
X76470000Y-41800000D02*
X76470000Y-40300000D01*
X76470000Y-40300000D02*
X78470000Y-40300000D01*
X78470000Y-40300000D02*
X78470000Y-41800000D01*
X78470000Y-44340000D02*
X76470000Y-44340000D01*
X76470000Y-44340000D02*
X76470000Y-42840000D01*
X76470000Y-42840000D02*
X78470000Y-42840000D01*
X78470000Y-42840000D02*
X78470000Y-44340000D01*
X78470000Y-46880000D02*
X76470000Y-46880000D01*
X76470000Y-46880000D02*
X76470000Y-45380000D01*
X76470000Y-45380000D02*
X78470000Y-45380000D01*
X78470000Y-45380000D02*
X78470000Y-46880000D01*
X78470000Y-49420000D02*
X76470000Y-49420000D01*
X76470000Y-49420000D02*
X76470000Y-47920000D01*
X76470000Y-47920000D02*
X78470000Y-47920000D01*
X78470000Y-47920000D02*
X78470000Y-49420000D01*
X78470000Y-51960000D02*
X76470000Y-51960000D01*
X76470000Y-51960000D02*
X76470000Y-50460000D01*
X76470000Y-50460000D02*
X78470000Y-50460000D01*
X78470000Y-50460000D02*
X78470000Y-51960000D01*
X78470000Y-54500000D02*
X76470000Y-54500000D01*
X76470000Y-54500000D02*
X76470000Y-53000000D01*
X76470000Y-53000000D02*
X78470000Y-53000000D01*
X78470000Y-53000000D02*
X78470000Y-54500000D01*
X78470000Y-57040000D02*
X76470000Y-57040000D01*
X76470000Y-57040000D02*
X76470000Y-55540000D01*
X76470000Y-55540000D02*
X78470000Y-55540000D01*
X78470000Y-55540000D02*
X78470000Y-57040000D01*
X80840000Y-60920000D02*
X79340000Y-60920000D01*
X79340000Y-60920000D02*
X79340000Y-62920000D01*
X79340000Y-62920000D02*
X80840000Y-62920000D01*
X80840000Y-62920000D02*
X80840000Y-60920000D01*
D10*
%TO.C,S4*%
X119457924Y-51544857D02*
X120457924Y-51544857D01*
X119457924Y-52544857D02*
X119457924Y-51544857D01*
X119457924Y-65544857D02*
X119457924Y-64544857D01*
X120457924Y-65544857D02*
X119457924Y-65544857D01*
X132457924Y-51544857D02*
X133457924Y-51544857D01*
X133457924Y-51544857D02*
X133457924Y-52544857D01*
X133457924Y-64544857D02*
X133457924Y-65544857D01*
X133457924Y-65544857D02*
X132457924Y-65544857D01*
%TO.C,S24*%
X119457924Y-85544857D02*
X120457924Y-85544857D01*
X119457924Y-86544857D02*
X119457924Y-85544857D01*
X119457924Y-99544857D02*
X119457924Y-98544857D01*
X120457924Y-99544857D02*
X119457924Y-99544857D01*
X132457924Y-85544857D02*
X133457924Y-85544857D01*
X133457924Y-85544857D02*
X133457924Y-86544857D01*
X133457924Y-98544857D02*
X133457924Y-99544857D01*
X133457924Y-99544857D02*
X132457924Y-99544857D01*
%TO.C,S30*%
X101457924Y-95944857D02*
X102457924Y-95944857D01*
X101457924Y-96944857D02*
X101457924Y-95944857D01*
X101457924Y-109944857D02*
X101457924Y-108944857D01*
X102457924Y-109944857D02*
X101457924Y-109944857D01*
X114457924Y-95944857D02*
X115457924Y-95944857D01*
X115457924Y-95944857D02*
X115457924Y-96944857D01*
X115457924Y-108944857D02*
X115457924Y-109944857D01*
X115457924Y-109944857D02*
X114457924Y-109944857D01*
%TO.C,S12*%
X83457924Y-68802857D02*
X84457924Y-68802857D01*
X83457924Y-69802857D02*
X83457924Y-68802857D01*
X83457924Y-82802857D02*
X83457924Y-81802857D01*
X84457924Y-82802857D02*
X83457924Y-82802857D01*
X96457924Y-68802857D02*
X97457924Y-68802857D01*
X97457924Y-68802857D02*
X97457924Y-69802857D01*
X97457924Y-81802857D02*
X97457924Y-82802857D01*
X97457924Y-82802857D02*
X96457924Y-82802857D01*
%TO.C,S31*%
X139899456Y-109780972D02*
X140782403Y-110250443D01*
X139429984Y-110663920D02*
X139899456Y-109780972D01*
X133326854Y-122142238D02*
X133796325Y-121259291D01*
X134209802Y-122611710D02*
X133326854Y-122142238D01*
X151377774Y-115884102D02*
X152260722Y-116353574D01*
X152260722Y-116353574D02*
X151791251Y-117236521D01*
X146157592Y-127831892D02*
X145688120Y-128714840D01*
X145688120Y-128714840D02*
X144805173Y-128245369D01*
%TO.C,S3*%
X101457924Y-44944857D02*
X102457924Y-44944857D01*
X101457924Y-45944857D02*
X101457924Y-44944857D01*
X101457924Y-58944857D02*
X101457924Y-57944857D01*
X102457924Y-58944857D02*
X101457924Y-58944857D01*
X114457924Y-44944857D02*
X115457924Y-44944857D01*
X115457924Y-44944857D02*
X115457924Y-45944857D01*
X115457924Y-57944857D02*
X115457924Y-58944857D01*
X115457924Y-58944857D02*
X114457924Y-58944857D01*
%TO.C,S11*%
X65457924Y-78944857D02*
X66457924Y-78944857D01*
X65457924Y-79944857D02*
X65457924Y-78944857D01*
X65457924Y-92944857D02*
X65457924Y-91944857D01*
X66457924Y-92944857D02*
X65457924Y-92944857D01*
X78457924Y-78944857D02*
X79457924Y-78944857D01*
X79457924Y-78944857D02*
X79457924Y-79944857D01*
X79457924Y-91944857D02*
X79457924Y-92944857D01*
X79457924Y-92944857D02*
X78457924Y-92944857D01*
%TD*%
M02*
