%TF.GenerationSoftware,KiCad,Pcbnew,7.0.6*%
%TF.CreationDate,2023-11-22T12:36:23+08:00*%
%TF.ProjectId,tenten,74656e74-656e-42e6-9b69-6361645f7063,rev?*%
%TF.SameCoordinates,Original*%
%TF.FileFunction,Drillmap*%
%TF.FilePolarity,Positive*%
%FSLAX45Y45*%
G04 Gerber Fmt 4.5, Leading zero omitted, Abs format (unit mm)*
G04 Created by KiCad (PCBNEW 7.0.6) date 2023-11-22 12:36:23*
%MOMM*%
%LPD*%
G01*
G04 APERTURE LIST*
%ADD10C,0.150000*%
%ADD11C,0.050000*%
%ADD12C,0.200000*%
%ADD13C,0.040000*%
%ADD14C,0.070000*%
%ADD15C,0.090000*%
%ADD16C,0.100000*%
%ADD17C,0.127000*%
G04 APERTURE END LIST*
D10*
X12720000Y-4911000D02*
X12720320Y-3789680D01*
X12721544Y-3789176D02*
G75*
G03*
X12630140Y-3695231I-93984J-4D01*
G01*
D11*
X16299180Y-13411200D02*
X16298000Y-11971020D01*
D10*
X16199469Y-13510202D02*
G75*
G03*
X16299180Y-13411200I1J99713D01*
G01*
X6347460Y-11064240D02*
X6348000Y-3697000D01*
X12631420Y-3695000D02*
X6347552Y-3695000D01*
X15346957Y-5105257D02*
G75*
G03*
X15247952Y-5005546I-99717J-4D01*
G01*
X6347457Y-11064240D02*
G75*
G03*
X6446463Y-11163951I99713J0D01*
G01*
X15345792Y-7566000D02*
X15346954Y-5105257D01*
X10791000Y-11163000D02*
X15225000Y-13511000D01*
X6446463Y-11163951D02*
X10791000Y-11163000D01*
X12804857Y-5006000D02*
X15247073Y-5006000D01*
X12720003Y-4911000D02*
G75*
G03*
X12804857Y-5004966I87257J-6500D01*
G01*
D11*
X15343000Y-11423000D02*
X15343000Y-5362000D01*
X16243300Y-11879580D02*
X15343000Y-11423000D01*
D10*
X16297196Y-11968479D02*
G75*
G03*
X16243300Y-11879580I-100267J-1D01*
G01*
D11*
X15225000Y-13511000D02*
X16199469Y-13510203D01*
D12*
D13*
X6465000Y-6432900D02*
X6505000Y-6472900D01*
X6505000Y-6432900D02*
X6465000Y-6472900D01*
X6719000Y-6344000D02*
X6759000Y-6384000D01*
X6759000Y-6344000D02*
X6719000Y-6384000D01*
X7127000Y-3831000D02*
X7167000Y-3871000D01*
X7167000Y-3831000D02*
X7127000Y-3871000D01*
X7127000Y-4085000D02*
X7167000Y-4125000D01*
X7167000Y-4085000D02*
X7127000Y-4125000D01*
X7127000Y-4339000D02*
X7167000Y-4379000D01*
X7167000Y-4339000D02*
X7127000Y-4379000D01*
X7127000Y-4593000D02*
X7167000Y-4633000D01*
X7167000Y-4593000D02*
X7127000Y-4633000D01*
X7127000Y-4847000D02*
X7167000Y-4887000D01*
X7167000Y-4847000D02*
X7127000Y-4887000D01*
X7127000Y-5101000D02*
X7167000Y-5141000D01*
X7167000Y-5101000D02*
X7127000Y-5141000D01*
X7127000Y-5355000D02*
X7167000Y-5395000D01*
X7167000Y-5355000D02*
X7127000Y-5395000D01*
X7127000Y-5609000D02*
X7167000Y-5649000D01*
X7167000Y-5609000D02*
X7127000Y-5649000D01*
X7127000Y-6191600D02*
X7167000Y-6231600D01*
X7167000Y-6191600D02*
X7127000Y-6231600D01*
X7327000Y-3831000D02*
X7367000Y-3871000D01*
X7367000Y-3831000D02*
X7327000Y-3871000D01*
X7327000Y-4085000D02*
X7367000Y-4125000D01*
X7367000Y-4085000D02*
X7327000Y-4125000D01*
X7327000Y-4339000D02*
X7367000Y-4379000D01*
X7367000Y-4339000D02*
X7327000Y-4379000D01*
X7327000Y-4593000D02*
X7367000Y-4633000D01*
X7367000Y-4593000D02*
X7327000Y-4633000D01*
X7327000Y-4847000D02*
X7367000Y-4887000D01*
X7367000Y-4847000D02*
X7327000Y-4887000D01*
X7327000Y-5101000D02*
X7367000Y-5141000D01*
X7367000Y-5101000D02*
X7327000Y-5141000D01*
X7327000Y-5355000D02*
X7367000Y-5395000D01*
X7367000Y-5355000D02*
X7327000Y-5395000D01*
X7327000Y-5609000D02*
X7367000Y-5649000D01*
X7367000Y-5609000D02*
X7327000Y-5649000D01*
X7327000Y-6191600D02*
X7367000Y-6231600D01*
X7367000Y-6191600D02*
X7327000Y-6231600D01*
X7735000Y-6318600D02*
X7775000Y-6358600D01*
X7775000Y-6318600D02*
X7735000Y-6358600D01*
X7989000Y-6432900D02*
X8029000Y-6472900D01*
X8029000Y-6432900D02*
X7989000Y-6472900D01*
X11932780Y-3929380D02*
X11972780Y-3969380D01*
X11972780Y-3929380D02*
X11932780Y-3969380D01*
X11932780Y-4014380D02*
X11972780Y-4054380D01*
X11972780Y-4014380D02*
X11932780Y-4054380D01*
X11932780Y-4099380D02*
X11972780Y-4139380D01*
X11972780Y-4099380D02*
X11932780Y-4139380D01*
X11932780Y-4184380D02*
X11972780Y-4224380D01*
X11972780Y-4184380D02*
X11932780Y-4224380D01*
X11932780Y-4269380D02*
X11972780Y-4309380D01*
X11972780Y-4269380D02*
X11932780Y-4309380D01*
X11932780Y-4354380D02*
X11972780Y-4394380D01*
X11972780Y-4354380D02*
X11932780Y-4394380D01*
X11932780Y-4439380D02*
X11972780Y-4479380D01*
X11972780Y-4439380D02*
X11932780Y-4479380D01*
X11932780Y-4524380D02*
X11972780Y-4564380D01*
X11972780Y-4524380D02*
X11932780Y-4564380D01*
X12067780Y-3929380D02*
X12107780Y-3969380D01*
X12107780Y-3929380D02*
X12067780Y-3969380D01*
X12067780Y-4014380D02*
X12107780Y-4054380D01*
X12107780Y-4014380D02*
X12067780Y-4054380D01*
X12067780Y-4099380D02*
X12107780Y-4139380D01*
X12107780Y-4099380D02*
X12067780Y-4139380D01*
X12067780Y-4184380D02*
X12107780Y-4224380D01*
X12107780Y-4184380D02*
X12067780Y-4224380D01*
X12067780Y-4269380D02*
X12107780Y-4309380D01*
X12107780Y-4269380D02*
X12067780Y-4309380D01*
X12067780Y-4354380D02*
X12107780Y-4394380D01*
X12107780Y-4354380D02*
X12067780Y-4394380D01*
X12067780Y-4439380D02*
X12107780Y-4479380D01*
X12107780Y-4439380D02*
X12067780Y-4479380D01*
X12067780Y-4524380D02*
X12107780Y-4564380D01*
X12107780Y-4524380D02*
X12067780Y-4564380D01*
D14*
X12037780Y-3814880D02*
G75*
G03*
X12037780Y-3814880I-35000J0D01*
G01*
D12*
X11937780Y-3849880D02*
X12067780Y-3849880D01*
X12067780Y-3849880D02*
G75*
G03*
X12067780Y-3779880I0J35000D01*
G01*
X12067780Y-3779880D02*
X11937780Y-3779880D01*
X11937780Y-3779880D02*
G75*
G03*
X11937780Y-3849880I0J-35000D01*
G01*
D14*
X12037780Y-4678880D02*
G75*
G03*
X12037780Y-4678880I-35000J0D01*
G01*
D12*
X11937780Y-4713880D02*
X12067780Y-4713880D01*
X12067780Y-4713880D02*
G75*
G03*
X12067780Y-4643880I0J35000D01*
G01*
X12067780Y-4643880D02*
X11937780Y-4643880D01*
X11937780Y-4643880D02*
G75*
G03*
X11937780Y-4713880I0J-35000D01*
G01*
D14*
X12452780Y-3814880D02*
G75*
G03*
X12452780Y-3814880I-35000J0D01*
G01*
D12*
X12372780Y-3849880D02*
X12462780Y-3849880D01*
X12462780Y-3849880D02*
G75*
G03*
X12462780Y-3779880I0J35000D01*
G01*
X12462780Y-3779880D02*
X12372780Y-3779880D01*
X12372780Y-3779880D02*
G75*
G03*
X12372780Y-3849880I0J-35000D01*
G01*
D14*
X12452780Y-4678880D02*
G75*
G03*
X12452780Y-4678880I-35000J0D01*
G01*
D12*
X12372780Y-4713880D02*
X12462780Y-4713880D01*
X12462780Y-4713880D02*
G75*
G03*
X12462780Y-4643880I0J35000D01*
G01*
X12462780Y-4643880D02*
X12372780Y-4643880D01*
X12372780Y-4643880D02*
G75*
G03*
X12372780Y-4713880I0J-35000D01*
G01*
D15*
X8968000Y-3982000D02*
X8968000Y-4072000D01*
X8923000Y-4027000D02*
X9013000Y-4027000D01*
D12*
X8923000Y-4007000D02*
X8923000Y-4047000D01*
X8923000Y-4047000D02*
G75*
G03*
X9013000Y-4047000I45000J0D01*
G01*
X9013000Y-4047000D02*
X9013000Y-4007000D01*
X9013000Y-4007000D02*
G75*
G03*
X8923000Y-4007000I-45000J0D01*
G01*
D15*
X8968000Y-4282000D02*
X8968000Y-4372000D01*
X8923000Y-4327000D02*
X9013000Y-4327000D01*
D12*
X8923000Y-4307000D02*
X8923000Y-4347000D01*
X8923000Y-4347000D02*
G75*
G03*
X9013000Y-4347000I45000J0D01*
G01*
X9013000Y-4347000D02*
X9013000Y-4307000D01*
X9013000Y-4307000D02*
G75*
G03*
X8923000Y-4307000I-45000J0D01*
G01*
D15*
X8968000Y-4682000D02*
X8968000Y-4772000D01*
X8923000Y-4727000D02*
X9013000Y-4727000D01*
D12*
X8923000Y-4707000D02*
X8923000Y-4747000D01*
X8923000Y-4747000D02*
G75*
G03*
X9013000Y-4747000I45000J0D01*
G01*
X9013000Y-4747000D02*
X9013000Y-4707000D01*
X9013000Y-4707000D02*
G75*
G03*
X8923000Y-4707000I-45000J0D01*
G01*
D15*
X8968000Y-4792000D02*
X8968000Y-4882000D01*
X8923000Y-4837000D02*
X9013000Y-4837000D01*
D12*
X8923000Y-4817000D02*
X8923000Y-4857000D01*
X8923000Y-4857000D02*
G75*
G03*
X9013000Y-4857000I45000J0D01*
G01*
X9013000Y-4857000D02*
X9013000Y-4817000D01*
X9013000Y-4817000D02*
G75*
G03*
X8923000Y-4817000I-45000J0D01*
G01*
D15*
X9428000Y-3982000D02*
X9428000Y-4072000D01*
X9383000Y-4027000D02*
X9473000Y-4027000D01*
D12*
X9383000Y-4007000D02*
X9383000Y-4047000D01*
X9383000Y-4047000D02*
G75*
G03*
X9473000Y-4047000I45000J0D01*
G01*
X9473000Y-4047000D02*
X9473000Y-4007000D01*
X9473000Y-4007000D02*
G75*
G03*
X9383000Y-4007000I-45000J0D01*
G01*
D15*
X9428000Y-4282000D02*
X9428000Y-4372000D01*
X9383000Y-4327000D02*
X9473000Y-4327000D01*
D12*
X9383000Y-4307000D02*
X9383000Y-4347000D01*
X9383000Y-4347000D02*
G75*
G03*
X9473000Y-4347000I45000J0D01*
G01*
X9473000Y-4347000D02*
X9473000Y-4307000D01*
X9473000Y-4307000D02*
G75*
G03*
X9383000Y-4307000I-45000J0D01*
G01*
D15*
X9428000Y-4682000D02*
X9428000Y-4772000D01*
X9383000Y-4727000D02*
X9473000Y-4727000D01*
D12*
X9383000Y-4707000D02*
X9383000Y-4747000D01*
X9383000Y-4747000D02*
G75*
G03*
X9473000Y-4747000I45000J0D01*
G01*
X9473000Y-4747000D02*
X9473000Y-4707000D01*
X9473000Y-4707000D02*
G75*
G03*
X9383000Y-4707000I-45000J0D01*
G01*
D15*
X9428000Y-4792000D02*
X9428000Y-4882000D01*
X9383000Y-4837000D02*
X9473000Y-4837000D01*
D12*
X9383000Y-4817000D02*
X9383000Y-4857000D01*
X9383000Y-4857000D02*
G75*
G03*
X9473000Y-4857000I45000J0D01*
G01*
X9473000Y-4857000D02*
X9473000Y-4817000D01*
X9473000Y-4817000D02*
G75*
G03*
X9383000Y-4817000I-45000J0D01*
G01*
D16*
X6520356Y-3886356D02*
X6520356Y-3815644D01*
X6449644Y-3815644D01*
X6449644Y-3886356D01*
X6520356Y-3886356D01*
X6520356Y-4140356D02*
X6520356Y-4069644D01*
X6449644Y-4069644D01*
X6449644Y-4140356D01*
X6520356Y-4140356D01*
X6520356Y-4394356D02*
X6520356Y-4323644D01*
X6449644Y-4323644D01*
X6449644Y-4394356D01*
X6520356Y-4394356D01*
X6520356Y-4648356D02*
X6520356Y-4577644D01*
X6449644Y-4577644D01*
X6449644Y-4648356D01*
X6520356Y-4648356D01*
X6520356Y-4902356D02*
X6520356Y-4831644D01*
X6449644Y-4831644D01*
X6449644Y-4902356D01*
X6520356Y-4902356D01*
X6520356Y-5156356D02*
X6520356Y-5085644D01*
X6449644Y-5085644D01*
X6449644Y-5156356D01*
X6520356Y-5156356D01*
X6520356Y-5410356D02*
X6520356Y-5339644D01*
X6449644Y-5339644D01*
X6449644Y-5410356D01*
X6520356Y-5410356D01*
X6520356Y-5664356D02*
X6520356Y-5593644D01*
X6449644Y-5593644D01*
X6449644Y-5664356D01*
X6520356Y-5664356D01*
X6520356Y-5918356D02*
X6520356Y-5847644D01*
X6449644Y-5847644D01*
X6449644Y-5918356D01*
X6520356Y-5918356D01*
X6774356Y-5918356D02*
X6774356Y-5847644D01*
X6703644Y-5847644D01*
X6703644Y-5918356D01*
X6774356Y-5918356D01*
X7028356Y-5918356D02*
X7028356Y-5847644D01*
X6957644Y-5847644D01*
X6957644Y-5918356D01*
X7028356Y-5918356D01*
X7282356Y-5918356D02*
X7282356Y-5847644D01*
X7211644Y-5847644D01*
X7211644Y-5918356D01*
X7282356Y-5918356D01*
X7536356Y-5918356D02*
X7536356Y-5847644D01*
X7465644Y-5847644D01*
X7465644Y-5918356D01*
X7536356Y-5918356D01*
X7790356Y-5918356D02*
X7790356Y-5847644D01*
X7719644Y-5847644D01*
X7719644Y-5918356D01*
X7790356Y-5918356D01*
X8044356Y-3886356D02*
X8044356Y-3815644D01*
X7973644Y-3815644D01*
X7973644Y-3886356D01*
X8044356Y-3886356D01*
X8044356Y-4140356D02*
X8044356Y-4069644D01*
X7973644Y-4069644D01*
X7973644Y-4140356D01*
X8044356Y-4140356D01*
X8044356Y-4394356D02*
X8044356Y-4323644D01*
X7973644Y-4323644D01*
X7973644Y-4394356D01*
X8044356Y-4394356D01*
X8044356Y-4648356D02*
X8044356Y-4577644D01*
X7973644Y-4577644D01*
X7973644Y-4648356D01*
X8044356Y-4648356D01*
X8044356Y-4902356D02*
X8044356Y-4831644D01*
X7973644Y-4831644D01*
X7973644Y-4902356D01*
X8044356Y-4902356D01*
X8044356Y-5156356D02*
X8044356Y-5085644D01*
X7973644Y-5085644D01*
X7973644Y-5156356D01*
X8044356Y-5156356D01*
X8044356Y-5410356D02*
X8044356Y-5339644D01*
X7973644Y-5339644D01*
X7973644Y-5410356D01*
X8044356Y-5410356D01*
X8044356Y-5664356D02*
X8044356Y-5593644D01*
X7973644Y-5593644D01*
X7973644Y-5664356D01*
X8044356Y-5664356D01*
X8044356Y-5918356D02*
X8044356Y-5847644D01*
X7973644Y-5847644D01*
X7973644Y-5918356D01*
X8044356Y-5918356D01*
D17*
X6745792Y-7337986D02*
X6809292Y-7274486D01*
X6745792Y-7210986D01*
X6682292Y-7274486D01*
X6745792Y-7337986D01*
X6745792Y-9037986D02*
X6809292Y-8974486D01*
X6745792Y-8910986D01*
X6682292Y-8974486D01*
X6745792Y-9037986D01*
X6745792Y-10737986D02*
X6809292Y-10674486D01*
X6745792Y-10610986D01*
X6682292Y-10674486D01*
X6745792Y-10737986D01*
X7245792Y-7547986D02*
X7309292Y-7484486D01*
X7245792Y-7420986D01*
X7182292Y-7484486D01*
X7245792Y-7547986D01*
X7245792Y-9247986D02*
X7309292Y-9184486D01*
X7245792Y-9120986D01*
X7182292Y-9184486D01*
X7245792Y-9247986D01*
X7245792Y-10947986D02*
X7309292Y-10884486D01*
X7245792Y-10820986D01*
X7182292Y-10884486D01*
X7245792Y-10947986D01*
X7745792Y-7337986D02*
X7809292Y-7274486D01*
X7745792Y-7210986D01*
X7682292Y-7274486D01*
X7745792Y-7337986D01*
X7745792Y-9037986D02*
X7809292Y-8974486D01*
X7745792Y-8910986D01*
X7682292Y-8974486D01*
X7745792Y-9037986D01*
X7745792Y-10737986D02*
X7809292Y-10674486D01*
X7745792Y-10610986D01*
X7682292Y-10674486D01*
X7745792Y-10737986D01*
X8545792Y-6323786D02*
X8609292Y-6260286D01*
X8545792Y-6196786D01*
X8482292Y-6260286D01*
X8545792Y-6323786D01*
X8545792Y-8023786D02*
X8609292Y-7960286D01*
X8545792Y-7896786D01*
X8482292Y-7960286D01*
X8545792Y-8023786D01*
X8545792Y-9723786D02*
X8609292Y-9660286D01*
X8545792Y-9596786D01*
X8482292Y-9660286D01*
X8545792Y-9723786D01*
X9045792Y-6533786D02*
X9109292Y-6470286D01*
X9045792Y-6406786D01*
X8982292Y-6470286D01*
X9045792Y-6533786D01*
X9045792Y-8233786D02*
X9109292Y-8170286D01*
X9045792Y-8106786D01*
X8982292Y-8170286D01*
X9045792Y-8233786D01*
X9045792Y-9933786D02*
X9109292Y-9870286D01*
X9045792Y-9806786D01*
X8982292Y-9870286D01*
X9045792Y-9933786D01*
X9545792Y-6323786D02*
X9609292Y-6260286D01*
X9545792Y-6196786D01*
X9482292Y-6260286D01*
X9545792Y-6323786D01*
X9545792Y-8023786D02*
X9609292Y-7960286D01*
X9545792Y-7896786D01*
X9482292Y-7960286D01*
X9545792Y-8023786D01*
X9545792Y-9723786D02*
X9609292Y-9660286D01*
X9545792Y-9596786D01*
X9482292Y-9660286D01*
X9545792Y-9723786D01*
X10345792Y-5637986D02*
X10409292Y-5574486D01*
X10345792Y-5510986D01*
X10282292Y-5574486D01*
X10345792Y-5637986D01*
X10345792Y-7337986D02*
X10409292Y-7274486D01*
X10345792Y-7210986D01*
X10282292Y-7274486D01*
X10345792Y-7337986D01*
X10345792Y-9037986D02*
X10409292Y-8974486D01*
X10345792Y-8910986D01*
X10282292Y-8974486D01*
X10345792Y-9037986D01*
X10345792Y-10737986D02*
X10409292Y-10674486D01*
X10345792Y-10610986D01*
X10282292Y-10674486D01*
X10345792Y-10737986D01*
X10845792Y-5847986D02*
X10909292Y-5784486D01*
X10845792Y-5720986D01*
X10782292Y-5784486D01*
X10845792Y-5847986D01*
X10845792Y-7547986D02*
X10909292Y-7484486D01*
X10845792Y-7420986D01*
X10782292Y-7484486D01*
X10845792Y-7547986D01*
X10845792Y-9247986D02*
X10909292Y-9184486D01*
X10845792Y-9120986D01*
X10782292Y-9184486D01*
X10845792Y-9247986D01*
X10845792Y-10947986D02*
X10909292Y-10884486D01*
X10845792Y-10820986D01*
X10782292Y-10884486D01*
X10845792Y-10947986D01*
X11345792Y-5637986D02*
X11409292Y-5574486D01*
X11345792Y-5510986D01*
X11282292Y-5574486D01*
X11345792Y-5637986D01*
X11345792Y-7337986D02*
X11409292Y-7274486D01*
X11345792Y-7210986D01*
X11282292Y-7274486D01*
X11345792Y-7337986D01*
X11345792Y-9037986D02*
X11409292Y-8974486D01*
X11345792Y-8910986D01*
X11282292Y-8974486D01*
X11345792Y-9037986D01*
X11345792Y-10737986D02*
X11409292Y-10674486D01*
X11345792Y-10610986D01*
X11282292Y-10674486D01*
X11345792Y-10737986D01*
X12145792Y-6297986D02*
X12209292Y-6234486D01*
X12145792Y-6170986D01*
X12082292Y-6234486D01*
X12145792Y-6297986D01*
X12145792Y-7997986D02*
X12209292Y-7934486D01*
X12145792Y-7870986D01*
X12082292Y-7934486D01*
X12145792Y-7997986D01*
X12145792Y-9697986D02*
X12209292Y-9634486D01*
X12145792Y-9570986D01*
X12082292Y-9634486D01*
X12145792Y-9697986D01*
X12645792Y-6507986D02*
X12709292Y-6444486D01*
X12645792Y-6380986D01*
X12582292Y-6444486D01*
X12645792Y-6507986D01*
X12645792Y-8207986D02*
X12709292Y-8144486D01*
X12645792Y-8080986D01*
X12582292Y-8144486D01*
X12645792Y-8207986D01*
X12645792Y-9907986D02*
X12709292Y-9844486D01*
X12645792Y-9780986D01*
X12582292Y-9844486D01*
X12645792Y-9907986D01*
X13145792Y-6297986D02*
X13209292Y-6234486D01*
X13145792Y-6170986D01*
X13082292Y-6234486D01*
X13145792Y-6297986D01*
X13145792Y-7997986D02*
X13209292Y-7934486D01*
X13145792Y-7870986D01*
X13082292Y-7934486D01*
X13145792Y-7997986D01*
X13145792Y-9697986D02*
X13209292Y-9634486D01*
X13145792Y-9570986D01*
X13082292Y-9634486D01*
X13145792Y-9697986D01*
X13659506Y-12089075D02*
X13723006Y-12025575D01*
X13659506Y-11962075D01*
X13596006Y-12025575D01*
X13659506Y-12089075D01*
X13945792Y-6667986D02*
X14009292Y-6604486D01*
X13945792Y-6540986D01*
X13882292Y-6604486D01*
X13945792Y-6667986D01*
X13945792Y-8367986D02*
X14009292Y-8304486D01*
X13945792Y-8240986D01*
X13882292Y-8304486D01*
X13945792Y-8367986D01*
X13945792Y-10067986D02*
X14009292Y-10004486D01*
X13945792Y-9940986D01*
X13882292Y-10004486D01*
X13945792Y-10067986D01*
X14002391Y-12509230D02*
X14065891Y-12445730D01*
X14002391Y-12382230D01*
X13938891Y-12445730D01*
X14002391Y-12509230D01*
X14445792Y-6877986D02*
X14509292Y-6814486D01*
X14445792Y-6750986D01*
X14382292Y-6814486D01*
X14445792Y-6877986D01*
X14445792Y-8577986D02*
X14509292Y-8514486D01*
X14445792Y-8450986D01*
X14382292Y-8514486D01*
X14445792Y-8577986D01*
X14445792Y-10277986D02*
X14509292Y-10214486D01*
X14445792Y-10150986D01*
X14382292Y-10214486D01*
X14445792Y-10277986D01*
X14542453Y-12558546D02*
X14605953Y-12495046D01*
X14542453Y-12431546D01*
X14478953Y-12495046D01*
X14542453Y-12558546D01*
X14945792Y-6667986D02*
X15009292Y-6604486D01*
X14945792Y-6540986D01*
X14882292Y-6604486D01*
X14945792Y-6667986D01*
X14945792Y-8367986D02*
X15009292Y-8304486D01*
X14945792Y-8240986D01*
X14882292Y-8304486D01*
X14945792Y-8367986D01*
X14945792Y-10067986D02*
X15009292Y-10004486D01*
X14945792Y-9940986D01*
X14882292Y-10004486D01*
X14945792Y-10067986D01*
X15247127Y-12936284D02*
X15310627Y-12872784D01*
X15247127Y-12809284D01*
X15183627Y-12872784D01*
X15247127Y-12936284D01*
X15590012Y-13356439D02*
X15653512Y-13292939D01*
X15590012Y-13229439D01*
X15526512Y-13292939D01*
X15590012Y-13356439D01*
X16130075Y-13405756D02*
X16193575Y-13342256D01*
X16130075Y-13278756D01*
X16066575Y-13342256D01*
X16130075Y-13405756D01*
D12*
X6600737Y-13829984D02*
X6600737Y-13629984D01*
X6600737Y-13629984D02*
X6648356Y-13629984D01*
X6648356Y-13629984D02*
X6676927Y-13639508D01*
X6676927Y-13639508D02*
X6695975Y-13658555D01*
X6695975Y-13658555D02*
X6705499Y-13677603D01*
X6705499Y-13677603D02*
X6715022Y-13715698D01*
X6715022Y-13715698D02*
X6715022Y-13744269D01*
X6715022Y-13744269D02*
X6705499Y-13782365D01*
X6705499Y-13782365D02*
X6695975Y-13801412D01*
X6695975Y-13801412D02*
X6676927Y-13820460D01*
X6676927Y-13820460D02*
X6648356Y-13829984D01*
X6648356Y-13829984D02*
X6600737Y-13829984D01*
X6800737Y-13829984D02*
X6800737Y-13696650D01*
X6800737Y-13734746D02*
X6810261Y-13715698D01*
X6810261Y-13715698D02*
X6819784Y-13706174D01*
X6819784Y-13706174D02*
X6838832Y-13696650D01*
X6838832Y-13696650D02*
X6857880Y-13696650D01*
X6924546Y-13829984D02*
X6924546Y-13696650D01*
X6924546Y-13629984D02*
X6915022Y-13639508D01*
X6915022Y-13639508D02*
X6924546Y-13649031D01*
X6924546Y-13649031D02*
X6934070Y-13639508D01*
X6934070Y-13639508D02*
X6924546Y-13629984D01*
X6924546Y-13629984D02*
X6924546Y-13649031D01*
X7048356Y-13829984D02*
X7029308Y-13820460D01*
X7029308Y-13820460D02*
X7019784Y-13801412D01*
X7019784Y-13801412D02*
X7019784Y-13629984D01*
X7153118Y-13829984D02*
X7134070Y-13820460D01*
X7134070Y-13820460D02*
X7124546Y-13801412D01*
X7124546Y-13801412D02*
X7124546Y-13629984D01*
X7381689Y-13829984D02*
X7381689Y-13629984D01*
X7381689Y-13629984D02*
X7448356Y-13772841D01*
X7448356Y-13772841D02*
X7515022Y-13629984D01*
X7515022Y-13629984D02*
X7515022Y-13829984D01*
X7695975Y-13829984D02*
X7695975Y-13725222D01*
X7695975Y-13725222D02*
X7686451Y-13706174D01*
X7686451Y-13706174D02*
X7667403Y-13696650D01*
X7667403Y-13696650D02*
X7629308Y-13696650D01*
X7629308Y-13696650D02*
X7610261Y-13706174D01*
X7695975Y-13820460D02*
X7676927Y-13829984D01*
X7676927Y-13829984D02*
X7629308Y-13829984D01*
X7629308Y-13829984D02*
X7610261Y-13820460D01*
X7610261Y-13820460D02*
X7600737Y-13801412D01*
X7600737Y-13801412D02*
X7600737Y-13782365D01*
X7600737Y-13782365D02*
X7610261Y-13763317D01*
X7610261Y-13763317D02*
X7629308Y-13753793D01*
X7629308Y-13753793D02*
X7676927Y-13753793D01*
X7676927Y-13753793D02*
X7695975Y-13744269D01*
X7791213Y-13696650D02*
X7791213Y-13896650D01*
X7791213Y-13706174D02*
X7810261Y-13696650D01*
X7810261Y-13696650D02*
X7848356Y-13696650D01*
X7848356Y-13696650D02*
X7867403Y-13706174D01*
X7867403Y-13706174D02*
X7876927Y-13715698D01*
X7876927Y-13715698D02*
X7886451Y-13734746D01*
X7886451Y-13734746D02*
X7886451Y-13791888D01*
X7886451Y-13791888D02*
X7876927Y-13810936D01*
X7876927Y-13810936D02*
X7867403Y-13820460D01*
X7867403Y-13820460D02*
X7848356Y-13829984D01*
X7848356Y-13829984D02*
X7810261Y-13829984D01*
X7810261Y-13829984D02*
X7791213Y-13820460D01*
X7972165Y-13810936D02*
X7981689Y-13820460D01*
X7981689Y-13820460D02*
X7972165Y-13829984D01*
X7972165Y-13829984D02*
X7962642Y-13820460D01*
X7962642Y-13820460D02*
X7972165Y-13810936D01*
X7972165Y-13810936D02*
X7972165Y-13829984D01*
X7972165Y-13706174D02*
X7981689Y-13715698D01*
X7981689Y-13715698D02*
X7972165Y-13725222D01*
X7972165Y-13725222D02*
X7962642Y-13715698D01*
X7962642Y-13715698D02*
X7972165Y-13706174D01*
X7972165Y-13706174D02*
X7972165Y-13725222D01*
D13*
X6299960Y-14138500D02*
X6339960Y-14178500D01*
X6339960Y-14138500D02*
X6299960Y-14178500D01*
D12*
X6638832Y-14049984D02*
X6657880Y-14049984D01*
X6657880Y-14049984D02*
X6676927Y-14059508D01*
X6676927Y-14059508D02*
X6686451Y-14069031D01*
X6686451Y-14069031D02*
X6695975Y-14088079D01*
X6695975Y-14088079D02*
X6705499Y-14126174D01*
X6705499Y-14126174D02*
X6705499Y-14173793D01*
X6705499Y-14173793D02*
X6695975Y-14211888D01*
X6695975Y-14211888D02*
X6686451Y-14230936D01*
X6686451Y-14230936D02*
X6676927Y-14240460D01*
X6676927Y-14240460D02*
X6657880Y-14249984D01*
X6657880Y-14249984D02*
X6638832Y-14249984D01*
X6638832Y-14249984D02*
X6619784Y-14240460D01*
X6619784Y-14240460D02*
X6610261Y-14230936D01*
X6610261Y-14230936D02*
X6600737Y-14211888D01*
X6600737Y-14211888D02*
X6591213Y-14173793D01*
X6591213Y-14173793D02*
X6591213Y-14126174D01*
X6591213Y-14126174D02*
X6600737Y-14088079D01*
X6600737Y-14088079D02*
X6610261Y-14069031D01*
X6610261Y-14069031D02*
X6619784Y-14059508D01*
X6619784Y-14059508D02*
X6638832Y-14049984D01*
X6791213Y-14230936D02*
X6800737Y-14240460D01*
X6800737Y-14240460D02*
X6791213Y-14249984D01*
X6791213Y-14249984D02*
X6781689Y-14240460D01*
X6781689Y-14240460D02*
X6791213Y-14230936D01*
X6791213Y-14230936D02*
X6791213Y-14249984D01*
X6972165Y-14116650D02*
X6972165Y-14249984D01*
X6924546Y-14040460D02*
X6876927Y-14183317D01*
X6876927Y-14183317D02*
X7000737Y-14183317D01*
X7115022Y-14049984D02*
X7134070Y-14049984D01*
X7134070Y-14049984D02*
X7153118Y-14059508D01*
X7153118Y-14059508D02*
X7162642Y-14069031D01*
X7162642Y-14069031D02*
X7172165Y-14088079D01*
X7172165Y-14088079D02*
X7181689Y-14126174D01*
X7181689Y-14126174D02*
X7181689Y-14173793D01*
X7181689Y-14173793D02*
X7172165Y-14211888D01*
X7172165Y-14211888D02*
X7162642Y-14230936D01*
X7162642Y-14230936D02*
X7153118Y-14240460D01*
X7153118Y-14240460D02*
X7134070Y-14249984D01*
X7134070Y-14249984D02*
X7115022Y-14249984D01*
X7115022Y-14249984D02*
X7095975Y-14240460D01*
X7095975Y-14240460D02*
X7086451Y-14230936D01*
X7086451Y-14230936D02*
X7076927Y-14211888D01*
X7076927Y-14211888D02*
X7067403Y-14173793D01*
X7067403Y-14173793D02*
X7067403Y-14126174D01*
X7067403Y-14126174D02*
X7076927Y-14088079D01*
X7076927Y-14088079D02*
X7086451Y-14069031D01*
X7086451Y-14069031D02*
X7095975Y-14059508D01*
X7095975Y-14059508D02*
X7115022Y-14049984D01*
X7305499Y-14049984D02*
X7324546Y-14049984D01*
X7324546Y-14049984D02*
X7343594Y-14059508D01*
X7343594Y-14059508D02*
X7353118Y-14069031D01*
X7353118Y-14069031D02*
X7362642Y-14088079D01*
X7362642Y-14088079D02*
X7372165Y-14126174D01*
X7372165Y-14126174D02*
X7372165Y-14173793D01*
X7372165Y-14173793D02*
X7362642Y-14211888D01*
X7362642Y-14211888D02*
X7353118Y-14230936D01*
X7353118Y-14230936D02*
X7343594Y-14240460D01*
X7343594Y-14240460D02*
X7324546Y-14249984D01*
X7324546Y-14249984D02*
X7305499Y-14249984D01*
X7305499Y-14249984D02*
X7286451Y-14240460D01*
X7286451Y-14240460D02*
X7276927Y-14230936D01*
X7276927Y-14230936D02*
X7267403Y-14211888D01*
X7267403Y-14211888D02*
X7257880Y-14173793D01*
X7257880Y-14173793D02*
X7257880Y-14126174D01*
X7257880Y-14126174D02*
X7267403Y-14088079D01*
X7267403Y-14088079D02*
X7276927Y-14069031D01*
X7276927Y-14069031D02*
X7286451Y-14059508D01*
X7286451Y-14059508D02*
X7305499Y-14049984D01*
X7457880Y-14249984D02*
X7457880Y-14116650D01*
X7457880Y-14135698D02*
X7467403Y-14126174D01*
X7467403Y-14126174D02*
X7486451Y-14116650D01*
X7486451Y-14116650D02*
X7515023Y-14116650D01*
X7515023Y-14116650D02*
X7534070Y-14126174D01*
X7534070Y-14126174D02*
X7543594Y-14145222D01*
X7543594Y-14145222D02*
X7543594Y-14249984D01*
X7543594Y-14145222D02*
X7553118Y-14126174D01*
X7553118Y-14126174D02*
X7572165Y-14116650D01*
X7572165Y-14116650D02*
X7600737Y-14116650D01*
X7600737Y-14116650D02*
X7619784Y-14126174D01*
X7619784Y-14126174D02*
X7629308Y-14145222D01*
X7629308Y-14145222D02*
X7629308Y-14249984D01*
X7724546Y-14249984D02*
X7724546Y-14116650D01*
X7724546Y-14135698D02*
X7734070Y-14126174D01*
X7734070Y-14126174D02*
X7753118Y-14116650D01*
X7753118Y-14116650D02*
X7781689Y-14116650D01*
X7781689Y-14116650D02*
X7800737Y-14126174D01*
X7800737Y-14126174D02*
X7810261Y-14145222D01*
X7810261Y-14145222D02*
X7810261Y-14249984D01*
X7810261Y-14145222D02*
X7819784Y-14126174D01*
X7819784Y-14126174D02*
X7838832Y-14116650D01*
X7838832Y-14116650D02*
X7867403Y-14116650D01*
X7867403Y-14116650D02*
X7886451Y-14126174D01*
X7886451Y-14126174D02*
X7895975Y-14145222D01*
X7895975Y-14145222D02*
X7895975Y-14249984D01*
X8286451Y-14040460D02*
X8115023Y-14297603D01*
X8543594Y-14049984D02*
X8562642Y-14049984D01*
X8562642Y-14049984D02*
X8581689Y-14059508D01*
X8581689Y-14059508D02*
X8591213Y-14069031D01*
X8591213Y-14069031D02*
X8600737Y-14088079D01*
X8600737Y-14088079D02*
X8610261Y-14126174D01*
X8610261Y-14126174D02*
X8610261Y-14173793D01*
X8610261Y-14173793D02*
X8600737Y-14211888D01*
X8600737Y-14211888D02*
X8591213Y-14230936D01*
X8591213Y-14230936D02*
X8581689Y-14240460D01*
X8581689Y-14240460D02*
X8562642Y-14249984D01*
X8562642Y-14249984D02*
X8543594Y-14249984D01*
X8543594Y-14249984D02*
X8524547Y-14240460D01*
X8524547Y-14240460D02*
X8515023Y-14230936D01*
X8515023Y-14230936D02*
X8505499Y-14211888D01*
X8505499Y-14211888D02*
X8495975Y-14173793D01*
X8495975Y-14173793D02*
X8495975Y-14126174D01*
X8495975Y-14126174D02*
X8505499Y-14088079D01*
X8505499Y-14088079D02*
X8515023Y-14069031D01*
X8515023Y-14069031D02*
X8524547Y-14059508D01*
X8524547Y-14059508D02*
X8543594Y-14049984D01*
X8695975Y-14230936D02*
X8705499Y-14240460D01*
X8705499Y-14240460D02*
X8695975Y-14249984D01*
X8695975Y-14249984D02*
X8686451Y-14240460D01*
X8686451Y-14240460D02*
X8695975Y-14230936D01*
X8695975Y-14230936D02*
X8695975Y-14249984D01*
X8829308Y-14049984D02*
X8848356Y-14049984D01*
X8848356Y-14049984D02*
X8867404Y-14059508D01*
X8867404Y-14059508D02*
X8876928Y-14069031D01*
X8876928Y-14069031D02*
X8886451Y-14088079D01*
X8886451Y-14088079D02*
X8895975Y-14126174D01*
X8895975Y-14126174D02*
X8895975Y-14173793D01*
X8895975Y-14173793D02*
X8886451Y-14211888D01*
X8886451Y-14211888D02*
X8876928Y-14230936D01*
X8876928Y-14230936D02*
X8867404Y-14240460D01*
X8867404Y-14240460D02*
X8848356Y-14249984D01*
X8848356Y-14249984D02*
X8829308Y-14249984D01*
X8829308Y-14249984D02*
X8810261Y-14240460D01*
X8810261Y-14240460D02*
X8800737Y-14230936D01*
X8800737Y-14230936D02*
X8791213Y-14211888D01*
X8791213Y-14211888D02*
X8781689Y-14173793D01*
X8781689Y-14173793D02*
X8781689Y-14126174D01*
X8781689Y-14126174D02*
X8791213Y-14088079D01*
X8791213Y-14088079D02*
X8800737Y-14069031D01*
X8800737Y-14069031D02*
X8810261Y-14059508D01*
X8810261Y-14059508D02*
X8829308Y-14049984D01*
X9086451Y-14249984D02*
X8972166Y-14249984D01*
X9029308Y-14249984D02*
X9029308Y-14049984D01*
X9029308Y-14049984D02*
X9010261Y-14078555D01*
X9010261Y-14078555D02*
X8991213Y-14097603D01*
X8991213Y-14097603D02*
X8972166Y-14107127D01*
X9267404Y-14049984D02*
X9172166Y-14049984D01*
X9172166Y-14049984D02*
X9162642Y-14145222D01*
X9162642Y-14145222D02*
X9172166Y-14135698D01*
X9172166Y-14135698D02*
X9191213Y-14126174D01*
X9191213Y-14126174D02*
X9238832Y-14126174D01*
X9238832Y-14126174D02*
X9257880Y-14135698D01*
X9257880Y-14135698D02*
X9267404Y-14145222D01*
X9267404Y-14145222D02*
X9276928Y-14164269D01*
X9276928Y-14164269D02*
X9276928Y-14211888D01*
X9276928Y-14211888D02*
X9267404Y-14230936D01*
X9267404Y-14230936D02*
X9257880Y-14240460D01*
X9257880Y-14240460D02*
X9238832Y-14249984D01*
X9238832Y-14249984D02*
X9191213Y-14249984D01*
X9191213Y-14249984D02*
X9172166Y-14240460D01*
X9172166Y-14240460D02*
X9162642Y-14230936D01*
X9343594Y-14049984D02*
X9476928Y-14049984D01*
X9476928Y-14049984D02*
X9391213Y-14249984D01*
X9543594Y-14049984D02*
X9543594Y-14088079D01*
X9619785Y-14049984D02*
X9619785Y-14088079D01*
X9915023Y-14326174D02*
X9905499Y-14316650D01*
X9905499Y-14316650D02*
X9886451Y-14288079D01*
X9886451Y-14288079D02*
X9876928Y-14269031D01*
X9876928Y-14269031D02*
X9867404Y-14240460D01*
X9867404Y-14240460D02*
X9857880Y-14192841D01*
X9857880Y-14192841D02*
X9857880Y-14154746D01*
X9857880Y-14154746D02*
X9867404Y-14107127D01*
X9867404Y-14107127D02*
X9876928Y-14078555D01*
X9876928Y-14078555D02*
X9886451Y-14059508D01*
X9886451Y-14059508D02*
X9905499Y-14030936D01*
X9905499Y-14030936D02*
X9915023Y-14021412D01*
X9972166Y-14049984D02*
X10095975Y-14049984D01*
X10095975Y-14049984D02*
X10029309Y-14126174D01*
X10029309Y-14126174D02*
X10057880Y-14126174D01*
X10057880Y-14126174D02*
X10076928Y-14135698D01*
X10076928Y-14135698D02*
X10086451Y-14145222D01*
X10086451Y-14145222D02*
X10095975Y-14164269D01*
X10095975Y-14164269D02*
X10095975Y-14211888D01*
X10095975Y-14211888D02*
X10086451Y-14230936D01*
X10086451Y-14230936D02*
X10076928Y-14240460D01*
X10076928Y-14240460D02*
X10057880Y-14249984D01*
X10057880Y-14249984D02*
X10000737Y-14249984D01*
X10000737Y-14249984D02*
X9981690Y-14240460D01*
X9981690Y-14240460D02*
X9972166Y-14230936D01*
X10210261Y-14135698D02*
X10191213Y-14126174D01*
X10191213Y-14126174D02*
X10181690Y-14116650D01*
X10181690Y-14116650D02*
X10172166Y-14097603D01*
X10172166Y-14097603D02*
X10172166Y-14088079D01*
X10172166Y-14088079D02*
X10181690Y-14069031D01*
X10181690Y-14069031D02*
X10191213Y-14059508D01*
X10191213Y-14059508D02*
X10210261Y-14049984D01*
X10210261Y-14049984D02*
X10248356Y-14049984D01*
X10248356Y-14049984D02*
X10267404Y-14059508D01*
X10267404Y-14059508D02*
X10276928Y-14069031D01*
X10276928Y-14069031D02*
X10286451Y-14088079D01*
X10286451Y-14088079D02*
X10286451Y-14097603D01*
X10286451Y-14097603D02*
X10276928Y-14116650D01*
X10276928Y-14116650D02*
X10267404Y-14126174D01*
X10267404Y-14126174D02*
X10248356Y-14135698D01*
X10248356Y-14135698D02*
X10210261Y-14135698D01*
X10210261Y-14135698D02*
X10191213Y-14145222D01*
X10191213Y-14145222D02*
X10181690Y-14154746D01*
X10181690Y-14154746D02*
X10172166Y-14173793D01*
X10172166Y-14173793D02*
X10172166Y-14211888D01*
X10172166Y-14211888D02*
X10181690Y-14230936D01*
X10181690Y-14230936D02*
X10191213Y-14240460D01*
X10191213Y-14240460D02*
X10210261Y-14249984D01*
X10210261Y-14249984D02*
X10248356Y-14249984D01*
X10248356Y-14249984D02*
X10267404Y-14240460D01*
X10267404Y-14240460D02*
X10276928Y-14230936D01*
X10276928Y-14230936D02*
X10286451Y-14211888D01*
X10286451Y-14211888D02*
X10286451Y-14173793D01*
X10286451Y-14173793D02*
X10276928Y-14154746D01*
X10276928Y-14154746D02*
X10267404Y-14145222D01*
X10267404Y-14145222D02*
X10248356Y-14135698D01*
X10524547Y-14249984D02*
X10524547Y-14049984D01*
X10610261Y-14249984D02*
X10610261Y-14145222D01*
X10610261Y-14145222D02*
X10600737Y-14126174D01*
X10600737Y-14126174D02*
X10581690Y-14116650D01*
X10581690Y-14116650D02*
X10553118Y-14116650D01*
X10553118Y-14116650D02*
X10534071Y-14126174D01*
X10534071Y-14126174D02*
X10524547Y-14135698D01*
X10734071Y-14249984D02*
X10715023Y-14240460D01*
X10715023Y-14240460D02*
X10705499Y-14230936D01*
X10705499Y-14230936D02*
X10695975Y-14211888D01*
X10695975Y-14211888D02*
X10695975Y-14154746D01*
X10695975Y-14154746D02*
X10705499Y-14135698D01*
X10705499Y-14135698D02*
X10715023Y-14126174D01*
X10715023Y-14126174D02*
X10734071Y-14116650D01*
X10734071Y-14116650D02*
X10762642Y-14116650D01*
X10762642Y-14116650D02*
X10781690Y-14126174D01*
X10781690Y-14126174D02*
X10791213Y-14135698D01*
X10791213Y-14135698D02*
X10800737Y-14154746D01*
X10800737Y-14154746D02*
X10800737Y-14211888D01*
X10800737Y-14211888D02*
X10791213Y-14230936D01*
X10791213Y-14230936D02*
X10781690Y-14240460D01*
X10781690Y-14240460D02*
X10762642Y-14249984D01*
X10762642Y-14249984D02*
X10734071Y-14249984D01*
X10915023Y-14249984D02*
X10895975Y-14240460D01*
X10895975Y-14240460D02*
X10886452Y-14221412D01*
X10886452Y-14221412D02*
X10886452Y-14049984D01*
X11067404Y-14240460D02*
X11048356Y-14249984D01*
X11048356Y-14249984D02*
X11010261Y-14249984D01*
X11010261Y-14249984D02*
X10991213Y-14240460D01*
X10991213Y-14240460D02*
X10981690Y-14221412D01*
X10981690Y-14221412D02*
X10981690Y-14145222D01*
X10981690Y-14145222D02*
X10991213Y-14126174D01*
X10991213Y-14126174D02*
X11010261Y-14116650D01*
X11010261Y-14116650D02*
X11048356Y-14116650D01*
X11048356Y-14116650D02*
X11067404Y-14126174D01*
X11067404Y-14126174D02*
X11076928Y-14145222D01*
X11076928Y-14145222D02*
X11076928Y-14164269D01*
X11076928Y-14164269D02*
X10981690Y-14183317D01*
X11153118Y-14240460D02*
X11172166Y-14249984D01*
X11172166Y-14249984D02*
X11210261Y-14249984D01*
X11210261Y-14249984D02*
X11229309Y-14240460D01*
X11229309Y-14240460D02*
X11238832Y-14221412D01*
X11238832Y-14221412D02*
X11238832Y-14211888D01*
X11238832Y-14211888D02*
X11229309Y-14192841D01*
X11229309Y-14192841D02*
X11210261Y-14183317D01*
X11210261Y-14183317D02*
X11181690Y-14183317D01*
X11181690Y-14183317D02*
X11162642Y-14173793D01*
X11162642Y-14173793D02*
X11153118Y-14154746D01*
X11153118Y-14154746D02*
X11153118Y-14145222D01*
X11153118Y-14145222D02*
X11162642Y-14126174D01*
X11162642Y-14126174D02*
X11181690Y-14116650D01*
X11181690Y-14116650D02*
X11210261Y-14116650D01*
X11210261Y-14116650D02*
X11229309Y-14126174D01*
X11305499Y-14326174D02*
X11315023Y-14316650D01*
X11315023Y-14316650D02*
X11334071Y-14288079D01*
X11334071Y-14288079D02*
X11343594Y-14269031D01*
X11343594Y-14269031D02*
X11353118Y-14240460D01*
X11353118Y-14240460D02*
X11362642Y-14192841D01*
X11362642Y-14192841D02*
X11362642Y-14154746D01*
X11362642Y-14154746D02*
X11353118Y-14107127D01*
X11353118Y-14107127D02*
X11343594Y-14078555D01*
X11343594Y-14078555D02*
X11334071Y-14059508D01*
X11334071Y-14059508D02*
X11315023Y-14030936D01*
X11315023Y-14030936D02*
X11305499Y-14021412D01*
D14*
X6339960Y-14422500D02*
G75*
G03*
X6339960Y-14422500I-35000J0D01*
G01*
D12*
X6638832Y-14313984D02*
X6657880Y-14313984D01*
X6657880Y-14313984D02*
X6676927Y-14323508D01*
X6676927Y-14323508D02*
X6686451Y-14333031D01*
X6686451Y-14333031D02*
X6695975Y-14352079D01*
X6695975Y-14352079D02*
X6705499Y-14390174D01*
X6705499Y-14390174D02*
X6705499Y-14437793D01*
X6705499Y-14437793D02*
X6695975Y-14475888D01*
X6695975Y-14475888D02*
X6686451Y-14494936D01*
X6686451Y-14494936D02*
X6676927Y-14504460D01*
X6676927Y-14504460D02*
X6657880Y-14513984D01*
X6657880Y-14513984D02*
X6638832Y-14513984D01*
X6638832Y-14513984D02*
X6619784Y-14504460D01*
X6619784Y-14504460D02*
X6610261Y-14494936D01*
X6610261Y-14494936D02*
X6600737Y-14475888D01*
X6600737Y-14475888D02*
X6591213Y-14437793D01*
X6591213Y-14437793D02*
X6591213Y-14390174D01*
X6591213Y-14390174D02*
X6600737Y-14352079D01*
X6600737Y-14352079D02*
X6610261Y-14333031D01*
X6610261Y-14333031D02*
X6619784Y-14323508D01*
X6619784Y-14323508D02*
X6638832Y-14313984D01*
X6791213Y-14494936D02*
X6800737Y-14504460D01*
X6800737Y-14504460D02*
X6791213Y-14513984D01*
X6791213Y-14513984D02*
X6781689Y-14504460D01*
X6781689Y-14504460D02*
X6791213Y-14494936D01*
X6791213Y-14494936D02*
X6791213Y-14513984D01*
X6867403Y-14313984D02*
X7000737Y-14313984D01*
X7000737Y-14313984D02*
X6915022Y-14513984D01*
X7115022Y-14313984D02*
X7134070Y-14313984D01*
X7134070Y-14313984D02*
X7153118Y-14323508D01*
X7153118Y-14323508D02*
X7162642Y-14333031D01*
X7162642Y-14333031D02*
X7172165Y-14352079D01*
X7172165Y-14352079D02*
X7181689Y-14390174D01*
X7181689Y-14390174D02*
X7181689Y-14437793D01*
X7181689Y-14437793D02*
X7172165Y-14475888D01*
X7172165Y-14475888D02*
X7162642Y-14494936D01*
X7162642Y-14494936D02*
X7153118Y-14504460D01*
X7153118Y-14504460D02*
X7134070Y-14513984D01*
X7134070Y-14513984D02*
X7115022Y-14513984D01*
X7115022Y-14513984D02*
X7095975Y-14504460D01*
X7095975Y-14504460D02*
X7086451Y-14494936D01*
X7086451Y-14494936D02*
X7076927Y-14475888D01*
X7076927Y-14475888D02*
X7067403Y-14437793D01*
X7067403Y-14437793D02*
X7067403Y-14390174D01*
X7067403Y-14390174D02*
X7076927Y-14352079D01*
X7076927Y-14352079D02*
X7086451Y-14333031D01*
X7086451Y-14333031D02*
X7095975Y-14323508D01*
X7095975Y-14323508D02*
X7115022Y-14313984D01*
X7305499Y-14313984D02*
X7324546Y-14313984D01*
X7324546Y-14313984D02*
X7343594Y-14323508D01*
X7343594Y-14323508D02*
X7353118Y-14333031D01*
X7353118Y-14333031D02*
X7362642Y-14352079D01*
X7362642Y-14352079D02*
X7372165Y-14390174D01*
X7372165Y-14390174D02*
X7372165Y-14437793D01*
X7372165Y-14437793D02*
X7362642Y-14475888D01*
X7362642Y-14475888D02*
X7353118Y-14494936D01*
X7353118Y-14494936D02*
X7343594Y-14504460D01*
X7343594Y-14504460D02*
X7324546Y-14513984D01*
X7324546Y-14513984D02*
X7305499Y-14513984D01*
X7305499Y-14513984D02*
X7286451Y-14504460D01*
X7286451Y-14504460D02*
X7276927Y-14494936D01*
X7276927Y-14494936D02*
X7267403Y-14475888D01*
X7267403Y-14475888D02*
X7257880Y-14437793D01*
X7257880Y-14437793D02*
X7257880Y-14390174D01*
X7257880Y-14390174D02*
X7267403Y-14352079D01*
X7267403Y-14352079D02*
X7276927Y-14333031D01*
X7276927Y-14333031D02*
X7286451Y-14323508D01*
X7286451Y-14323508D02*
X7305499Y-14313984D01*
X7457880Y-14513984D02*
X7457880Y-14380650D01*
X7457880Y-14399698D02*
X7467403Y-14390174D01*
X7467403Y-14390174D02*
X7486451Y-14380650D01*
X7486451Y-14380650D02*
X7515023Y-14380650D01*
X7515023Y-14380650D02*
X7534070Y-14390174D01*
X7534070Y-14390174D02*
X7543594Y-14409222D01*
X7543594Y-14409222D02*
X7543594Y-14513984D01*
X7543594Y-14409222D02*
X7553118Y-14390174D01*
X7553118Y-14390174D02*
X7572165Y-14380650D01*
X7572165Y-14380650D02*
X7600737Y-14380650D01*
X7600737Y-14380650D02*
X7619784Y-14390174D01*
X7619784Y-14390174D02*
X7629308Y-14409222D01*
X7629308Y-14409222D02*
X7629308Y-14513984D01*
X7724546Y-14513984D02*
X7724546Y-14380650D01*
X7724546Y-14399698D02*
X7734070Y-14390174D01*
X7734070Y-14390174D02*
X7753118Y-14380650D01*
X7753118Y-14380650D02*
X7781689Y-14380650D01*
X7781689Y-14380650D02*
X7800737Y-14390174D01*
X7800737Y-14390174D02*
X7810261Y-14409222D01*
X7810261Y-14409222D02*
X7810261Y-14513984D01*
X7810261Y-14409222D02*
X7819784Y-14390174D01*
X7819784Y-14390174D02*
X7838832Y-14380650D01*
X7838832Y-14380650D02*
X7867403Y-14380650D01*
X7867403Y-14380650D02*
X7886451Y-14390174D01*
X7886451Y-14390174D02*
X7895975Y-14409222D01*
X7895975Y-14409222D02*
X7895975Y-14513984D01*
X8286451Y-14304460D02*
X8115023Y-14561603D01*
X8543594Y-14313984D02*
X8562642Y-14313984D01*
X8562642Y-14313984D02*
X8581689Y-14323508D01*
X8581689Y-14323508D02*
X8591213Y-14333031D01*
X8591213Y-14333031D02*
X8600737Y-14352079D01*
X8600737Y-14352079D02*
X8610261Y-14390174D01*
X8610261Y-14390174D02*
X8610261Y-14437793D01*
X8610261Y-14437793D02*
X8600737Y-14475888D01*
X8600737Y-14475888D02*
X8591213Y-14494936D01*
X8591213Y-14494936D02*
X8581689Y-14504460D01*
X8581689Y-14504460D02*
X8562642Y-14513984D01*
X8562642Y-14513984D02*
X8543594Y-14513984D01*
X8543594Y-14513984D02*
X8524547Y-14504460D01*
X8524547Y-14504460D02*
X8515023Y-14494936D01*
X8515023Y-14494936D02*
X8505499Y-14475888D01*
X8505499Y-14475888D02*
X8495975Y-14437793D01*
X8495975Y-14437793D02*
X8495975Y-14390174D01*
X8495975Y-14390174D02*
X8505499Y-14352079D01*
X8505499Y-14352079D02*
X8515023Y-14333031D01*
X8515023Y-14333031D02*
X8524547Y-14323508D01*
X8524547Y-14323508D02*
X8543594Y-14313984D01*
X8695975Y-14494936D02*
X8705499Y-14504460D01*
X8705499Y-14504460D02*
X8695975Y-14513984D01*
X8695975Y-14513984D02*
X8686451Y-14504460D01*
X8686451Y-14504460D02*
X8695975Y-14494936D01*
X8695975Y-14494936D02*
X8695975Y-14513984D01*
X8829308Y-14313984D02*
X8848356Y-14313984D01*
X8848356Y-14313984D02*
X8867404Y-14323508D01*
X8867404Y-14323508D02*
X8876928Y-14333031D01*
X8876928Y-14333031D02*
X8886451Y-14352079D01*
X8886451Y-14352079D02*
X8895975Y-14390174D01*
X8895975Y-14390174D02*
X8895975Y-14437793D01*
X8895975Y-14437793D02*
X8886451Y-14475888D01*
X8886451Y-14475888D02*
X8876928Y-14494936D01*
X8876928Y-14494936D02*
X8867404Y-14504460D01*
X8867404Y-14504460D02*
X8848356Y-14513984D01*
X8848356Y-14513984D02*
X8829308Y-14513984D01*
X8829308Y-14513984D02*
X8810261Y-14504460D01*
X8810261Y-14504460D02*
X8800737Y-14494936D01*
X8800737Y-14494936D02*
X8791213Y-14475888D01*
X8791213Y-14475888D02*
X8781689Y-14437793D01*
X8781689Y-14437793D02*
X8781689Y-14390174D01*
X8781689Y-14390174D02*
X8791213Y-14352079D01*
X8791213Y-14352079D02*
X8800737Y-14333031D01*
X8800737Y-14333031D02*
X8810261Y-14323508D01*
X8810261Y-14323508D02*
X8829308Y-14313984D01*
X8972166Y-14333031D02*
X8981689Y-14323508D01*
X8981689Y-14323508D02*
X9000737Y-14313984D01*
X9000737Y-14313984D02*
X9048356Y-14313984D01*
X9048356Y-14313984D02*
X9067404Y-14323508D01*
X9067404Y-14323508D02*
X9076928Y-14333031D01*
X9076928Y-14333031D02*
X9086451Y-14352079D01*
X9086451Y-14352079D02*
X9086451Y-14371127D01*
X9086451Y-14371127D02*
X9076928Y-14399698D01*
X9076928Y-14399698D02*
X8962642Y-14513984D01*
X8962642Y-14513984D02*
X9086451Y-14513984D01*
X9153118Y-14313984D02*
X9286451Y-14313984D01*
X9286451Y-14313984D02*
X9200737Y-14513984D01*
X9448356Y-14313984D02*
X9410261Y-14313984D01*
X9410261Y-14313984D02*
X9391213Y-14323508D01*
X9391213Y-14323508D02*
X9381689Y-14333031D01*
X9381689Y-14333031D02*
X9362642Y-14361603D01*
X9362642Y-14361603D02*
X9353118Y-14399698D01*
X9353118Y-14399698D02*
X9353118Y-14475888D01*
X9353118Y-14475888D02*
X9362642Y-14494936D01*
X9362642Y-14494936D02*
X9372166Y-14504460D01*
X9372166Y-14504460D02*
X9391213Y-14513984D01*
X9391213Y-14513984D02*
X9429309Y-14513984D01*
X9429309Y-14513984D02*
X9448356Y-14504460D01*
X9448356Y-14504460D02*
X9457880Y-14494936D01*
X9457880Y-14494936D02*
X9467404Y-14475888D01*
X9467404Y-14475888D02*
X9467404Y-14428269D01*
X9467404Y-14428269D02*
X9457880Y-14409222D01*
X9457880Y-14409222D02*
X9448356Y-14399698D01*
X9448356Y-14399698D02*
X9429309Y-14390174D01*
X9429309Y-14390174D02*
X9391213Y-14390174D01*
X9391213Y-14390174D02*
X9372166Y-14399698D01*
X9372166Y-14399698D02*
X9362642Y-14409222D01*
X9362642Y-14409222D02*
X9353118Y-14428269D01*
X9543594Y-14313984D02*
X9543594Y-14352079D01*
X9619785Y-14313984D02*
X9619785Y-14352079D01*
X9915023Y-14590174D02*
X9905499Y-14580650D01*
X9905499Y-14580650D02*
X9886451Y-14552079D01*
X9886451Y-14552079D02*
X9876928Y-14533031D01*
X9876928Y-14533031D02*
X9867404Y-14504460D01*
X9867404Y-14504460D02*
X9857880Y-14456841D01*
X9857880Y-14456841D02*
X9857880Y-14418746D01*
X9857880Y-14418746D02*
X9867404Y-14371127D01*
X9867404Y-14371127D02*
X9876928Y-14342555D01*
X9876928Y-14342555D02*
X9886451Y-14323508D01*
X9886451Y-14323508D02*
X9905499Y-14294936D01*
X9905499Y-14294936D02*
X9915023Y-14285412D01*
X10029309Y-14313984D02*
X10048356Y-14313984D01*
X10048356Y-14313984D02*
X10067404Y-14323508D01*
X10067404Y-14323508D02*
X10076928Y-14333031D01*
X10076928Y-14333031D02*
X10086451Y-14352079D01*
X10086451Y-14352079D02*
X10095975Y-14390174D01*
X10095975Y-14390174D02*
X10095975Y-14437793D01*
X10095975Y-14437793D02*
X10086451Y-14475888D01*
X10086451Y-14475888D02*
X10076928Y-14494936D01*
X10076928Y-14494936D02*
X10067404Y-14504460D01*
X10067404Y-14504460D02*
X10048356Y-14513984D01*
X10048356Y-14513984D02*
X10029309Y-14513984D01*
X10029309Y-14513984D02*
X10010261Y-14504460D01*
X10010261Y-14504460D02*
X10000737Y-14494936D01*
X10000737Y-14494936D02*
X9991213Y-14475888D01*
X9991213Y-14475888D02*
X9981690Y-14437793D01*
X9981690Y-14437793D02*
X9981690Y-14390174D01*
X9981690Y-14390174D02*
X9991213Y-14352079D01*
X9991213Y-14352079D02*
X10000737Y-14333031D01*
X10000737Y-14333031D02*
X10010261Y-14323508D01*
X10010261Y-14323508D02*
X10029309Y-14313984D01*
X10334071Y-14513984D02*
X10334071Y-14313984D01*
X10419785Y-14513984D02*
X10419785Y-14409222D01*
X10419785Y-14409222D02*
X10410261Y-14390174D01*
X10410261Y-14390174D02*
X10391213Y-14380650D01*
X10391213Y-14380650D02*
X10362642Y-14380650D01*
X10362642Y-14380650D02*
X10343594Y-14390174D01*
X10343594Y-14390174D02*
X10334071Y-14399698D01*
X10543594Y-14513984D02*
X10524547Y-14504460D01*
X10524547Y-14504460D02*
X10515023Y-14494936D01*
X10515023Y-14494936D02*
X10505499Y-14475888D01*
X10505499Y-14475888D02*
X10505499Y-14418746D01*
X10505499Y-14418746D02*
X10515023Y-14399698D01*
X10515023Y-14399698D02*
X10524547Y-14390174D01*
X10524547Y-14390174D02*
X10543594Y-14380650D01*
X10543594Y-14380650D02*
X10572166Y-14380650D01*
X10572166Y-14380650D02*
X10591213Y-14390174D01*
X10591213Y-14390174D02*
X10600737Y-14399698D01*
X10600737Y-14399698D02*
X10610261Y-14418746D01*
X10610261Y-14418746D02*
X10610261Y-14475888D01*
X10610261Y-14475888D02*
X10600737Y-14494936D01*
X10600737Y-14494936D02*
X10591213Y-14504460D01*
X10591213Y-14504460D02*
X10572166Y-14513984D01*
X10572166Y-14513984D02*
X10543594Y-14513984D01*
X10724547Y-14513984D02*
X10705499Y-14504460D01*
X10705499Y-14504460D02*
X10695975Y-14485412D01*
X10695975Y-14485412D02*
X10695975Y-14313984D01*
X10876928Y-14504460D02*
X10857880Y-14513984D01*
X10857880Y-14513984D02*
X10819785Y-14513984D01*
X10819785Y-14513984D02*
X10800737Y-14504460D01*
X10800737Y-14504460D02*
X10791213Y-14485412D01*
X10791213Y-14485412D02*
X10791213Y-14409222D01*
X10791213Y-14409222D02*
X10800737Y-14390174D01*
X10800737Y-14390174D02*
X10819785Y-14380650D01*
X10819785Y-14380650D02*
X10857880Y-14380650D01*
X10857880Y-14380650D02*
X10876928Y-14390174D01*
X10876928Y-14390174D02*
X10886452Y-14409222D01*
X10886452Y-14409222D02*
X10886452Y-14428269D01*
X10886452Y-14428269D02*
X10791213Y-14447317D01*
X10962642Y-14504460D02*
X10981690Y-14513984D01*
X10981690Y-14513984D02*
X11019785Y-14513984D01*
X11019785Y-14513984D02*
X11038833Y-14504460D01*
X11038833Y-14504460D02*
X11048356Y-14485412D01*
X11048356Y-14485412D02*
X11048356Y-14475888D01*
X11048356Y-14475888D02*
X11038833Y-14456841D01*
X11038833Y-14456841D02*
X11019785Y-14447317D01*
X11019785Y-14447317D02*
X10991213Y-14447317D01*
X10991213Y-14447317D02*
X10972166Y-14437793D01*
X10972166Y-14437793D02*
X10962642Y-14418746D01*
X10962642Y-14418746D02*
X10962642Y-14409222D01*
X10962642Y-14409222D02*
X10972166Y-14390174D01*
X10972166Y-14390174D02*
X10991213Y-14380650D01*
X10991213Y-14380650D02*
X11019785Y-14380650D01*
X11019785Y-14380650D02*
X11038833Y-14390174D01*
X11286452Y-14437793D02*
X11438833Y-14437793D01*
X11362642Y-14513984D02*
X11362642Y-14361603D01*
X11772166Y-14380650D02*
X11772166Y-14513984D01*
X11724547Y-14304460D02*
X11676928Y-14447317D01*
X11676928Y-14447317D02*
X11800737Y-14447317D01*
X12019785Y-14504460D02*
X12038833Y-14513984D01*
X12038833Y-14513984D02*
X12076928Y-14513984D01*
X12076928Y-14513984D02*
X12095975Y-14504460D01*
X12095975Y-14504460D02*
X12105499Y-14485412D01*
X12105499Y-14485412D02*
X12105499Y-14475888D01*
X12105499Y-14475888D02*
X12095975Y-14456841D01*
X12095975Y-14456841D02*
X12076928Y-14447317D01*
X12076928Y-14447317D02*
X12048356Y-14447317D01*
X12048356Y-14447317D02*
X12029309Y-14437793D01*
X12029309Y-14437793D02*
X12019785Y-14418746D01*
X12019785Y-14418746D02*
X12019785Y-14409222D01*
X12019785Y-14409222D02*
X12029309Y-14390174D01*
X12029309Y-14390174D02*
X12048356Y-14380650D01*
X12048356Y-14380650D02*
X12076928Y-14380650D01*
X12076928Y-14380650D02*
X12095975Y-14390174D01*
X12219785Y-14513984D02*
X12200737Y-14504460D01*
X12200737Y-14504460D02*
X12191214Y-14485412D01*
X12191214Y-14485412D02*
X12191214Y-14313984D01*
X12324547Y-14513984D02*
X12305499Y-14504460D01*
X12305499Y-14504460D02*
X12295975Y-14494936D01*
X12295975Y-14494936D02*
X12286452Y-14475888D01*
X12286452Y-14475888D02*
X12286452Y-14418746D01*
X12286452Y-14418746D02*
X12295975Y-14399698D01*
X12295975Y-14399698D02*
X12305499Y-14390174D01*
X12305499Y-14390174D02*
X12324547Y-14380650D01*
X12324547Y-14380650D02*
X12353118Y-14380650D01*
X12353118Y-14380650D02*
X12372166Y-14390174D01*
X12372166Y-14390174D02*
X12381690Y-14399698D01*
X12381690Y-14399698D02*
X12391214Y-14418746D01*
X12391214Y-14418746D02*
X12391214Y-14475888D01*
X12391214Y-14475888D02*
X12381690Y-14494936D01*
X12381690Y-14494936D02*
X12372166Y-14504460D01*
X12372166Y-14504460D02*
X12353118Y-14513984D01*
X12353118Y-14513984D02*
X12324547Y-14513984D01*
X12448356Y-14380650D02*
X12524547Y-14380650D01*
X12476928Y-14313984D02*
X12476928Y-14485412D01*
X12476928Y-14485412D02*
X12486452Y-14504460D01*
X12486452Y-14504460D02*
X12505499Y-14513984D01*
X12505499Y-14513984D02*
X12524547Y-14513984D01*
X12581690Y-14504460D02*
X12600737Y-14513984D01*
X12600737Y-14513984D02*
X12638833Y-14513984D01*
X12638833Y-14513984D02*
X12657880Y-14504460D01*
X12657880Y-14504460D02*
X12667404Y-14485412D01*
X12667404Y-14485412D02*
X12667404Y-14475888D01*
X12667404Y-14475888D02*
X12657880Y-14456841D01*
X12657880Y-14456841D02*
X12638833Y-14447317D01*
X12638833Y-14447317D02*
X12610261Y-14447317D01*
X12610261Y-14447317D02*
X12591214Y-14437793D01*
X12591214Y-14437793D02*
X12581690Y-14418746D01*
X12581690Y-14418746D02*
X12581690Y-14409222D01*
X12581690Y-14409222D02*
X12591214Y-14390174D01*
X12591214Y-14390174D02*
X12610261Y-14380650D01*
X12610261Y-14380650D02*
X12638833Y-14380650D01*
X12638833Y-14380650D02*
X12657880Y-14390174D01*
X12734071Y-14590174D02*
X12743595Y-14580650D01*
X12743595Y-14580650D02*
X12762642Y-14552079D01*
X12762642Y-14552079D02*
X12772166Y-14533031D01*
X12772166Y-14533031D02*
X12781690Y-14504460D01*
X12781690Y-14504460D02*
X12791214Y-14456841D01*
X12791214Y-14456841D02*
X12791214Y-14418746D01*
X12791214Y-14418746D02*
X12781690Y-14371127D01*
X12781690Y-14371127D02*
X12772166Y-14342555D01*
X12772166Y-14342555D02*
X12762642Y-14323508D01*
X12762642Y-14323508D02*
X12743595Y-14294936D01*
X12743595Y-14294936D02*
X12734071Y-14285412D01*
D15*
X6294960Y-14641500D02*
X6294960Y-14731500D01*
X6249960Y-14686500D02*
X6339960Y-14686500D01*
D12*
X6638832Y-14577984D02*
X6657880Y-14577984D01*
X6657880Y-14577984D02*
X6676927Y-14587508D01*
X6676927Y-14587508D02*
X6686451Y-14597031D01*
X6686451Y-14597031D02*
X6695975Y-14616079D01*
X6695975Y-14616079D02*
X6705499Y-14654174D01*
X6705499Y-14654174D02*
X6705499Y-14701793D01*
X6705499Y-14701793D02*
X6695975Y-14739888D01*
X6695975Y-14739888D02*
X6686451Y-14758936D01*
X6686451Y-14758936D02*
X6676927Y-14768460D01*
X6676927Y-14768460D02*
X6657880Y-14777984D01*
X6657880Y-14777984D02*
X6638832Y-14777984D01*
X6638832Y-14777984D02*
X6619784Y-14768460D01*
X6619784Y-14768460D02*
X6610261Y-14758936D01*
X6610261Y-14758936D02*
X6600737Y-14739888D01*
X6600737Y-14739888D02*
X6591213Y-14701793D01*
X6591213Y-14701793D02*
X6591213Y-14654174D01*
X6591213Y-14654174D02*
X6600737Y-14616079D01*
X6600737Y-14616079D02*
X6610261Y-14597031D01*
X6610261Y-14597031D02*
X6619784Y-14587508D01*
X6619784Y-14587508D02*
X6638832Y-14577984D01*
X6791213Y-14758936D02*
X6800737Y-14768460D01*
X6800737Y-14768460D02*
X6791213Y-14777984D01*
X6791213Y-14777984D02*
X6781689Y-14768460D01*
X6781689Y-14768460D02*
X6791213Y-14758936D01*
X6791213Y-14758936D02*
X6791213Y-14777984D01*
X6895975Y-14777984D02*
X6934070Y-14777984D01*
X6934070Y-14777984D02*
X6953118Y-14768460D01*
X6953118Y-14768460D02*
X6962642Y-14758936D01*
X6962642Y-14758936D02*
X6981689Y-14730365D01*
X6981689Y-14730365D02*
X6991213Y-14692269D01*
X6991213Y-14692269D02*
X6991213Y-14616079D01*
X6991213Y-14616079D02*
X6981689Y-14597031D01*
X6981689Y-14597031D02*
X6972165Y-14587508D01*
X6972165Y-14587508D02*
X6953118Y-14577984D01*
X6953118Y-14577984D02*
X6915022Y-14577984D01*
X6915022Y-14577984D02*
X6895975Y-14587508D01*
X6895975Y-14587508D02*
X6886451Y-14597031D01*
X6886451Y-14597031D02*
X6876927Y-14616079D01*
X6876927Y-14616079D02*
X6876927Y-14663698D01*
X6876927Y-14663698D02*
X6886451Y-14682746D01*
X6886451Y-14682746D02*
X6895975Y-14692269D01*
X6895975Y-14692269D02*
X6915022Y-14701793D01*
X6915022Y-14701793D02*
X6953118Y-14701793D01*
X6953118Y-14701793D02*
X6972165Y-14692269D01*
X6972165Y-14692269D02*
X6981689Y-14682746D01*
X6981689Y-14682746D02*
X6991213Y-14663698D01*
X7115022Y-14577984D02*
X7134070Y-14577984D01*
X7134070Y-14577984D02*
X7153118Y-14587508D01*
X7153118Y-14587508D02*
X7162642Y-14597031D01*
X7162642Y-14597031D02*
X7172165Y-14616079D01*
X7172165Y-14616079D02*
X7181689Y-14654174D01*
X7181689Y-14654174D02*
X7181689Y-14701793D01*
X7181689Y-14701793D02*
X7172165Y-14739888D01*
X7172165Y-14739888D02*
X7162642Y-14758936D01*
X7162642Y-14758936D02*
X7153118Y-14768460D01*
X7153118Y-14768460D02*
X7134070Y-14777984D01*
X7134070Y-14777984D02*
X7115022Y-14777984D01*
X7115022Y-14777984D02*
X7095975Y-14768460D01*
X7095975Y-14768460D02*
X7086451Y-14758936D01*
X7086451Y-14758936D02*
X7076927Y-14739888D01*
X7076927Y-14739888D02*
X7067403Y-14701793D01*
X7067403Y-14701793D02*
X7067403Y-14654174D01*
X7067403Y-14654174D02*
X7076927Y-14616079D01*
X7076927Y-14616079D02*
X7086451Y-14597031D01*
X7086451Y-14597031D02*
X7095975Y-14587508D01*
X7095975Y-14587508D02*
X7115022Y-14577984D01*
X7305499Y-14577984D02*
X7324546Y-14577984D01*
X7324546Y-14577984D02*
X7343594Y-14587508D01*
X7343594Y-14587508D02*
X7353118Y-14597031D01*
X7353118Y-14597031D02*
X7362642Y-14616079D01*
X7362642Y-14616079D02*
X7372165Y-14654174D01*
X7372165Y-14654174D02*
X7372165Y-14701793D01*
X7372165Y-14701793D02*
X7362642Y-14739888D01*
X7362642Y-14739888D02*
X7353118Y-14758936D01*
X7353118Y-14758936D02*
X7343594Y-14768460D01*
X7343594Y-14768460D02*
X7324546Y-14777984D01*
X7324546Y-14777984D02*
X7305499Y-14777984D01*
X7305499Y-14777984D02*
X7286451Y-14768460D01*
X7286451Y-14768460D02*
X7276927Y-14758936D01*
X7276927Y-14758936D02*
X7267403Y-14739888D01*
X7267403Y-14739888D02*
X7257880Y-14701793D01*
X7257880Y-14701793D02*
X7257880Y-14654174D01*
X7257880Y-14654174D02*
X7267403Y-14616079D01*
X7267403Y-14616079D02*
X7276927Y-14597031D01*
X7276927Y-14597031D02*
X7286451Y-14587508D01*
X7286451Y-14587508D02*
X7305499Y-14577984D01*
X7457880Y-14777984D02*
X7457880Y-14644650D01*
X7457880Y-14663698D02*
X7467403Y-14654174D01*
X7467403Y-14654174D02*
X7486451Y-14644650D01*
X7486451Y-14644650D02*
X7515023Y-14644650D01*
X7515023Y-14644650D02*
X7534070Y-14654174D01*
X7534070Y-14654174D02*
X7543594Y-14673222D01*
X7543594Y-14673222D02*
X7543594Y-14777984D01*
X7543594Y-14673222D02*
X7553118Y-14654174D01*
X7553118Y-14654174D02*
X7572165Y-14644650D01*
X7572165Y-14644650D02*
X7600737Y-14644650D01*
X7600737Y-14644650D02*
X7619784Y-14654174D01*
X7619784Y-14654174D02*
X7629308Y-14673222D01*
X7629308Y-14673222D02*
X7629308Y-14777984D01*
X7724546Y-14777984D02*
X7724546Y-14644650D01*
X7724546Y-14663698D02*
X7734070Y-14654174D01*
X7734070Y-14654174D02*
X7753118Y-14644650D01*
X7753118Y-14644650D02*
X7781689Y-14644650D01*
X7781689Y-14644650D02*
X7800737Y-14654174D01*
X7800737Y-14654174D02*
X7810261Y-14673222D01*
X7810261Y-14673222D02*
X7810261Y-14777984D01*
X7810261Y-14673222D02*
X7819784Y-14654174D01*
X7819784Y-14654174D02*
X7838832Y-14644650D01*
X7838832Y-14644650D02*
X7867403Y-14644650D01*
X7867403Y-14644650D02*
X7886451Y-14654174D01*
X7886451Y-14654174D02*
X7895975Y-14673222D01*
X7895975Y-14673222D02*
X7895975Y-14777984D01*
X8286451Y-14568460D02*
X8115023Y-14825603D01*
X8543594Y-14577984D02*
X8562642Y-14577984D01*
X8562642Y-14577984D02*
X8581689Y-14587508D01*
X8581689Y-14587508D02*
X8591213Y-14597031D01*
X8591213Y-14597031D02*
X8600737Y-14616079D01*
X8600737Y-14616079D02*
X8610261Y-14654174D01*
X8610261Y-14654174D02*
X8610261Y-14701793D01*
X8610261Y-14701793D02*
X8600737Y-14739888D01*
X8600737Y-14739888D02*
X8591213Y-14758936D01*
X8591213Y-14758936D02*
X8581689Y-14768460D01*
X8581689Y-14768460D02*
X8562642Y-14777984D01*
X8562642Y-14777984D02*
X8543594Y-14777984D01*
X8543594Y-14777984D02*
X8524547Y-14768460D01*
X8524547Y-14768460D02*
X8515023Y-14758936D01*
X8515023Y-14758936D02*
X8505499Y-14739888D01*
X8505499Y-14739888D02*
X8495975Y-14701793D01*
X8495975Y-14701793D02*
X8495975Y-14654174D01*
X8495975Y-14654174D02*
X8505499Y-14616079D01*
X8505499Y-14616079D02*
X8515023Y-14597031D01*
X8515023Y-14597031D02*
X8524547Y-14587508D01*
X8524547Y-14587508D02*
X8543594Y-14577984D01*
X8695975Y-14758936D02*
X8705499Y-14768460D01*
X8705499Y-14768460D02*
X8695975Y-14777984D01*
X8695975Y-14777984D02*
X8686451Y-14768460D01*
X8686451Y-14768460D02*
X8695975Y-14758936D01*
X8695975Y-14758936D02*
X8695975Y-14777984D01*
X8829308Y-14577984D02*
X8848356Y-14577984D01*
X8848356Y-14577984D02*
X8867404Y-14587508D01*
X8867404Y-14587508D02*
X8876928Y-14597031D01*
X8876928Y-14597031D02*
X8886451Y-14616079D01*
X8886451Y-14616079D02*
X8895975Y-14654174D01*
X8895975Y-14654174D02*
X8895975Y-14701793D01*
X8895975Y-14701793D02*
X8886451Y-14739888D01*
X8886451Y-14739888D02*
X8876928Y-14758936D01*
X8876928Y-14758936D02*
X8867404Y-14768460D01*
X8867404Y-14768460D02*
X8848356Y-14777984D01*
X8848356Y-14777984D02*
X8829308Y-14777984D01*
X8829308Y-14777984D02*
X8810261Y-14768460D01*
X8810261Y-14768460D02*
X8800737Y-14758936D01*
X8800737Y-14758936D02*
X8791213Y-14739888D01*
X8791213Y-14739888D02*
X8781689Y-14701793D01*
X8781689Y-14701793D02*
X8781689Y-14654174D01*
X8781689Y-14654174D02*
X8791213Y-14616079D01*
X8791213Y-14616079D02*
X8800737Y-14597031D01*
X8800737Y-14597031D02*
X8810261Y-14587508D01*
X8810261Y-14587508D02*
X8829308Y-14577984D01*
X8962642Y-14577984D02*
X9086451Y-14577984D01*
X9086451Y-14577984D02*
X9019785Y-14654174D01*
X9019785Y-14654174D02*
X9048356Y-14654174D01*
X9048356Y-14654174D02*
X9067404Y-14663698D01*
X9067404Y-14663698D02*
X9076928Y-14673222D01*
X9076928Y-14673222D02*
X9086451Y-14692269D01*
X9086451Y-14692269D02*
X9086451Y-14739888D01*
X9086451Y-14739888D02*
X9076928Y-14758936D01*
X9076928Y-14758936D02*
X9067404Y-14768460D01*
X9067404Y-14768460D02*
X9048356Y-14777984D01*
X9048356Y-14777984D02*
X8991213Y-14777984D01*
X8991213Y-14777984D02*
X8972166Y-14768460D01*
X8972166Y-14768460D02*
X8962642Y-14758936D01*
X9267404Y-14577984D02*
X9172166Y-14577984D01*
X9172166Y-14577984D02*
X9162642Y-14673222D01*
X9162642Y-14673222D02*
X9172166Y-14663698D01*
X9172166Y-14663698D02*
X9191213Y-14654174D01*
X9191213Y-14654174D02*
X9238832Y-14654174D01*
X9238832Y-14654174D02*
X9257880Y-14663698D01*
X9257880Y-14663698D02*
X9267404Y-14673222D01*
X9267404Y-14673222D02*
X9276928Y-14692269D01*
X9276928Y-14692269D02*
X9276928Y-14739888D01*
X9276928Y-14739888D02*
X9267404Y-14758936D01*
X9267404Y-14758936D02*
X9257880Y-14768460D01*
X9257880Y-14768460D02*
X9238832Y-14777984D01*
X9238832Y-14777984D02*
X9191213Y-14777984D01*
X9191213Y-14777984D02*
X9172166Y-14768460D01*
X9172166Y-14768460D02*
X9162642Y-14758936D01*
X9448356Y-14644650D02*
X9448356Y-14777984D01*
X9400737Y-14568460D02*
X9353118Y-14711317D01*
X9353118Y-14711317D02*
X9476928Y-14711317D01*
X9543594Y-14577984D02*
X9543594Y-14616079D01*
X9619785Y-14577984D02*
X9619785Y-14616079D01*
X9915023Y-14854174D02*
X9905499Y-14844650D01*
X9905499Y-14844650D02*
X9886451Y-14816079D01*
X9886451Y-14816079D02*
X9876928Y-14797031D01*
X9876928Y-14797031D02*
X9867404Y-14768460D01*
X9867404Y-14768460D02*
X9857880Y-14720841D01*
X9857880Y-14720841D02*
X9857880Y-14682746D01*
X9857880Y-14682746D02*
X9867404Y-14635127D01*
X9867404Y-14635127D02*
X9876928Y-14606555D01*
X9876928Y-14606555D02*
X9886451Y-14587508D01*
X9886451Y-14587508D02*
X9905499Y-14558936D01*
X9905499Y-14558936D02*
X9915023Y-14549412D01*
X10029309Y-14577984D02*
X10048356Y-14577984D01*
X10048356Y-14577984D02*
X10067404Y-14587508D01*
X10067404Y-14587508D02*
X10076928Y-14597031D01*
X10076928Y-14597031D02*
X10086451Y-14616079D01*
X10086451Y-14616079D02*
X10095975Y-14654174D01*
X10095975Y-14654174D02*
X10095975Y-14701793D01*
X10095975Y-14701793D02*
X10086451Y-14739888D01*
X10086451Y-14739888D02*
X10076928Y-14758936D01*
X10076928Y-14758936D02*
X10067404Y-14768460D01*
X10067404Y-14768460D02*
X10048356Y-14777984D01*
X10048356Y-14777984D02*
X10029309Y-14777984D01*
X10029309Y-14777984D02*
X10010261Y-14768460D01*
X10010261Y-14768460D02*
X10000737Y-14758936D01*
X10000737Y-14758936D02*
X9991213Y-14739888D01*
X9991213Y-14739888D02*
X9981690Y-14701793D01*
X9981690Y-14701793D02*
X9981690Y-14654174D01*
X9981690Y-14654174D02*
X9991213Y-14616079D01*
X9991213Y-14616079D02*
X10000737Y-14597031D01*
X10000737Y-14597031D02*
X10010261Y-14587508D01*
X10010261Y-14587508D02*
X10029309Y-14577984D01*
X10334071Y-14777984D02*
X10334071Y-14577984D01*
X10419785Y-14777984D02*
X10419785Y-14673222D01*
X10419785Y-14673222D02*
X10410261Y-14654174D01*
X10410261Y-14654174D02*
X10391213Y-14644650D01*
X10391213Y-14644650D02*
X10362642Y-14644650D01*
X10362642Y-14644650D02*
X10343594Y-14654174D01*
X10343594Y-14654174D02*
X10334071Y-14663698D01*
X10543594Y-14777984D02*
X10524547Y-14768460D01*
X10524547Y-14768460D02*
X10515023Y-14758936D01*
X10515023Y-14758936D02*
X10505499Y-14739888D01*
X10505499Y-14739888D02*
X10505499Y-14682746D01*
X10505499Y-14682746D02*
X10515023Y-14663698D01*
X10515023Y-14663698D02*
X10524547Y-14654174D01*
X10524547Y-14654174D02*
X10543594Y-14644650D01*
X10543594Y-14644650D02*
X10572166Y-14644650D01*
X10572166Y-14644650D02*
X10591213Y-14654174D01*
X10591213Y-14654174D02*
X10600737Y-14663698D01*
X10600737Y-14663698D02*
X10610261Y-14682746D01*
X10610261Y-14682746D02*
X10610261Y-14739888D01*
X10610261Y-14739888D02*
X10600737Y-14758936D01*
X10600737Y-14758936D02*
X10591213Y-14768460D01*
X10591213Y-14768460D02*
X10572166Y-14777984D01*
X10572166Y-14777984D02*
X10543594Y-14777984D01*
X10724547Y-14777984D02*
X10705499Y-14768460D01*
X10705499Y-14768460D02*
X10695975Y-14749412D01*
X10695975Y-14749412D02*
X10695975Y-14577984D01*
X10876928Y-14768460D02*
X10857880Y-14777984D01*
X10857880Y-14777984D02*
X10819785Y-14777984D01*
X10819785Y-14777984D02*
X10800737Y-14768460D01*
X10800737Y-14768460D02*
X10791213Y-14749412D01*
X10791213Y-14749412D02*
X10791213Y-14673222D01*
X10791213Y-14673222D02*
X10800737Y-14654174D01*
X10800737Y-14654174D02*
X10819785Y-14644650D01*
X10819785Y-14644650D02*
X10857880Y-14644650D01*
X10857880Y-14644650D02*
X10876928Y-14654174D01*
X10876928Y-14654174D02*
X10886452Y-14673222D01*
X10886452Y-14673222D02*
X10886452Y-14692269D01*
X10886452Y-14692269D02*
X10791213Y-14711317D01*
X10962642Y-14768460D02*
X10981690Y-14777984D01*
X10981690Y-14777984D02*
X11019785Y-14777984D01*
X11019785Y-14777984D02*
X11038833Y-14768460D01*
X11038833Y-14768460D02*
X11048356Y-14749412D01*
X11048356Y-14749412D02*
X11048356Y-14739888D01*
X11048356Y-14739888D02*
X11038833Y-14720841D01*
X11038833Y-14720841D02*
X11019785Y-14711317D01*
X11019785Y-14711317D02*
X10991213Y-14711317D01*
X10991213Y-14711317D02*
X10972166Y-14701793D01*
X10972166Y-14701793D02*
X10962642Y-14682746D01*
X10962642Y-14682746D02*
X10962642Y-14673222D01*
X10962642Y-14673222D02*
X10972166Y-14654174D01*
X10972166Y-14654174D02*
X10991213Y-14644650D01*
X10991213Y-14644650D02*
X11019785Y-14644650D01*
X11019785Y-14644650D02*
X11038833Y-14654174D01*
X11286452Y-14701793D02*
X11438833Y-14701793D01*
X11362642Y-14777984D02*
X11362642Y-14625603D01*
X11715023Y-14663698D02*
X11695975Y-14654174D01*
X11695975Y-14654174D02*
X11686452Y-14644650D01*
X11686452Y-14644650D02*
X11676928Y-14625603D01*
X11676928Y-14625603D02*
X11676928Y-14616079D01*
X11676928Y-14616079D02*
X11686452Y-14597031D01*
X11686452Y-14597031D02*
X11695975Y-14587508D01*
X11695975Y-14587508D02*
X11715023Y-14577984D01*
X11715023Y-14577984D02*
X11753118Y-14577984D01*
X11753118Y-14577984D02*
X11772166Y-14587508D01*
X11772166Y-14587508D02*
X11781690Y-14597031D01*
X11781690Y-14597031D02*
X11791213Y-14616079D01*
X11791213Y-14616079D02*
X11791213Y-14625603D01*
X11791213Y-14625603D02*
X11781690Y-14644650D01*
X11781690Y-14644650D02*
X11772166Y-14654174D01*
X11772166Y-14654174D02*
X11753118Y-14663698D01*
X11753118Y-14663698D02*
X11715023Y-14663698D01*
X11715023Y-14663698D02*
X11695975Y-14673222D01*
X11695975Y-14673222D02*
X11686452Y-14682746D01*
X11686452Y-14682746D02*
X11676928Y-14701793D01*
X11676928Y-14701793D02*
X11676928Y-14739888D01*
X11676928Y-14739888D02*
X11686452Y-14758936D01*
X11686452Y-14758936D02*
X11695975Y-14768460D01*
X11695975Y-14768460D02*
X11715023Y-14777984D01*
X11715023Y-14777984D02*
X11753118Y-14777984D01*
X11753118Y-14777984D02*
X11772166Y-14768460D01*
X11772166Y-14768460D02*
X11781690Y-14758936D01*
X11781690Y-14758936D02*
X11791213Y-14739888D01*
X11791213Y-14739888D02*
X11791213Y-14701793D01*
X11791213Y-14701793D02*
X11781690Y-14682746D01*
X11781690Y-14682746D02*
X11772166Y-14673222D01*
X11772166Y-14673222D02*
X11753118Y-14663698D01*
X12019785Y-14768460D02*
X12038833Y-14777984D01*
X12038833Y-14777984D02*
X12076928Y-14777984D01*
X12076928Y-14777984D02*
X12095975Y-14768460D01*
X12095975Y-14768460D02*
X12105499Y-14749412D01*
X12105499Y-14749412D02*
X12105499Y-14739888D01*
X12105499Y-14739888D02*
X12095975Y-14720841D01*
X12095975Y-14720841D02*
X12076928Y-14711317D01*
X12076928Y-14711317D02*
X12048356Y-14711317D01*
X12048356Y-14711317D02*
X12029309Y-14701793D01*
X12029309Y-14701793D02*
X12019785Y-14682746D01*
X12019785Y-14682746D02*
X12019785Y-14673222D01*
X12019785Y-14673222D02*
X12029309Y-14654174D01*
X12029309Y-14654174D02*
X12048356Y-14644650D01*
X12048356Y-14644650D02*
X12076928Y-14644650D01*
X12076928Y-14644650D02*
X12095975Y-14654174D01*
X12219785Y-14777984D02*
X12200737Y-14768460D01*
X12200737Y-14768460D02*
X12191214Y-14749412D01*
X12191214Y-14749412D02*
X12191214Y-14577984D01*
X12324547Y-14777984D02*
X12305499Y-14768460D01*
X12305499Y-14768460D02*
X12295975Y-14758936D01*
X12295975Y-14758936D02*
X12286452Y-14739888D01*
X12286452Y-14739888D02*
X12286452Y-14682746D01*
X12286452Y-14682746D02*
X12295975Y-14663698D01*
X12295975Y-14663698D02*
X12305499Y-14654174D01*
X12305499Y-14654174D02*
X12324547Y-14644650D01*
X12324547Y-14644650D02*
X12353118Y-14644650D01*
X12353118Y-14644650D02*
X12372166Y-14654174D01*
X12372166Y-14654174D02*
X12381690Y-14663698D01*
X12381690Y-14663698D02*
X12391214Y-14682746D01*
X12391214Y-14682746D02*
X12391214Y-14739888D01*
X12391214Y-14739888D02*
X12381690Y-14758936D01*
X12381690Y-14758936D02*
X12372166Y-14768460D01*
X12372166Y-14768460D02*
X12353118Y-14777984D01*
X12353118Y-14777984D02*
X12324547Y-14777984D01*
X12448356Y-14644650D02*
X12524547Y-14644650D01*
X12476928Y-14577984D02*
X12476928Y-14749412D01*
X12476928Y-14749412D02*
X12486452Y-14768460D01*
X12486452Y-14768460D02*
X12505499Y-14777984D01*
X12505499Y-14777984D02*
X12524547Y-14777984D01*
X12581690Y-14768460D02*
X12600737Y-14777984D01*
X12600737Y-14777984D02*
X12638833Y-14777984D01*
X12638833Y-14777984D02*
X12657880Y-14768460D01*
X12657880Y-14768460D02*
X12667404Y-14749412D01*
X12667404Y-14749412D02*
X12667404Y-14739888D01*
X12667404Y-14739888D02*
X12657880Y-14720841D01*
X12657880Y-14720841D02*
X12638833Y-14711317D01*
X12638833Y-14711317D02*
X12610261Y-14711317D01*
X12610261Y-14711317D02*
X12591214Y-14701793D01*
X12591214Y-14701793D02*
X12581690Y-14682746D01*
X12581690Y-14682746D02*
X12581690Y-14673222D01*
X12581690Y-14673222D02*
X12591214Y-14654174D01*
X12591214Y-14654174D02*
X12610261Y-14644650D01*
X12610261Y-14644650D02*
X12638833Y-14644650D01*
X12638833Y-14644650D02*
X12657880Y-14654174D01*
X12734071Y-14854174D02*
X12743595Y-14844650D01*
X12743595Y-14844650D02*
X12762642Y-14816079D01*
X12762642Y-14816079D02*
X12772166Y-14797031D01*
X12772166Y-14797031D02*
X12781690Y-14768460D01*
X12781690Y-14768460D02*
X12791214Y-14720841D01*
X12791214Y-14720841D02*
X12791214Y-14682746D01*
X12791214Y-14682746D02*
X12781690Y-14635127D01*
X12781690Y-14635127D02*
X12772166Y-14606555D01*
X12772166Y-14606555D02*
X12762642Y-14587508D01*
X12762642Y-14587508D02*
X12743595Y-14558936D01*
X12743595Y-14558936D02*
X12734071Y-14549412D01*
D16*
X6325316Y-14985856D02*
X6325316Y-14915144D01*
X6254604Y-14915144D01*
X6254604Y-14985856D01*
X6325316Y-14985856D01*
D12*
X6705499Y-15041984D02*
X6591213Y-15041984D01*
X6648356Y-15041984D02*
X6648356Y-14841984D01*
X6648356Y-14841984D02*
X6629308Y-14870555D01*
X6629308Y-14870555D02*
X6610261Y-14889603D01*
X6610261Y-14889603D02*
X6591213Y-14899127D01*
X6791213Y-15022936D02*
X6800737Y-15032460D01*
X6800737Y-15032460D02*
X6791213Y-15041984D01*
X6791213Y-15041984D02*
X6781689Y-15032460D01*
X6781689Y-15032460D02*
X6791213Y-15022936D01*
X6791213Y-15022936D02*
X6791213Y-15041984D01*
X6924546Y-14841984D02*
X6943594Y-14841984D01*
X6943594Y-14841984D02*
X6962642Y-14851508D01*
X6962642Y-14851508D02*
X6972165Y-14861031D01*
X6972165Y-14861031D02*
X6981689Y-14880079D01*
X6981689Y-14880079D02*
X6991213Y-14918174D01*
X6991213Y-14918174D02*
X6991213Y-14965793D01*
X6991213Y-14965793D02*
X6981689Y-15003888D01*
X6981689Y-15003888D02*
X6972165Y-15022936D01*
X6972165Y-15022936D02*
X6962642Y-15032460D01*
X6962642Y-15032460D02*
X6943594Y-15041984D01*
X6943594Y-15041984D02*
X6924546Y-15041984D01*
X6924546Y-15041984D02*
X6905499Y-15032460D01*
X6905499Y-15032460D02*
X6895975Y-15022936D01*
X6895975Y-15022936D02*
X6886451Y-15003888D01*
X6886451Y-15003888D02*
X6876927Y-14965793D01*
X6876927Y-14965793D02*
X6876927Y-14918174D01*
X6876927Y-14918174D02*
X6886451Y-14880079D01*
X6886451Y-14880079D02*
X6895975Y-14861031D01*
X6895975Y-14861031D02*
X6905499Y-14851508D01*
X6905499Y-14851508D02*
X6924546Y-14841984D01*
X7115022Y-14841984D02*
X7134070Y-14841984D01*
X7134070Y-14841984D02*
X7153118Y-14851508D01*
X7153118Y-14851508D02*
X7162642Y-14861031D01*
X7162642Y-14861031D02*
X7172165Y-14880079D01*
X7172165Y-14880079D02*
X7181689Y-14918174D01*
X7181689Y-14918174D02*
X7181689Y-14965793D01*
X7181689Y-14965793D02*
X7172165Y-15003888D01*
X7172165Y-15003888D02*
X7162642Y-15022936D01*
X7162642Y-15022936D02*
X7153118Y-15032460D01*
X7153118Y-15032460D02*
X7134070Y-15041984D01*
X7134070Y-15041984D02*
X7115022Y-15041984D01*
X7115022Y-15041984D02*
X7095975Y-15032460D01*
X7095975Y-15032460D02*
X7086451Y-15022936D01*
X7086451Y-15022936D02*
X7076927Y-15003888D01*
X7076927Y-15003888D02*
X7067403Y-14965793D01*
X7067403Y-14965793D02*
X7067403Y-14918174D01*
X7067403Y-14918174D02*
X7076927Y-14880079D01*
X7076927Y-14880079D02*
X7086451Y-14861031D01*
X7086451Y-14861031D02*
X7095975Y-14851508D01*
X7095975Y-14851508D02*
X7115022Y-14841984D01*
X7305499Y-14841984D02*
X7324546Y-14841984D01*
X7324546Y-14841984D02*
X7343594Y-14851508D01*
X7343594Y-14851508D02*
X7353118Y-14861031D01*
X7353118Y-14861031D02*
X7362642Y-14880079D01*
X7362642Y-14880079D02*
X7372165Y-14918174D01*
X7372165Y-14918174D02*
X7372165Y-14965793D01*
X7372165Y-14965793D02*
X7362642Y-15003888D01*
X7362642Y-15003888D02*
X7353118Y-15022936D01*
X7353118Y-15022936D02*
X7343594Y-15032460D01*
X7343594Y-15032460D02*
X7324546Y-15041984D01*
X7324546Y-15041984D02*
X7305499Y-15041984D01*
X7305499Y-15041984D02*
X7286451Y-15032460D01*
X7286451Y-15032460D02*
X7276927Y-15022936D01*
X7276927Y-15022936D02*
X7267403Y-15003888D01*
X7267403Y-15003888D02*
X7257880Y-14965793D01*
X7257880Y-14965793D02*
X7257880Y-14918174D01*
X7257880Y-14918174D02*
X7267403Y-14880079D01*
X7267403Y-14880079D02*
X7276927Y-14861031D01*
X7276927Y-14861031D02*
X7286451Y-14851508D01*
X7286451Y-14851508D02*
X7305499Y-14841984D01*
X7457880Y-15041984D02*
X7457880Y-14908650D01*
X7457880Y-14927698D02*
X7467403Y-14918174D01*
X7467403Y-14918174D02*
X7486451Y-14908650D01*
X7486451Y-14908650D02*
X7515023Y-14908650D01*
X7515023Y-14908650D02*
X7534070Y-14918174D01*
X7534070Y-14918174D02*
X7543594Y-14937222D01*
X7543594Y-14937222D02*
X7543594Y-15041984D01*
X7543594Y-14937222D02*
X7553118Y-14918174D01*
X7553118Y-14918174D02*
X7572165Y-14908650D01*
X7572165Y-14908650D02*
X7600737Y-14908650D01*
X7600737Y-14908650D02*
X7619784Y-14918174D01*
X7619784Y-14918174D02*
X7629308Y-14937222D01*
X7629308Y-14937222D02*
X7629308Y-15041984D01*
X7724546Y-15041984D02*
X7724546Y-14908650D01*
X7724546Y-14927698D02*
X7734070Y-14918174D01*
X7734070Y-14918174D02*
X7753118Y-14908650D01*
X7753118Y-14908650D02*
X7781689Y-14908650D01*
X7781689Y-14908650D02*
X7800737Y-14918174D01*
X7800737Y-14918174D02*
X7810261Y-14937222D01*
X7810261Y-14937222D02*
X7810261Y-15041984D01*
X7810261Y-14937222D02*
X7819784Y-14918174D01*
X7819784Y-14918174D02*
X7838832Y-14908650D01*
X7838832Y-14908650D02*
X7867403Y-14908650D01*
X7867403Y-14908650D02*
X7886451Y-14918174D01*
X7886451Y-14918174D02*
X7895975Y-14937222D01*
X7895975Y-14937222D02*
X7895975Y-15041984D01*
X8286451Y-14832460D02*
X8115023Y-15089603D01*
X8543594Y-14841984D02*
X8562642Y-14841984D01*
X8562642Y-14841984D02*
X8581689Y-14851508D01*
X8581689Y-14851508D02*
X8591213Y-14861031D01*
X8591213Y-14861031D02*
X8600737Y-14880079D01*
X8600737Y-14880079D02*
X8610261Y-14918174D01*
X8610261Y-14918174D02*
X8610261Y-14965793D01*
X8610261Y-14965793D02*
X8600737Y-15003888D01*
X8600737Y-15003888D02*
X8591213Y-15022936D01*
X8591213Y-15022936D02*
X8581689Y-15032460D01*
X8581689Y-15032460D02*
X8562642Y-15041984D01*
X8562642Y-15041984D02*
X8543594Y-15041984D01*
X8543594Y-15041984D02*
X8524547Y-15032460D01*
X8524547Y-15032460D02*
X8515023Y-15022936D01*
X8515023Y-15022936D02*
X8505499Y-15003888D01*
X8505499Y-15003888D02*
X8495975Y-14965793D01*
X8495975Y-14965793D02*
X8495975Y-14918174D01*
X8495975Y-14918174D02*
X8505499Y-14880079D01*
X8505499Y-14880079D02*
X8515023Y-14861031D01*
X8515023Y-14861031D02*
X8524547Y-14851508D01*
X8524547Y-14851508D02*
X8543594Y-14841984D01*
X8695975Y-15022936D02*
X8705499Y-15032460D01*
X8705499Y-15032460D02*
X8695975Y-15041984D01*
X8695975Y-15041984D02*
X8686451Y-15032460D01*
X8686451Y-15032460D02*
X8695975Y-15022936D01*
X8695975Y-15022936D02*
X8695975Y-15041984D01*
X8829308Y-14841984D02*
X8848356Y-14841984D01*
X8848356Y-14841984D02*
X8867404Y-14851508D01*
X8867404Y-14851508D02*
X8876928Y-14861031D01*
X8876928Y-14861031D02*
X8886451Y-14880079D01*
X8886451Y-14880079D02*
X8895975Y-14918174D01*
X8895975Y-14918174D02*
X8895975Y-14965793D01*
X8895975Y-14965793D02*
X8886451Y-15003888D01*
X8886451Y-15003888D02*
X8876928Y-15022936D01*
X8876928Y-15022936D02*
X8867404Y-15032460D01*
X8867404Y-15032460D02*
X8848356Y-15041984D01*
X8848356Y-15041984D02*
X8829308Y-15041984D01*
X8829308Y-15041984D02*
X8810261Y-15032460D01*
X8810261Y-15032460D02*
X8800737Y-15022936D01*
X8800737Y-15022936D02*
X8791213Y-15003888D01*
X8791213Y-15003888D02*
X8781689Y-14965793D01*
X8781689Y-14965793D02*
X8781689Y-14918174D01*
X8781689Y-14918174D02*
X8791213Y-14880079D01*
X8791213Y-14880079D02*
X8800737Y-14861031D01*
X8800737Y-14861031D02*
X8810261Y-14851508D01*
X8810261Y-14851508D02*
X8829308Y-14841984D01*
X8962642Y-14841984D02*
X9086451Y-14841984D01*
X9086451Y-14841984D02*
X9019785Y-14918174D01*
X9019785Y-14918174D02*
X9048356Y-14918174D01*
X9048356Y-14918174D02*
X9067404Y-14927698D01*
X9067404Y-14927698D02*
X9076928Y-14937222D01*
X9076928Y-14937222D02*
X9086451Y-14956269D01*
X9086451Y-14956269D02*
X9086451Y-15003888D01*
X9086451Y-15003888D02*
X9076928Y-15022936D01*
X9076928Y-15022936D02*
X9067404Y-15032460D01*
X9067404Y-15032460D02*
X9048356Y-15041984D01*
X9048356Y-15041984D02*
X8991213Y-15041984D01*
X8991213Y-15041984D02*
X8972166Y-15032460D01*
X8972166Y-15032460D02*
X8962642Y-15022936D01*
X9181689Y-15041984D02*
X9219785Y-15041984D01*
X9219785Y-15041984D02*
X9238832Y-15032460D01*
X9238832Y-15032460D02*
X9248356Y-15022936D01*
X9248356Y-15022936D02*
X9267404Y-14994365D01*
X9267404Y-14994365D02*
X9276928Y-14956269D01*
X9276928Y-14956269D02*
X9276928Y-14880079D01*
X9276928Y-14880079D02*
X9267404Y-14861031D01*
X9267404Y-14861031D02*
X9257880Y-14851508D01*
X9257880Y-14851508D02*
X9238832Y-14841984D01*
X9238832Y-14841984D02*
X9200737Y-14841984D01*
X9200737Y-14841984D02*
X9181689Y-14851508D01*
X9181689Y-14851508D02*
X9172166Y-14861031D01*
X9172166Y-14861031D02*
X9162642Y-14880079D01*
X9162642Y-14880079D02*
X9162642Y-14927698D01*
X9162642Y-14927698D02*
X9172166Y-14946746D01*
X9172166Y-14946746D02*
X9181689Y-14956269D01*
X9181689Y-14956269D02*
X9200737Y-14965793D01*
X9200737Y-14965793D02*
X9238832Y-14965793D01*
X9238832Y-14965793D02*
X9257880Y-14956269D01*
X9257880Y-14956269D02*
X9267404Y-14946746D01*
X9267404Y-14946746D02*
X9276928Y-14927698D01*
X9448356Y-14908650D02*
X9448356Y-15041984D01*
X9400737Y-14832460D02*
X9353118Y-14975317D01*
X9353118Y-14975317D02*
X9476928Y-14975317D01*
X9543594Y-14841984D02*
X9543594Y-14880079D01*
X9619785Y-14841984D02*
X9619785Y-14880079D01*
X9915023Y-15118174D02*
X9905499Y-15108650D01*
X9905499Y-15108650D02*
X9886451Y-15080079D01*
X9886451Y-15080079D02*
X9876928Y-15061031D01*
X9876928Y-15061031D02*
X9867404Y-15032460D01*
X9867404Y-15032460D02*
X9857880Y-14984841D01*
X9857880Y-14984841D02*
X9857880Y-14946746D01*
X9857880Y-14946746D02*
X9867404Y-14899127D01*
X9867404Y-14899127D02*
X9876928Y-14870555D01*
X9876928Y-14870555D02*
X9886451Y-14851508D01*
X9886451Y-14851508D02*
X9905499Y-14822936D01*
X9905499Y-14822936D02*
X9915023Y-14813412D01*
X9981690Y-14861031D02*
X9991213Y-14851508D01*
X9991213Y-14851508D02*
X10010261Y-14841984D01*
X10010261Y-14841984D02*
X10057880Y-14841984D01*
X10057880Y-14841984D02*
X10076928Y-14851508D01*
X10076928Y-14851508D02*
X10086451Y-14861031D01*
X10086451Y-14861031D02*
X10095975Y-14880079D01*
X10095975Y-14880079D02*
X10095975Y-14899127D01*
X10095975Y-14899127D02*
X10086451Y-14927698D01*
X10086451Y-14927698D02*
X9972166Y-15041984D01*
X9972166Y-15041984D02*
X10095975Y-15041984D01*
X10162642Y-14841984D02*
X10286451Y-14841984D01*
X10286451Y-14841984D02*
X10219785Y-14918174D01*
X10219785Y-14918174D02*
X10248356Y-14918174D01*
X10248356Y-14918174D02*
X10267404Y-14927698D01*
X10267404Y-14927698D02*
X10276928Y-14937222D01*
X10276928Y-14937222D02*
X10286451Y-14956269D01*
X10286451Y-14956269D02*
X10286451Y-15003888D01*
X10286451Y-15003888D02*
X10276928Y-15022936D01*
X10276928Y-15022936D02*
X10267404Y-15032460D01*
X10267404Y-15032460D02*
X10248356Y-15041984D01*
X10248356Y-15041984D02*
X10191213Y-15041984D01*
X10191213Y-15041984D02*
X10172166Y-15032460D01*
X10172166Y-15032460D02*
X10162642Y-15022936D01*
X10524547Y-15041984D02*
X10524547Y-14841984D01*
X10610261Y-15041984D02*
X10610261Y-14937222D01*
X10610261Y-14937222D02*
X10600737Y-14918174D01*
X10600737Y-14918174D02*
X10581690Y-14908650D01*
X10581690Y-14908650D02*
X10553118Y-14908650D01*
X10553118Y-14908650D02*
X10534071Y-14918174D01*
X10534071Y-14918174D02*
X10524547Y-14927698D01*
X10734071Y-15041984D02*
X10715023Y-15032460D01*
X10715023Y-15032460D02*
X10705499Y-15022936D01*
X10705499Y-15022936D02*
X10695975Y-15003888D01*
X10695975Y-15003888D02*
X10695975Y-14946746D01*
X10695975Y-14946746D02*
X10705499Y-14927698D01*
X10705499Y-14927698D02*
X10715023Y-14918174D01*
X10715023Y-14918174D02*
X10734071Y-14908650D01*
X10734071Y-14908650D02*
X10762642Y-14908650D01*
X10762642Y-14908650D02*
X10781690Y-14918174D01*
X10781690Y-14918174D02*
X10791213Y-14927698D01*
X10791213Y-14927698D02*
X10800737Y-14946746D01*
X10800737Y-14946746D02*
X10800737Y-15003888D01*
X10800737Y-15003888D02*
X10791213Y-15022936D01*
X10791213Y-15022936D02*
X10781690Y-15032460D01*
X10781690Y-15032460D02*
X10762642Y-15041984D01*
X10762642Y-15041984D02*
X10734071Y-15041984D01*
X10915023Y-15041984D02*
X10895975Y-15032460D01*
X10895975Y-15032460D02*
X10886452Y-15013412D01*
X10886452Y-15013412D02*
X10886452Y-14841984D01*
X11067404Y-15032460D02*
X11048356Y-15041984D01*
X11048356Y-15041984D02*
X11010261Y-15041984D01*
X11010261Y-15041984D02*
X10991213Y-15032460D01*
X10991213Y-15032460D02*
X10981690Y-15013412D01*
X10981690Y-15013412D02*
X10981690Y-14937222D01*
X10981690Y-14937222D02*
X10991213Y-14918174D01*
X10991213Y-14918174D02*
X11010261Y-14908650D01*
X11010261Y-14908650D02*
X11048356Y-14908650D01*
X11048356Y-14908650D02*
X11067404Y-14918174D01*
X11067404Y-14918174D02*
X11076928Y-14937222D01*
X11076928Y-14937222D02*
X11076928Y-14956269D01*
X11076928Y-14956269D02*
X10981690Y-14975317D01*
X11153118Y-15032460D02*
X11172166Y-15041984D01*
X11172166Y-15041984D02*
X11210261Y-15041984D01*
X11210261Y-15041984D02*
X11229309Y-15032460D01*
X11229309Y-15032460D02*
X11238832Y-15013412D01*
X11238832Y-15013412D02*
X11238832Y-15003888D01*
X11238832Y-15003888D02*
X11229309Y-14984841D01*
X11229309Y-14984841D02*
X11210261Y-14975317D01*
X11210261Y-14975317D02*
X11181690Y-14975317D01*
X11181690Y-14975317D02*
X11162642Y-14965793D01*
X11162642Y-14965793D02*
X11153118Y-14946746D01*
X11153118Y-14946746D02*
X11153118Y-14937222D01*
X11153118Y-14937222D02*
X11162642Y-14918174D01*
X11162642Y-14918174D02*
X11181690Y-14908650D01*
X11181690Y-14908650D02*
X11210261Y-14908650D01*
X11210261Y-14908650D02*
X11229309Y-14918174D01*
X11305499Y-15118174D02*
X11315023Y-15108650D01*
X11315023Y-15108650D02*
X11334071Y-15080079D01*
X11334071Y-15080079D02*
X11343594Y-15061031D01*
X11343594Y-15061031D02*
X11353118Y-15032460D01*
X11353118Y-15032460D02*
X11362642Y-14984841D01*
X11362642Y-14984841D02*
X11362642Y-14946746D01*
X11362642Y-14946746D02*
X11353118Y-14899127D01*
X11353118Y-14899127D02*
X11343594Y-14870555D01*
X11343594Y-14870555D02*
X11334071Y-14851508D01*
X11334071Y-14851508D02*
X11315023Y-14822936D01*
X11315023Y-14822936D02*
X11305499Y-14813412D01*
D17*
X6276460Y-15278000D02*
X6339960Y-15214500D01*
X6276460Y-15151000D01*
X6212960Y-15214500D01*
X6276460Y-15278000D01*
D12*
X6705499Y-15305984D02*
X6591213Y-15305984D01*
X6648356Y-15305984D02*
X6648356Y-15105984D01*
X6648356Y-15105984D02*
X6629308Y-15134555D01*
X6629308Y-15134555D02*
X6610261Y-15153603D01*
X6610261Y-15153603D02*
X6591213Y-15163127D01*
X6791213Y-15286936D02*
X6800737Y-15296460D01*
X6800737Y-15296460D02*
X6791213Y-15305984D01*
X6791213Y-15305984D02*
X6781689Y-15296460D01*
X6781689Y-15296460D02*
X6791213Y-15286936D01*
X6791213Y-15286936D02*
X6791213Y-15305984D01*
X6876927Y-15125031D02*
X6886451Y-15115508D01*
X6886451Y-15115508D02*
X6905499Y-15105984D01*
X6905499Y-15105984D02*
X6953118Y-15105984D01*
X6953118Y-15105984D02*
X6972165Y-15115508D01*
X6972165Y-15115508D02*
X6981689Y-15125031D01*
X6981689Y-15125031D02*
X6991213Y-15144079D01*
X6991213Y-15144079D02*
X6991213Y-15163127D01*
X6991213Y-15163127D02*
X6981689Y-15191698D01*
X6981689Y-15191698D02*
X6867403Y-15305984D01*
X6867403Y-15305984D02*
X6991213Y-15305984D01*
X7057880Y-15105984D02*
X7191213Y-15105984D01*
X7191213Y-15105984D02*
X7105499Y-15305984D01*
X7305499Y-15105984D02*
X7324546Y-15105984D01*
X7324546Y-15105984D02*
X7343594Y-15115508D01*
X7343594Y-15115508D02*
X7353118Y-15125031D01*
X7353118Y-15125031D02*
X7362642Y-15144079D01*
X7362642Y-15144079D02*
X7372165Y-15182174D01*
X7372165Y-15182174D02*
X7372165Y-15229793D01*
X7372165Y-15229793D02*
X7362642Y-15267888D01*
X7362642Y-15267888D02*
X7353118Y-15286936D01*
X7353118Y-15286936D02*
X7343594Y-15296460D01*
X7343594Y-15296460D02*
X7324546Y-15305984D01*
X7324546Y-15305984D02*
X7305499Y-15305984D01*
X7305499Y-15305984D02*
X7286451Y-15296460D01*
X7286451Y-15296460D02*
X7276927Y-15286936D01*
X7276927Y-15286936D02*
X7267403Y-15267888D01*
X7267403Y-15267888D02*
X7257880Y-15229793D01*
X7257880Y-15229793D02*
X7257880Y-15182174D01*
X7257880Y-15182174D02*
X7267403Y-15144079D01*
X7267403Y-15144079D02*
X7276927Y-15125031D01*
X7276927Y-15125031D02*
X7286451Y-15115508D01*
X7286451Y-15115508D02*
X7305499Y-15105984D01*
X7457880Y-15305984D02*
X7457880Y-15172650D01*
X7457880Y-15191698D02*
X7467403Y-15182174D01*
X7467403Y-15182174D02*
X7486451Y-15172650D01*
X7486451Y-15172650D02*
X7515023Y-15172650D01*
X7515023Y-15172650D02*
X7534070Y-15182174D01*
X7534070Y-15182174D02*
X7543594Y-15201222D01*
X7543594Y-15201222D02*
X7543594Y-15305984D01*
X7543594Y-15201222D02*
X7553118Y-15182174D01*
X7553118Y-15182174D02*
X7572165Y-15172650D01*
X7572165Y-15172650D02*
X7600737Y-15172650D01*
X7600737Y-15172650D02*
X7619784Y-15182174D01*
X7619784Y-15182174D02*
X7629308Y-15201222D01*
X7629308Y-15201222D02*
X7629308Y-15305984D01*
X7724546Y-15305984D02*
X7724546Y-15172650D01*
X7724546Y-15191698D02*
X7734070Y-15182174D01*
X7734070Y-15182174D02*
X7753118Y-15172650D01*
X7753118Y-15172650D02*
X7781689Y-15172650D01*
X7781689Y-15172650D02*
X7800737Y-15182174D01*
X7800737Y-15182174D02*
X7810261Y-15201222D01*
X7810261Y-15201222D02*
X7810261Y-15305984D01*
X7810261Y-15201222D02*
X7819784Y-15182174D01*
X7819784Y-15182174D02*
X7838832Y-15172650D01*
X7838832Y-15172650D02*
X7867403Y-15172650D01*
X7867403Y-15172650D02*
X7886451Y-15182174D01*
X7886451Y-15182174D02*
X7895975Y-15201222D01*
X7895975Y-15201222D02*
X7895975Y-15305984D01*
X8286451Y-15096460D02*
X8115023Y-15353603D01*
X8543594Y-15105984D02*
X8562642Y-15105984D01*
X8562642Y-15105984D02*
X8581689Y-15115508D01*
X8581689Y-15115508D02*
X8591213Y-15125031D01*
X8591213Y-15125031D02*
X8600737Y-15144079D01*
X8600737Y-15144079D02*
X8610261Y-15182174D01*
X8610261Y-15182174D02*
X8610261Y-15229793D01*
X8610261Y-15229793D02*
X8600737Y-15267888D01*
X8600737Y-15267888D02*
X8591213Y-15286936D01*
X8591213Y-15286936D02*
X8581689Y-15296460D01*
X8581689Y-15296460D02*
X8562642Y-15305984D01*
X8562642Y-15305984D02*
X8543594Y-15305984D01*
X8543594Y-15305984D02*
X8524547Y-15296460D01*
X8524547Y-15296460D02*
X8515023Y-15286936D01*
X8515023Y-15286936D02*
X8505499Y-15267888D01*
X8505499Y-15267888D02*
X8495975Y-15229793D01*
X8495975Y-15229793D02*
X8495975Y-15182174D01*
X8495975Y-15182174D02*
X8505499Y-15144079D01*
X8505499Y-15144079D02*
X8515023Y-15125031D01*
X8515023Y-15125031D02*
X8524547Y-15115508D01*
X8524547Y-15115508D02*
X8543594Y-15105984D01*
X8695975Y-15286936D02*
X8705499Y-15296460D01*
X8705499Y-15296460D02*
X8695975Y-15305984D01*
X8695975Y-15305984D02*
X8686451Y-15296460D01*
X8686451Y-15296460D02*
X8695975Y-15286936D01*
X8695975Y-15286936D02*
X8695975Y-15305984D01*
X8829308Y-15105984D02*
X8848356Y-15105984D01*
X8848356Y-15105984D02*
X8867404Y-15115508D01*
X8867404Y-15115508D02*
X8876928Y-15125031D01*
X8876928Y-15125031D02*
X8886451Y-15144079D01*
X8886451Y-15144079D02*
X8895975Y-15182174D01*
X8895975Y-15182174D02*
X8895975Y-15229793D01*
X8895975Y-15229793D02*
X8886451Y-15267888D01*
X8886451Y-15267888D02*
X8876928Y-15286936D01*
X8876928Y-15286936D02*
X8867404Y-15296460D01*
X8867404Y-15296460D02*
X8848356Y-15305984D01*
X8848356Y-15305984D02*
X8829308Y-15305984D01*
X8829308Y-15305984D02*
X8810261Y-15296460D01*
X8810261Y-15296460D02*
X8800737Y-15286936D01*
X8800737Y-15286936D02*
X8791213Y-15267888D01*
X8791213Y-15267888D02*
X8781689Y-15229793D01*
X8781689Y-15229793D02*
X8781689Y-15182174D01*
X8781689Y-15182174D02*
X8791213Y-15144079D01*
X8791213Y-15144079D02*
X8800737Y-15125031D01*
X8800737Y-15125031D02*
X8810261Y-15115508D01*
X8810261Y-15115508D02*
X8829308Y-15105984D01*
X9076928Y-15105984D02*
X8981689Y-15105984D01*
X8981689Y-15105984D02*
X8972166Y-15201222D01*
X8972166Y-15201222D02*
X8981689Y-15191698D01*
X8981689Y-15191698D02*
X9000737Y-15182174D01*
X9000737Y-15182174D02*
X9048356Y-15182174D01*
X9048356Y-15182174D02*
X9067404Y-15191698D01*
X9067404Y-15191698D02*
X9076928Y-15201222D01*
X9076928Y-15201222D02*
X9086451Y-15220269D01*
X9086451Y-15220269D02*
X9086451Y-15267888D01*
X9086451Y-15267888D02*
X9076928Y-15286936D01*
X9076928Y-15286936D02*
X9067404Y-15296460D01*
X9067404Y-15296460D02*
X9048356Y-15305984D01*
X9048356Y-15305984D02*
X9000737Y-15305984D01*
X9000737Y-15305984D02*
X8981689Y-15296460D01*
X8981689Y-15296460D02*
X8972166Y-15286936D01*
X9210261Y-15105984D02*
X9229309Y-15105984D01*
X9229309Y-15105984D02*
X9248356Y-15115508D01*
X9248356Y-15115508D02*
X9257880Y-15125031D01*
X9257880Y-15125031D02*
X9267404Y-15144079D01*
X9267404Y-15144079D02*
X9276928Y-15182174D01*
X9276928Y-15182174D02*
X9276928Y-15229793D01*
X9276928Y-15229793D02*
X9267404Y-15267888D01*
X9267404Y-15267888D02*
X9257880Y-15286936D01*
X9257880Y-15286936D02*
X9248356Y-15296460D01*
X9248356Y-15296460D02*
X9229309Y-15305984D01*
X9229309Y-15305984D02*
X9210261Y-15305984D01*
X9210261Y-15305984D02*
X9191213Y-15296460D01*
X9191213Y-15296460D02*
X9181689Y-15286936D01*
X9181689Y-15286936D02*
X9172166Y-15267888D01*
X9172166Y-15267888D02*
X9162642Y-15229793D01*
X9162642Y-15229793D02*
X9162642Y-15182174D01*
X9162642Y-15182174D02*
X9172166Y-15144079D01*
X9172166Y-15144079D02*
X9181689Y-15125031D01*
X9181689Y-15125031D02*
X9191213Y-15115508D01*
X9191213Y-15115508D02*
X9210261Y-15105984D01*
X9400737Y-15105984D02*
X9419785Y-15105984D01*
X9419785Y-15105984D02*
X9438832Y-15115508D01*
X9438832Y-15115508D02*
X9448356Y-15125031D01*
X9448356Y-15125031D02*
X9457880Y-15144079D01*
X9457880Y-15144079D02*
X9467404Y-15182174D01*
X9467404Y-15182174D02*
X9467404Y-15229793D01*
X9467404Y-15229793D02*
X9457880Y-15267888D01*
X9457880Y-15267888D02*
X9448356Y-15286936D01*
X9448356Y-15286936D02*
X9438832Y-15296460D01*
X9438832Y-15296460D02*
X9419785Y-15305984D01*
X9419785Y-15305984D02*
X9400737Y-15305984D01*
X9400737Y-15305984D02*
X9381689Y-15296460D01*
X9381689Y-15296460D02*
X9372166Y-15286936D01*
X9372166Y-15286936D02*
X9362642Y-15267888D01*
X9362642Y-15267888D02*
X9353118Y-15229793D01*
X9353118Y-15229793D02*
X9353118Y-15182174D01*
X9353118Y-15182174D02*
X9362642Y-15144079D01*
X9362642Y-15144079D02*
X9372166Y-15125031D01*
X9372166Y-15125031D02*
X9381689Y-15115508D01*
X9381689Y-15115508D02*
X9400737Y-15105984D01*
X9543594Y-15105984D02*
X9543594Y-15144079D01*
X9619785Y-15105984D02*
X9619785Y-15144079D01*
X9915023Y-15382174D02*
X9905499Y-15372650D01*
X9905499Y-15372650D02*
X9886451Y-15344079D01*
X9886451Y-15344079D02*
X9876928Y-15325031D01*
X9876928Y-15325031D02*
X9867404Y-15296460D01*
X9867404Y-15296460D02*
X9857880Y-15248841D01*
X9857880Y-15248841D02*
X9857880Y-15210746D01*
X9857880Y-15210746D02*
X9867404Y-15163127D01*
X9867404Y-15163127D02*
X9876928Y-15134555D01*
X9876928Y-15134555D02*
X9886451Y-15115508D01*
X9886451Y-15115508D02*
X9905499Y-15086936D01*
X9905499Y-15086936D02*
X9915023Y-15077412D01*
X10086451Y-15105984D02*
X9991213Y-15105984D01*
X9991213Y-15105984D02*
X9981690Y-15201222D01*
X9981690Y-15201222D02*
X9991213Y-15191698D01*
X9991213Y-15191698D02*
X10010261Y-15182174D01*
X10010261Y-15182174D02*
X10057880Y-15182174D01*
X10057880Y-15182174D02*
X10076928Y-15191698D01*
X10076928Y-15191698D02*
X10086451Y-15201222D01*
X10086451Y-15201222D02*
X10095975Y-15220269D01*
X10095975Y-15220269D02*
X10095975Y-15267888D01*
X10095975Y-15267888D02*
X10086451Y-15286936D01*
X10086451Y-15286936D02*
X10076928Y-15296460D01*
X10076928Y-15296460D02*
X10057880Y-15305984D01*
X10057880Y-15305984D02*
X10010261Y-15305984D01*
X10010261Y-15305984D02*
X9991213Y-15296460D01*
X9991213Y-15296460D02*
X9981690Y-15286936D01*
X10267404Y-15172650D02*
X10267404Y-15305984D01*
X10219785Y-15096460D02*
X10172166Y-15239317D01*
X10172166Y-15239317D02*
X10295975Y-15239317D01*
X10524547Y-15305984D02*
X10524547Y-15105984D01*
X10610261Y-15305984D02*
X10610261Y-15201222D01*
X10610261Y-15201222D02*
X10600737Y-15182174D01*
X10600737Y-15182174D02*
X10581690Y-15172650D01*
X10581690Y-15172650D02*
X10553118Y-15172650D01*
X10553118Y-15172650D02*
X10534071Y-15182174D01*
X10534071Y-15182174D02*
X10524547Y-15191698D01*
X10734071Y-15305984D02*
X10715023Y-15296460D01*
X10715023Y-15296460D02*
X10705499Y-15286936D01*
X10705499Y-15286936D02*
X10695975Y-15267888D01*
X10695975Y-15267888D02*
X10695975Y-15210746D01*
X10695975Y-15210746D02*
X10705499Y-15191698D01*
X10705499Y-15191698D02*
X10715023Y-15182174D01*
X10715023Y-15182174D02*
X10734071Y-15172650D01*
X10734071Y-15172650D02*
X10762642Y-15172650D01*
X10762642Y-15172650D02*
X10781690Y-15182174D01*
X10781690Y-15182174D02*
X10791213Y-15191698D01*
X10791213Y-15191698D02*
X10800737Y-15210746D01*
X10800737Y-15210746D02*
X10800737Y-15267888D01*
X10800737Y-15267888D02*
X10791213Y-15286936D01*
X10791213Y-15286936D02*
X10781690Y-15296460D01*
X10781690Y-15296460D02*
X10762642Y-15305984D01*
X10762642Y-15305984D02*
X10734071Y-15305984D01*
X10915023Y-15305984D02*
X10895975Y-15296460D01*
X10895975Y-15296460D02*
X10886452Y-15277412D01*
X10886452Y-15277412D02*
X10886452Y-15105984D01*
X11067404Y-15296460D02*
X11048356Y-15305984D01*
X11048356Y-15305984D02*
X11010261Y-15305984D01*
X11010261Y-15305984D02*
X10991213Y-15296460D01*
X10991213Y-15296460D02*
X10981690Y-15277412D01*
X10981690Y-15277412D02*
X10981690Y-15201222D01*
X10981690Y-15201222D02*
X10991213Y-15182174D01*
X10991213Y-15182174D02*
X11010261Y-15172650D01*
X11010261Y-15172650D02*
X11048356Y-15172650D01*
X11048356Y-15172650D02*
X11067404Y-15182174D01*
X11067404Y-15182174D02*
X11076928Y-15201222D01*
X11076928Y-15201222D02*
X11076928Y-15220269D01*
X11076928Y-15220269D02*
X10981690Y-15239317D01*
X11153118Y-15296460D02*
X11172166Y-15305984D01*
X11172166Y-15305984D02*
X11210261Y-15305984D01*
X11210261Y-15305984D02*
X11229309Y-15296460D01*
X11229309Y-15296460D02*
X11238832Y-15277412D01*
X11238832Y-15277412D02*
X11238832Y-15267888D01*
X11238832Y-15267888D02*
X11229309Y-15248841D01*
X11229309Y-15248841D02*
X11210261Y-15239317D01*
X11210261Y-15239317D02*
X11181690Y-15239317D01*
X11181690Y-15239317D02*
X11162642Y-15229793D01*
X11162642Y-15229793D02*
X11153118Y-15210746D01*
X11153118Y-15210746D02*
X11153118Y-15201222D01*
X11153118Y-15201222D02*
X11162642Y-15182174D01*
X11162642Y-15182174D02*
X11181690Y-15172650D01*
X11181690Y-15172650D02*
X11210261Y-15172650D01*
X11210261Y-15172650D02*
X11229309Y-15182174D01*
X11305499Y-15382174D02*
X11315023Y-15372650D01*
X11315023Y-15372650D02*
X11334071Y-15344079D01*
X11334071Y-15344079D02*
X11343594Y-15325031D01*
X11343594Y-15325031D02*
X11353118Y-15296460D01*
X11353118Y-15296460D02*
X11362642Y-15248841D01*
X11362642Y-15248841D02*
X11362642Y-15210746D01*
X11362642Y-15210746D02*
X11353118Y-15163127D01*
X11353118Y-15163127D02*
X11343594Y-15134555D01*
X11343594Y-15134555D02*
X11334071Y-15115508D01*
X11334071Y-15115508D02*
X11315023Y-15086936D01*
X11315023Y-15086936D02*
X11305499Y-15077412D01*
M02*
