M48
; DRILL file {KiCad 7.0.6} date Wed Nov 22 12:36:22 2023
; FORMAT={-:-/ absolute / inch / decimal}
; #@! TF.CreationDate,2023-11-22T12:36:22+08:00
; #@! TF.GenerationSoftware,Kicad,Pcbnew,7.0.6
; #@! TF.FileFunction,NonPlated,1,2,NPTH
FMAT,2
INCH
; #@! TA.AperFunction,NonPlated,NPTH,ComponentDrill
T1C0.0315
; #@! TA.AperFunction,NonPlated,NPTH,ComponentDrill
T2C0.0670
; #@! TA.AperFunction,NonPlated,NPTH,ComponentDrill
T3C0.1350
%
G90
G05
T1
X3.6213Y-1.5224
X3.6213Y-1.798
T2
X2.6361Y-2.7144
X2.6361Y-3.3837
X2.6361Y-4.0529
X3.0692Y-2.7144
X3.0692Y-3.3837
X3.0692Y-4.0529
X3.3448Y-2.3151
X3.3448Y-2.9844
X3.3448Y-3.6537
X3.7779Y-2.3151
X3.7779Y-2.9844
X3.7779Y-3.6537
X4.0535Y-2.0451
X4.0535Y-2.7144
X4.0535Y-3.3837
X4.0535Y-4.0529
X4.4865Y-2.0451
X4.4865Y-2.7144
X4.4865Y-3.3837
X4.4865Y-4.0529
X4.7621Y-2.3049
X4.7621Y-2.9742
X4.7621Y-3.6435
X5.1952Y-2.3049
X5.1952Y-2.9742
X5.1952Y-3.6435
X5.4306Y-4.5931
X5.4708Y-2.4506
X5.4708Y-3.1199
X5.4708Y-3.7892
X5.813Y-4.7965
X5.9039Y-2.4506
X5.9039Y-3.1199
X5.9039Y-3.7892
X6.0557Y-4.9267
X6.438Y-5.13
T3
X2.8527Y-2.7144
X2.8527Y-3.3837
X2.8527Y-4.0529
X3.5613Y-2.3151
X3.5613Y-2.9844
X3.5613Y-3.6537
X4.27Y-2.0451
X4.27Y-2.7144
X4.27Y-3.3837
X4.27Y-4.0529
X4.9787Y-2.3049
X4.9787Y-2.9742
X4.9787Y-3.6435
X5.6218Y-4.6948
X5.6873Y-2.4506
X5.6873Y-3.1199
X5.6873Y-3.7892
X6.2469Y-5.0283
T0
M30
