%TF.GenerationSoftware,KiCad,Pcbnew,7.0.6*%
%TF.CreationDate,2023-11-22T12:36:20+08:00*%
%TF.ProjectId,tenten,74656e74-656e-42e6-9b69-6361645f7063,rev?*%
%TF.SameCoordinates,Original*%
%TF.FileFunction,Legend,Top*%
%TF.FilePolarity,Positive*%
%FSLAX46Y46*%
G04 Gerber Fmt 4.6, Leading zero omitted, Abs format (unit mm)*
G04 Created by KiCad (PCBNEW 7.0.6) date 2023-11-22 12:36:20*
%MOMM*%
%LPD*%
G01*
G04 APERTURE LIST*
%ADD10C,0.150000*%
%ADD11C,0.050000*%
%ADD12R,0.300000X2.000000*%
%ADD13R,2.000000X0.300000*%
G04 APERTURE END LIST*
D10*
X71151905Y-106630000D02*
X71294762Y-106677619D01*
X71294762Y-106677619D02*
X71532857Y-106677619D01*
X71532857Y-106677619D02*
X71628095Y-106630000D01*
X71628095Y-106630000D02*
X71675714Y-106582380D01*
X71675714Y-106582380D02*
X71723333Y-106487142D01*
X71723333Y-106487142D02*
X71723333Y-106391904D01*
X71723333Y-106391904D02*
X71675714Y-106296666D01*
X71675714Y-106296666D02*
X71628095Y-106249047D01*
X71628095Y-106249047D02*
X71532857Y-106201428D01*
X71532857Y-106201428D02*
X71342381Y-106153809D01*
X71342381Y-106153809D02*
X71247143Y-106106190D01*
X71247143Y-106106190D02*
X71199524Y-106058571D01*
X71199524Y-106058571D02*
X71151905Y-105963333D01*
X71151905Y-105963333D02*
X71151905Y-105868095D01*
X71151905Y-105868095D02*
X71199524Y-105772857D01*
X71199524Y-105772857D02*
X71247143Y-105725238D01*
X71247143Y-105725238D02*
X71342381Y-105677619D01*
X71342381Y-105677619D02*
X71580476Y-105677619D01*
X71580476Y-105677619D02*
X71723333Y-105725238D01*
X72104286Y-105772857D02*
X72151905Y-105725238D01*
X72151905Y-105725238D02*
X72247143Y-105677619D01*
X72247143Y-105677619D02*
X72485238Y-105677619D01*
X72485238Y-105677619D02*
X72580476Y-105725238D01*
X72580476Y-105725238D02*
X72628095Y-105772857D01*
X72628095Y-105772857D02*
X72675714Y-105868095D01*
X72675714Y-105868095D02*
X72675714Y-105963333D01*
X72675714Y-105963333D02*
X72628095Y-106106190D01*
X72628095Y-106106190D02*
X72056667Y-106677619D01*
X72056667Y-106677619D02*
X72675714Y-106677619D01*
X73628095Y-106677619D02*
X73056667Y-106677619D01*
X73342381Y-106677619D02*
X73342381Y-105677619D01*
X73342381Y-105677619D02*
X73247143Y-105820476D01*
X73247143Y-105820476D02*
X73151905Y-105915714D01*
X73151905Y-105915714D02*
X73056667Y-105963333D01*
X89738295Y-62764200D02*
X89881152Y-62811819D01*
X89881152Y-62811819D02*
X90119247Y-62811819D01*
X90119247Y-62811819D02*
X90214485Y-62764200D01*
X90214485Y-62764200D02*
X90262104Y-62716580D01*
X90262104Y-62716580D02*
X90309723Y-62621342D01*
X90309723Y-62621342D02*
X90309723Y-62526104D01*
X90309723Y-62526104D02*
X90262104Y-62430866D01*
X90262104Y-62430866D02*
X90214485Y-62383247D01*
X90214485Y-62383247D02*
X90119247Y-62335628D01*
X90119247Y-62335628D02*
X89928771Y-62288009D01*
X89928771Y-62288009D02*
X89833533Y-62240390D01*
X89833533Y-62240390D02*
X89785914Y-62192771D01*
X89785914Y-62192771D02*
X89738295Y-62097533D01*
X89738295Y-62097533D02*
X89738295Y-62002295D01*
X89738295Y-62002295D02*
X89785914Y-61907057D01*
X89785914Y-61907057D02*
X89833533Y-61859438D01*
X89833533Y-61859438D02*
X89928771Y-61811819D01*
X89928771Y-61811819D02*
X90166866Y-61811819D01*
X90166866Y-61811819D02*
X90309723Y-61859438D01*
X90690676Y-61907057D02*
X90738295Y-61859438D01*
X90738295Y-61859438D02*
X90833533Y-61811819D01*
X90833533Y-61811819D02*
X91071628Y-61811819D01*
X91071628Y-61811819D02*
X91166866Y-61859438D01*
X91166866Y-61859438D02*
X91214485Y-61907057D01*
X91214485Y-61907057D02*
X91262104Y-62002295D01*
X91262104Y-62002295D02*
X91262104Y-62097533D01*
X91262104Y-62097533D02*
X91214485Y-62240390D01*
X91214485Y-62240390D02*
X90643057Y-62811819D01*
X90643057Y-62811819D02*
X91262104Y-62811819D01*
X117384619Y-42802133D02*
X118098904Y-42802133D01*
X118098904Y-42802133D02*
X118241761Y-42849752D01*
X118241761Y-42849752D02*
X118337000Y-42944990D01*
X118337000Y-42944990D02*
X118384619Y-43087847D01*
X118384619Y-43087847D02*
X118384619Y-43183085D01*
X117384619Y-42421180D02*
X117384619Y-41802133D01*
X117384619Y-41802133D02*
X117765571Y-42135466D01*
X117765571Y-42135466D02*
X117765571Y-41992609D01*
X117765571Y-41992609D02*
X117813190Y-41897371D01*
X117813190Y-41897371D02*
X117860809Y-41849752D01*
X117860809Y-41849752D02*
X117956047Y-41802133D01*
X117956047Y-41802133D02*
X118194142Y-41802133D01*
X118194142Y-41802133D02*
X118289380Y-41849752D01*
X118289380Y-41849752D02*
X118337000Y-41897371D01*
X118337000Y-41897371D02*
X118384619Y-41992609D01*
X118384619Y-41992609D02*
X118384619Y-42278323D01*
X118384619Y-42278323D02*
X118337000Y-42373561D01*
X118337000Y-42373561D02*
X118289380Y-42421180D01*
X89211305Y-96647800D02*
X89354162Y-96695419D01*
X89354162Y-96695419D02*
X89592257Y-96695419D01*
X89592257Y-96695419D02*
X89687495Y-96647800D01*
X89687495Y-96647800D02*
X89735114Y-96600180D01*
X89735114Y-96600180D02*
X89782733Y-96504942D01*
X89782733Y-96504942D02*
X89782733Y-96409704D01*
X89782733Y-96409704D02*
X89735114Y-96314466D01*
X89735114Y-96314466D02*
X89687495Y-96266847D01*
X89687495Y-96266847D02*
X89592257Y-96219228D01*
X89592257Y-96219228D02*
X89401781Y-96171609D01*
X89401781Y-96171609D02*
X89306543Y-96123990D01*
X89306543Y-96123990D02*
X89258924Y-96076371D01*
X89258924Y-96076371D02*
X89211305Y-95981133D01*
X89211305Y-95981133D02*
X89211305Y-95885895D01*
X89211305Y-95885895D02*
X89258924Y-95790657D01*
X89258924Y-95790657D02*
X89306543Y-95743038D01*
X89306543Y-95743038D02*
X89401781Y-95695419D01*
X89401781Y-95695419D02*
X89639876Y-95695419D01*
X89639876Y-95695419D02*
X89782733Y-95743038D01*
X90163686Y-95790657D02*
X90211305Y-95743038D01*
X90211305Y-95743038D02*
X90306543Y-95695419D01*
X90306543Y-95695419D02*
X90544638Y-95695419D01*
X90544638Y-95695419D02*
X90639876Y-95743038D01*
X90639876Y-95743038D02*
X90687495Y-95790657D01*
X90687495Y-95790657D02*
X90735114Y-95885895D01*
X90735114Y-95885895D02*
X90735114Y-95981133D01*
X90735114Y-95981133D02*
X90687495Y-96123990D01*
X90687495Y-96123990D02*
X90116067Y-96695419D01*
X90116067Y-96695419D02*
X90735114Y-96695419D01*
X91116067Y-95790657D02*
X91163686Y-95743038D01*
X91163686Y-95743038D02*
X91258924Y-95695419D01*
X91258924Y-95695419D02*
X91497019Y-95695419D01*
X91497019Y-95695419D02*
X91592257Y-95743038D01*
X91592257Y-95743038D02*
X91639876Y-95790657D01*
X91639876Y-95790657D02*
X91687495Y-95885895D01*
X91687495Y-95885895D02*
X91687495Y-95981133D01*
X91687495Y-95981133D02*
X91639876Y-96123990D01*
X91639876Y-96123990D02*
X91068448Y-96695419D01*
X91068448Y-96695419D02*
X91687495Y-96695419D01*
X125219829Y-67697057D02*
X125362686Y-67744676D01*
X125362686Y-67744676D02*
X125600781Y-67744676D01*
X125600781Y-67744676D02*
X125696019Y-67697057D01*
X125696019Y-67697057D02*
X125743638Y-67649437D01*
X125743638Y-67649437D02*
X125791257Y-67554199D01*
X125791257Y-67554199D02*
X125791257Y-67458961D01*
X125791257Y-67458961D02*
X125743638Y-67363723D01*
X125743638Y-67363723D02*
X125696019Y-67316104D01*
X125696019Y-67316104D02*
X125600781Y-67268485D01*
X125600781Y-67268485D02*
X125410305Y-67220866D01*
X125410305Y-67220866D02*
X125315067Y-67173247D01*
X125315067Y-67173247D02*
X125267448Y-67125628D01*
X125267448Y-67125628D02*
X125219829Y-67030390D01*
X125219829Y-67030390D02*
X125219829Y-66935152D01*
X125219829Y-66935152D02*
X125267448Y-66839914D01*
X125267448Y-66839914D02*
X125315067Y-66792295D01*
X125315067Y-66792295D02*
X125410305Y-66744676D01*
X125410305Y-66744676D02*
X125648400Y-66744676D01*
X125648400Y-66744676D02*
X125791257Y-66792295D01*
X126743638Y-67744676D02*
X126172210Y-67744676D01*
X126457924Y-67744676D02*
X126457924Y-66744676D01*
X126457924Y-66744676D02*
X126362686Y-66887533D01*
X126362686Y-66887533D02*
X126267448Y-66982771D01*
X126267448Y-66982771D02*
X126172210Y-67030390D01*
X127600781Y-67078009D02*
X127600781Y-67744676D01*
X127362686Y-66697057D02*
X127124591Y-67411342D01*
X127124591Y-67411342D02*
X127743638Y-67411342D01*
X143211705Y-100026000D02*
X143354562Y-100073619D01*
X143354562Y-100073619D02*
X143592657Y-100073619D01*
X143592657Y-100073619D02*
X143687895Y-100026000D01*
X143687895Y-100026000D02*
X143735514Y-99978380D01*
X143735514Y-99978380D02*
X143783133Y-99883142D01*
X143783133Y-99883142D02*
X143783133Y-99787904D01*
X143783133Y-99787904D02*
X143735514Y-99692666D01*
X143735514Y-99692666D02*
X143687895Y-99645047D01*
X143687895Y-99645047D02*
X143592657Y-99597428D01*
X143592657Y-99597428D02*
X143402181Y-99549809D01*
X143402181Y-99549809D02*
X143306943Y-99502190D01*
X143306943Y-99502190D02*
X143259324Y-99454571D01*
X143259324Y-99454571D02*
X143211705Y-99359333D01*
X143211705Y-99359333D02*
X143211705Y-99264095D01*
X143211705Y-99264095D02*
X143259324Y-99168857D01*
X143259324Y-99168857D02*
X143306943Y-99121238D01*
X143306943Y-99121238D02*
X143402181Y-99073619D01*
X143402181Y-99073619D02*
X143640276Y-99073619D01*
X143640276Y-99073619D02*
X143783133Y-99121238D01*
X144164086Y-99168857D02*
X144211705Y-99121238D01*
X144211705Y-99121238D02*
X144306943Y-99073619D01*
X144306943Y-99073619D02*
X144545038Y-99073619D01*
X144545038Y-99073619D02*
X144640276Y-99121238D01*
X144640276Y-99121238D02*
X144687895Y-99168857D01*
X144687895Y-99168857D02*
X144735514Y-99264095D01*
X144735514Y-99264095D02*
X144735514Y-99359333D01*
X144735514Y-99359333D02*
X144687895Y-99502190D01*
X144687895Y-99502190D02*
X144116467Y-100073619D01*
X144116467Y-100073619D02*
X144735514Y-100073619D01*
X145640276Y-99073619D02*
X145164086Y-99073619D01*
X145164086Y-99073619D02*
X145116467Y-99549809D01*
X145116467Y-99549809D02*
X145164086Y-99502190D01*
X145164086Y-99502190D02*
X145259324Y-99454571D01*
X145259324Y-99454571D02*
X145497419Y-99454571D01*
X145497419Y-99454571D02*
X145592657Y-99502190D01*
X145592657Y-99502190D02*
X145640276Y-99549809D01*
X145640276Y-99549809D02*
X145687895Y-99645047D01*
X145687895Y-99645047D02*
X145687895Y-99883142D01*
X145687895Y-99883142D02*
X145640276Y-99978380D01*
X145640276Y-99978380D02*
X145592657Y-100026000D01*
X145592657Y-100026000D02*
X145497419Y-100073619D01*
X145497419Y-100073619D02*
X145259324Y-100073619D01*
X145259324Y-100073619D02*
X145164086Y-100026000D01*
X145164086Y-100026000D02*
X145116467Y-99978380D01*
X107143705Y-89866000D02*
X107286562Y-89913619D01*
X107286562Y-89913619D02*
X107524657Y-89913619D01*
X107524657Y-89913619D02*
X107619895Y-89866000D01*
X107619895Y-89866000D02*
X107667514Y-89818380D01*
X107667514Y-89818380D02*
X107715133Y-89723142D01*
X107715133Y-89723142D02*
X107715133Y-89627904D01*
X107715133Y-89627904D02*
X107667514Y-89532666D01*
X107667514Y-89532666D02*
X107619895Y-89485047D01*
X107619895Y-89485047D02*
X107524657Y-89437428D01*
X107524657Y-89437428D02*
X107334181Y-89389809D01*
X107334181Y-89389809D02*
X107238943Y-89342190D01*
X107238943Y-89342190D02*
X107191324Y-89294571D01*
X107191324Y-89294571D02*
X107143705Y-89199333D01*
X107143705Y-89199333D02*
X107143705Y-89104095D01*
X107143705Y-89104095D02*
X107191324Y-89008857D01*
X107191324Y-89008857D02*
X107238943Y-88961238D01*
X107238943Y-88961238D02*
X107334181Y-88913619D01*
X107334181Y-88913619D02*
X107572276Y-88913619D01*
X107572276Y-88913619D02*
X107715133Y-88961238D01*
X108096086Y-89008857D02*
X108143705Y-88961238D01*
X108143705Y-88961238D02*
X108238943Y-88913619D01*
X108238943Y-88913619D02*
X108477038Y-88913619D01*
X108477038Y-88913619D02*
X108572276Y-88961238D01*
X108572276Y-88961238D02*
X108619895Y-89008857D01*
X108619895Y-89008857D02*
X108667514Y-89104095D01*
X108667514Y-89104095D02*
X108667514Y-89199333D01*
X108667514Y-89199333D02*
X108619895Y-89342190D01*
X108619895Y-89342190D02*
X108048467Y-89913619D01*
X108048467Y-89913619D02*
X108667514Y-89913619D01*
X109000848Y-88913619D02*
X109619895Y-88913619D01*
X109619895Y-88913619D02*
X109286562Y-89294571D01*
X109286562Y-89294571D02*
X109429419Y-89294571D01*
X109429419Y-89294571D02*
X109524657Y-89342190D01*
X109524657Y-89342190D02*
X109572276Y-89389809D01*
X109572276Y-89389809D02*
X109619895Y-89485047D01*
X109619895Y-89485047D02*
X109619895Y-89723142D01*
X109619895Y-89723142D02*
X109572276Y-89818380D01*
X109572276Y-89818380D02*
X109524657Y-89866000D01*
X109524657Y-89866000D02*
X109429419Y-89913619D01*
X109429419Y-89913619D02*
X109143705Y-89913619D01*
X109143705Y-89913619D02*
X109048467Y-89866000D01*
X109048467Y-89866000D02*
X109000848Y-89818380D01*
X107194505Y-72670200D02*
X107337362Y-72717819D01*
X107337362Y-72717819D02*
X107575457Y-72717819D01*
X107575457Y-72717819D02*
X107670695Y-72670200D01*
X107670695Y-72670200D02*
X107718314Y-72622580D01*
X107718314Y-72622580D02*
X107765933Y-72527342D01*
X107765933Y-72527342D02*
X107765933Y-72432104D01*
X107765933Y-72432104D02*
X107718314Y-72336866D01*
X107718314Y-72336866D02*
X107670695Y-72289247D01*
X107670695Y-72289247D02*
X107575457Y-72241628D01*
X107575457Y-72241628D02*
X107384981Y-72194009D01*
X107384981Y-72194009D02*
X107289743Y-72146390D01*
X107289743Y-72146390D02*
X107242124Y-72098771D01*
X107242124Y-72098771D02*
X107194505Y-72003533D01*
X107194505Y-72003533D02*
X107194505Y-71908295D01*
X107194505Y-71908295D02*
X107242124Y-71813057D01*
X107242124Y-71813057D02*
X107289743Y-71765438D01*
X107289743Y-71765438D02*
X107384981Y-71717819D01*
X107384981Y-71717819D02*
X107623076Y-71717819D01*
X107623076Y-71717819D02*
X107765933Y-71765438D01*
X108718314Y-72717819D02*
X108146886Y-72717819D01*
X108432600Y-72717819D02*
X108432600Y-71717819D01*
X108432600Y-71717819D02*
X108337362Y-71860676D01*
X108337362Y-71860676D02*
X108242124Y-71955914D01*
X108242124Y-71955914D02*
X108146886Y-72003533D01*
X109051648Y-71717819D02*
X109670695Y-71717819D01*
X109670695Y-71717819D02*
X109337362Y-72098771D01*
X109337362Y-72098771D02*
X109480219Y-72098771D01*
X109480219Y-72098771D02*
X109575457Y-72146390D01*
X109575457Y-72146390D02*
X109623076Y-72194009D01*
X109623076Y-72194009D02*
X109670695Y-72289247D01*
X109670695Y-72289247D02*
X109670695Y-72527342D01*
X109670695Y-72527342D02*
X109623076Y-72622580D01*
X109623076Y-72622580D02*
X109575457Y-72670200D01*
X109575457Y-72670200D02*
X109480219Y-72717819D01*
X109480219Y-72717819D02*
X109194505Y-72717819D01*
X109194505Y-72717819D02*
X109099267Y-72670200D01*
X109099267Y-72670200D02*
X109051648Y-72622580D01*
X155729846Y-130402591D02*
X155833625Y-130511704D01*
X155833625Y-130511704D02*
X156043851Y-130623483D01*
X156043851Y-130623483D02*
X156150297Y-130626149D01*
X156150297Y-130626149D02*
X156214698Y-130606460D01*
X156214698Y-130606460D02*
X156301455Y-130544726D01*
X156301455Y-130544726D02*
X156346166Y-130460635D01*
X156346166Y-130460635D02*
X156348833Y-130354189D01*
X156348833Y-130354189D02*
X156329143Y-130289788D01*
X156329143Y-130289788D02*
X156267409Y-130203032D01*
X156267409Y-130203032D02*
X156121584Y-130071563D01*
X156121584Y-130071563D02*
X156059850Y-129984807D01*
X156059850Y-129984807D02*
X156040160Y-129920406D01*
X156040160Y-129920406D02*
X156042827Y-129813960D01*
X156042827Y-129813960D02*
X156087538Y-129729869D01*
X156087538Y-129729869D02*
X156174295Y-129668135D01*
X156174295Y-129668135D02*
X156238696Y-129648446D01*
X156238696Y-129648446D02*
X156345142Y-129651112D01*
X156345142Y-129651112D02*
X156555368Y-129762891D01*
X156555368Y-129762891D02*
X156659147Y-129872004D01*
X156975819Y-129986449D02*
X157522406Y-130277074D01*
X157522406Y-130277074D02*
X157049243Y-130456945D01*
X157049243Y-130456945D02*
X157175379Y-130524012D01*
X157175379Y-130524012D02*
X157237113Y-130610769D01*
X157237113Y-130610769D02*
X157256803Y-130675170D01*
X157256803Y-130675170D02*
X157254136Y-130781616D01*
X157254136Y-130781616D02*
X157142357Y-130991841D01*
X157142357Y-130991841D02*
X157055601Y-131053576D01*
X157055601Y-131053576D02*
X156991200Y-131073265D01*
X156991200Y-131073265D02*
X156884754Y-131070599D01*
X156884754Y-131070599D02*
X156632483Y-130936464D01*
X156632483Y-130936464D02*
X156570748Y-130849707D01*
X156570748Y-130849707D02*
X156551059Y-130785306D01*
X157814055Y-130540011D02*
X157878456Y-130520321D01*
X157878456Y-130520321D02*
X157984902Y-130522988D01*
X157984902Y-130522988D02*
X158195128Y-130634767D01*
X158195128Y-130634767D02*
X158256862Y-130721524D01*
X158256862Y-130721524D02*
X158276551Y-130785925D01*
X158276551Y-130785925D02*
X158273885Y-130892371D01*
X158273885Y-130892371D02*
X158229173Y-130976461D01*
X158229173Y-130976461D02*
X158120061Y-131080240D01*
X158120061Y-131080240D02*
X157347250Y-131316512D01*
X157347250Y-131316512D02*
X157893837Y-131607138D01*
X143237105Y-83312800D02*
X143379962Y-83360419D01*
X143379962Y-83360419D02*
X143618057Y-83360419D01*
X143618057Y-83360419D02*
X143713295Y-83312800D01*
X143713295Y-83312800D02*
X143760914Y-83265180D01*
X143760914Y-83265180D02*
X143808533Y-83169942D01*
X143808533Y-83169942D02*
X143808533Y-83074704D01*
X143808533Y-83074704D02*
X143760914Y-82979466D01*
X143760914Y-82979466D02*
X143713295Y-82931847D01*
X143713295Y-82931847D02*
X143618057Y-82884228D01*
X143618057Y-82884228D02*
X143427581Y-82836609D01*
X143427581Y-82836609D02*
X143332343Y-82788990D01*
X143332343Y-82788990D02*
X143284724Y-82741371D01*
X143284724Y-82741371D02*
X143237105Y-82646133D01*
X143237105Y-82646133D02*
X143237105Y-82550895D01*
X143237105Y-82550895D02*
X143284724Y-82455657D01*
X143284724Y-82455657D02*
X143332343Y-82408038D01*
X143332343Y-82408038D02*
X143427581Y-82360419D01*
X143427581Y-82360419D02*
X143665676Y-82360419D01*
X143665676Y-82360419D02*
X143808533Y-82408038D01*
X144760914Y-83360419D02*
X144189486Y-83360419D01*
X144475200Y-83360419D02*
X144475200Y-82360419D01*
X144475200Y-82360419D02*
X144379962Y-82503276D01*
X144379962Y-82503276D02*
X144284724Y-82598514D01*
X144284724Y-82598514D02*
X144189486Y-82646133D01*
X145665676Y-82360419D02*
X145189486Y-82360419D01*
X145189486Y-82360419D02*
X145141867Y-82836609D01*
X145141867Y-82836609D02*
X145189486Y-82788990D01*
X145189486Y-82788990D02*
X145284724Y-82741371D01*
X145284724Y-82741371D02*
X145522819Y-82741371D01*
X145522819Y-82741371D02*
X145618057Y-82788990D01*
X145618057Y-82788990D02*
X145665676Y-82836609D01*
X145665676Y-82836609D02*
X145713295Y-82931847D01*
X145713295Y-82931847D02*
X145713295Y-83169942D01*
X145713295Y-83169942D02*
X145665676Y-83265180D01*
X145665676Y-83265180D02*
X145618057Y-83312800D01*
X145618057Y-83312800D02*
X145522819Y-83360419D01*
X145522819Y-83360419D02*
X145284724Y-83360419D01*
X145284724Y-83360419D02*
X145189486Y-83312800D01*
X145189486Y-83312800D02*
X145141867Y-83265180D01*
X143713295Y-66142400D02*
X143856152Y-66190019D01*
X143856152Y-66190019D02*
X144094247Y-66190019D01*
X144094247Y-66190019D02*
X144189485Y-66142400D01*
X144189485Y-66142400D02*
X144237104Y-66094780D01*
X144237104Y-66094780D02*
X144284723Y-65999542D01*
X144284723Y-65999542D02*
X144284723Y-65904304D01*
X144284723Y-65904304D02*
X144237104Y-65809066D01*
X144237104Y-65809066D02*
X144189485Y-65761447D01*
X144189485Y-65761447D02*
X144094247Y-65713828D01*
X144094247Y-65713828D02*
X143903771Y-65666209D01*
X143903771Y-65666209D02*
X143808533Y-65618590D01*
X143808533Y-65618590D02*
X143760914Y-65570971D01*
X143760914Y-65570971D02*
X143713295Y-65475733D01*
X143713295Y-65475733D02*
X143713295Y-65380495D01*
X143713295Y-65380495D02*
X143760914Y-65285257D01*
X143760914Y-65285257D02*
X143808533Y-65237638D01*
X143808533Y-65237638D02*
X143903771Y-65190019D01*
X143903771Y-65190019D02*
X144141866Y-65190019D01*
X144141866Y-65190019D02*
X144284723Y-65237638D01*
X145189485Y-65190019D02*
X144713295Y-65190019D01*
X144713295Y-65190019D02*
X144665676Y-65666209D01*
X144665676Y-65666209D02*
X144713295Y-65618590D01*
X144713295Y-65618590D02*
X144808533Y-65570971D01*
X144808533Y-65570971D02*
X145046628Y-65570971D01*
X145046628Y-65570971D02*
X145141866Y-65618590D01*
X145141866Y-65618590D02*
X145189485Y-65666209D01*
X145189485Y-65666209D02*
X145237104Y-65761447D01*
X145237104Y-65761447D02*
X145237104Y-65999542D01*
X145237104Y-65999542D02*
X145189485Y-66094780D01*
X145189485Y-66094780D02*
X145141866Y-66142400D01*
X145141866Y-66142400D02*
X145046628Y-66190019D01*
X145046628Y-66190019D02*
X144808533Y-66190019D01*
X144808533Y-66190019D02*
X144713295Y-66142400D01*
X144713295Y-66142400D02*
X144665676Y-66094780D01*
X125730095Y-62434000D02*
X125872952Y-62481619D01*
X125872952Y-62481619D02*
X126111047Y-62481619D01*
X126111047Y-62481619D02*
X126206285Y-62434000D01*
X126206285Y-62434000D02*
X126253904Y-62386380D01*
X126253904Y-62386380D02*
X126301523Y-62291142D01*
X126301523Y-62291142D02*
X126301523Y-62195904D01*
X126301523Y-62195904D02*
X126253904Y-62100666D01*
X126253904Y-62100666D02*
X126206285Y-62053047D01*
X126206285Y-62053047D02*
X126111047Y-62005428D01*
X126111047Y-62005428D02*
X125920571Y-61957809D01*
X125920571Y-61957809D02*
X125825333Y-61910190D01*
X125825333Y-61910190D02*
X125777714Y-61862571D01*
X125777714Y-61862571D02*
X125730095Y-61767333D01*
X125730095Y-61767333D02*
X125730095Y-61672095D01*
X125730095Y-61672095D02*
X125777714Y-61576857D01*
X125777714Y-61576857D02*
X125825333Y-61529238D01*
X125825333Y-61529238D02*
X125920571Y-61481619D01*
X125920571Y-61481619D02*
X126158666Y-61481619D01*
X126158666Y-61481619D02*
X126301523Y-61529238D01*
X127158666Y-61814952D02*
X127158666Y-62481619D01*
X126920571Y-61434000D02*
X126682476Y-62148285D01*
X126682476Y-62148285D02*
X127301523Y-62148285D01*
X125152305Y-96419200D02*
X125295162Y-96466819D01*
X125295162Y-96466819D02*
X125533257Y-96466819D01*
X125533257Y-96466819D02*
X125628495Y-96419200D01*
X125628495Y-96419200D02*
X125676114Y-96371580D01*
X125676114Y-96371580D02*
X125723733Y-96276342D01*
X125723733Y-96276342D02*
X125723733Y-96181104D01*
X125723733Y-96181104D02*
X125676114Y-96085866D01*
X125676114Y-96085866D02*
X125628495Y-96038247D01*
X125628495Y-96038247D02*
X125533257Y-95990628D01*
X125533257Y-95990628D02*
X125342781Y-95943009D01*
X125342781Y-95943009D02*
X125247543Y-95895390D01*
X125247543Y-95895390D02*
X125199924Y-95847771D01*
X125199924Y-95847771D02*
X125152305Y-95752533D01*
X125152305Y-95752533D02*
X125152305Y-95657295D01*
X125152305Y-95657295D02*
X125199924Y-95562057D01*
X125199924Y-95562057D02*
X125247543Y-95514438D01*
X125247543Y-95514438D02*
X125342781Y-95466819D01*
X125342781Y-95466819D02*
X125580876Y-95466819D01*
X125580876Y-95466819D02*
X125723733Y-95514438D01*
X126104686Y-95562057D02*
X126152305Y-95514438D01*
X126152305Y-95514438D02*
X126247543Y-95466819D01*
X126247543Y-95466819D02*
X126485638Y-95466819D01*
X126485638Y-95466819D02*
X126580876Y-95514438D01*
X126580876Y-95514438D02*
X126628495Y-95562057D01*
X126628495Y-95562057D02*
X126676114Y-95657295D01*
X126676114Y-95657295D02*
X126676114Y-95752533D01*
X126676114Y-95752533D02*
X126628495Y-95895390D01*
X126628495Y-95895390D02*
X126057067Y-96466819D01*
X126057067Y-96466819D02*
X126676114Y-96466819D01*
X127533257Y-95800152D02*
X127533257Y-96466819D01*
X127295162Y-95419200D02*
X127057067Y-96133485D01*
X127057067Y-96133485D02*
X127676114Y-96133485D01*
X107296105Y-106884000D02*
X107438962Y-106931619D01*
X107438962Y-106931619D02*
X107677057Y-106931619D01*
X107677057Y-106931619D02*
X107772295Y-106884000D01*
X107772295Y-106884000D02*
X107819914Y-106836380D01*
X107819914Y-106836380D02*
X107867533Y-106741142D01*
X107867533Y-106741142D02*
X107867533Y-106645904D01*
X107867533Y-106645904D02*
X107819914Y-106550666D01*
X107819914Y-106550666D02*
X107772295Y-106503047D01*
X107772295Y-106503047D02*
X107677057Y-106455428D01*
X107677057Y-106455428D02*
X107486581Y-106407809D01*
X107486581Y-106407809D02*
X107391343Y-106360190D01*
X107391343Y-106360190D02*
X107343724Y-106312571D01*
X107343724Y-106312571D02*
X107296105Y-106217333D01*
X107296105Y-106217333D02*
X107296105Y-106122095D01*
X107296105Y-106122095D02*
X107343724Y-106026857D01*
X107343724Y-106026857D02*
X107391343Y-105979238D01*
X107391343Y-105979238D02*
X107486581Y-105931619D01*
X107486581Y-105931619D02*
X107724676Y-105931619D01*
X107724676Y-105931619D02*
X107867533Y-105979238D01*
X108200867Y-105931619D02*
X108819914Y-105931619D01*
X108819914Y-105931619D02*
X108486581Y-106312571D01*
X108486581Y-106312571D02*
X108629438Y-106312571D01*
X108629438Y-106312571D02*
X108724676Y-106360190D01*
X108724676Y-106360190D02*
X108772295Y-106407809D01*
X108772295Y-106407809D02*
X108819914Y-106503047D01*
X108819914Y-106503047D02*
X108819914Y-106741142D01*
X108819914Y-106741142D02*
X108772295Y-106836380D01*
X108772295Y-106836380D02*
X108724676Y-106884000D01*
X108724676Y-106884000D02*
X108629438Y-106931619D01*
X108629438Y-106931619D02*
X108343724Y-106931619D01*
X108343724Y-106931619D02*
X108248486Y-106884000D01*
X108248486Y-106884000D02*
X108200867Y-106836380D01*
X109438962Y-105931619D02*
X109534200Y-105931619D01*
X109534200Y-105931619D02*
X109629438Y-105979238D01*
X109629438Y-105979238D02*
X109677057Y-106026857D01*
X109677057Y-106026857D02*
X109724676Y-106122095D01*
X109724676Y-106122095D02*
X109772295Y-106312571D01*
X109772295Y-106312571D02*
X109772295Y-106550666D01*
X109772295Y-106550666D02*
X109724676Y-106741142D01*
X109724676Y-106741142D02*
X109677057Y-106836380D01*
X109677057Y-106836380D02*
X109629438Y-106884000D01*
X109629438Y-106884000D02*
X109534200Y-106931619D01*
X109534200Y-106931619D02*
X109438962Y-106931619D01*
X109438962Y-106931619D02*
X109343724Y-106884000D01*
X109343724Y-106884000D02*
X109296105Y-106836380D01*
X109296105Y-106836380D02*
X109248486Y-106741142D01*
X109248486Y-106741142D02*
X109200867Y-106550666D01*
X109200867Y-106550666D02*
X109200867Y-106312571D01*
X109200867Y-106312571D02*
X109248486Y-106122095D01*
X109248486Y-106122095D02*
X109296105Y-106026857D01*
X109296105Y-106026857D02*
X109343724Y-105979238D01*
X109343724Y-105979238D02*
X109438962Y-105931619D01*
X89109705Y-79706000D02*
X89252562Y-79753619D01*
X89252562Y-79753619D02*
X89490657Y-79753619D01*
X89490657Y-79753619D02*
X89585895Y-79706000D01*
X89585895Y-79706000D02*
X89633514Y-79658380D01*
X89633514Y-79658380D02*
X89681133Y-79563142D01*
X89681133Y-79563142D02*
X89681133Y-79467904D01*
X89681133Y-79467904D02*
X89633514Y-79372666D01*
X89633514Y-79372666D02*
X89585895Y-79325047D01*
X89585895Y-79325047D02*
X89490657Y-79277428D01*
X89490657Y-79277428D02*
X89300181Y-79229809D01*
X89300181Y-79229809D02*
X89204943Y-79182190D01*
X89204943Y-79182190D02*
X89157324Y-79134571D01*
X89157324Y-79134571D02*
X89109705Y-79039333D01*
X89109705Y-79039333D02*
X89109705Y-78944095D01*
X89109705Y-78944095D02*
X89157324Y-78848857D01*
X89157324Y-78848857D02*
X89204943Y-78801238D01*
X89204943Y-78801238D02*
X89300181Y-78753619D01*
X89300181Y-78753619D02*
X89538276Y-78753619D01*
X89538276Y-78753619D02*
X89681133Y-78801238D01*
X90633514Y-79753619D02*
X90062086Y-79753619D01*
X90347800Y-79753619D02*
X90347800Y-78753619D01*
X90347800Y-78753619D02*
X90252562Y-78896476D01*
X90252562Y-78896476D02*
X90157324Y-78991714D01*
X90157324Y-78991714D02*
X90062086Y-79039333D01*
X91014467Y-78848857D02*
X91062086Y-78801238D01*
X91062086Y-78801238D02*
X91157324Y-78753619D01*
X91157324Y-78753619D02*
X91395419Y-78753619D01*
X91395419Y-78753619D02*
X91490657Y-78801238D01*
X91490657Y-78801238D02*
X91538276Y-78848857D01*
X91538276Y-78848857D02*
X91585895Y-78944095D01*
X91585895Y-78944095D02*
X91585895Y-79039333D01*
X91585895Y-79039333D02*
X91538276Y-79182190D01*
X91538276Y-79182190D02*
X90966848Y-79753619D01*
X90966848Y-79753619D02*
X91585895Y-79753619D01*
X139946055Y-121786691D02*
X140049834Y-121895804D01*
X140049834Y-121895804D02*
X140260060Y-122007583D01*
X140260060Y-122007583D02*
X140366506Y-122010249D01*
X140366506Y-122010249D02*
X140430907Y-121990560D01*
X140430907Y-121990560D02*
X140517664Y-121928826D01*
X140517664Y-121928826D02*
X140562375Y-121844735D01*
X140562375Y-121844735D02*
X140565042Y-121738289D01*
X140565042Y-121738289D02*
X140545352Y-121673888D01*
X140545352Y-121673888D02*
X140483618Y-121587132D01*
X140483618Y-121587132D02*
X140337793Y-121455663D01*
X140337793Y-121455663D02*
X140276059Y-121368907D01*
X140276059Y-121368907D02*
X140256369Y-121304506D01*
X140256369Y-121304506D02*
X140259036Y-121198060D01*
X140259036Y-121198060D02*
X140303747Y-121113969D01*
X140303747Y-121113969D02*
X140390504Y-121052235D01*
X140390504Y-121052235D02*
X140454905Y-121032546D01*
X140454905Y-121032546D02*
X140561351Y-121035212D01*
X140561351Y-121035212D02*
X140771577Y-121146991D01*
X140771577Y-121146991D02*
X140875356Y-121256104D01*
X141192028Y-121370549D02*
X141738615Y-121661174D01*
X141738615Y-121661174D02*
X141265452Y-121841045D01*
X141265452Y-121841045D02*
X141391588Y-121908112D01*
X141391588Y-121908112D02*
X141453322Y-121994869D01*
X141453322Y-121994869D02*
X141473012Y-122059270D01*
X141473012Y-122059270D02*
X141470345Y-122165716D01*
X141470345Y-122165716D02*
X141358566Y-122375941D01*
X141358566Y-122375941D02*
X141271810Y-122437676D01*
X141271810Y-122437676D02*
X141207409Y-122457365D01*
X141207409Y-122457365D02*
X141100963Y-122454699D01*
X141100963Y-122454699D02*
X140848692Y-122320564D01*
X140848692Y-122320564D02*
X140786957Y-122233807D01*
X140786957Y-122233807D02*
X140767268Y-122169406D01*
X142110046Y-122991238D02*
X141605504Y-122722968D01*
X141857775Y-122857103D02*
X142327246Y-121974155D01*
X142327246Y-121974155D02*
X142176089Y-122055579D01*
X142176089Y-122055579D02*
X142047287Y-122094958D01*
X142047287Y-122094958D02*
X141940841Y-122092291D01*
X107746895Y-55931600D02*
X107889752Y-55979219D01*
X107889752Y-55979219D02*
X108127847Y-55979219D01*
X108127847Y-55979219D02*
X108223085Y-55931600D01*
X108223085Y-55931600D02*
X108270704Y-55883980D01*
X108270704Y-55883980D02*
X108318323Y-55788742D01*
X108318323Y-55788742D02*
X108318323Y-55693504D01*
X108318323Y-55693504D02*
X108270704Y-55598266D01*
X108270704Y-55598266D02*
X108223085Y-55550647D01*
X108223085Y-55550647D02*
X108127847Y-55503028D01*
X108127847Y-55503028D02*
X107937371Y-55455409D01*
X107937371Y-55455409D02*
X107842133Y-55407790D01*
X107842133Y-55407790D02*
X107794514Y-55360171D01*
X107794514Y-55360171D02*
X107746895Y-55264933D01*
X107746895Y-55264933D02*
X107746895Y-55169695D01*
X107746895Y-55169695D02*
X107794514Y-55074457D01*
X107794514Y-55074457D02*
X107842133Y-55026838D01*
X107842133Y-55026838D02*
X107937371Y-54979219D01*
X107937371Y-54979219D02*
X108175466Y-54979219D01*
X108175466Y-54979219D02*
X108318323Y-55026838D01*
X108651657Y-54979219D02*
X109270704Y-54979219D01*
X109270704Y-54979219D02*
X108937371Y-55360171D01*
X108937371Y-55360171D02*
X109080228Y-55360171D01*
X109080228Y-55360171D02*
X109175466Y-55407790D01*
X109175466Y-55407790D02*
X109223085Y-55455409D01*
X109223085Y-55455409D02*
X109270704Y-55550647D01*
X109270704Y-55550647D02*
X109270704Y-55788742D01*
X109270704Y-55788742D02*
X109223085Y-55883980D01*
X109223085Y-55883980D02*
X109175466Y-55931600D01*
X109175466Y-55931600D02*
X109080228Y-55979219D01*
X109080228Y-55979219D02*
X108794514Y-55979219D01*
X108794514Y-55979219D02*
X108699276Y-55931600D01*
X108699276Y-55931600D02*
X108651657Y-55883980D01*
X71253505Y-89764400D02*
X71396362Y-89812019D01*
X71396362Y-89812019D02*
X71634457Y-89812019D01*
X71634457Y-89812019D02*
X71729695Y-89764400D01*
X71729695Y-89764400D02*
X71777314Y-89716780D01*
X71777314Y-89716780D02*
X71824933Y-89621542D01*
X71824933Y-89621542D02*
X71824933Y-89526304D01*
X71824933Y-89526304D02*
X71777314Y-89431066D01*
X71777314Y-89431066D02*
X71729695Y-89383447D01*
X71729695Y-89383447D02*
X71634457Y-89335828D01*
X71634457Y-89335828D02*
X71443981Y-89288209D01*
X71443981Y-89288209D02*
X71348743Y-89240590D01*
X71348743Y-89240590D02*
X71301124Y-89192971D01*
X71301124Y-89192971D02*
X71253505Y-89097733D01*
X71253505Y-89097733D02*
X71253505Y-89002495D01*
X71253505Y-89002495D02*
X71301124Y-88907257D01*
X71301124Y-88907257D02*
X71348743Y-88859638D01*
X71348743Y-88859638D02*
X71443981Y-88812019D01*
X71443981Y-88812019D02*
X71682076Y-88812019D01*
X71682076Y-88812019D02*
X71824933Y-88859638D01*
X72777314Y-89812019D02*
X72205886Y-89812019D01*
X72491600Y-89812019D02*
X72491600Y-88812019D01*
X72491600Y-88812019D02*
X72396362Y-88954876D01*
X72396362Y-88954876D02*
X72301124Y-89050114D01*
X72301124Y-89050114D02*
X72205886Y-89097733D01*
X73729695Y-89812019D02*
X73158267Y-89812019D01*
X73443981Y-89812019D02*
X73443981Y-88812019D01*
X73443981Y-88812019D02*
X73348743Y-88954876D01*
X73348743Y-88954876D02*
X73253505Y-89050114D01*
X73253505Y-89050114D02*
X73158267Y-89097733D01*
%TO.C,S21*%
X65457924Y-95944857D02*
X66457924Y-95944857D01*
X65457924Y-96944857D02*
X65457924Y-95944857D01*
X65457924Y-109944857D02*
X65457924Y-108944857D01*
X66457924Y-109944857D02*
X65457924Y-109944857D01*
X78457924Y-95944857D02*
X79457924Y-95944857D01*
X79457924Y-95944857D02*
X79457924Y-96944857D01*
X79457924Y-108944857D02*
X79457924Y-109944857D01*
X79457924Y-109944857D02*
X78457924Y-109944857D01*
%TO.C,S1*%
X65457924Y-61944857D02*
X66457924Y-61944857D01*
X65457924Y-62944857D02*
X65457924Y-61944857D01*
X65457924Y-75944857D02*
X65457924Y-74944857D01*
X66457924Y-75944857D02*
X65457924Y-75944857D01*
X78457924Y-61944857D02*
X79457924Y-61944857D01*
X79457924Y-61944857D02*
X79457924Y-62944857D01*
X79457924Y-74944857D02*
X79457924Y-75944857D01*
X79457924Y-75944857D02*
X78457924Y-75944857D01*
%TO.C,S2*%
X83457924Y-51802857D02*
X84457924Y-51802857D01*
X83457924Y-52802857D02*
X83457924Y-51802857D01*
X83457924Y-65802857D02*
X83457924Y-64802857D01*
X84457924Y-65802857D02*
X83457924Y-65802857D01*
X96457924Y-51802857D02*
X97457924Y-51802857D01*
X97457924Y-51802857D02*
X97457924Y-52802857D01*
X97457924Y-64802857D02*
X97457924Y-65802857D01*
X97457924Y-65802857D02*
X96457924Y-65802857D01*
%TO.C,S22*%
X83457924Y-85802857D02*
X84457924Y-85802857D01*
X83457924Y-86802857D02*
X83457924Y-85802857D01*
X83457924Y-99802857D02*
X83457924Y-98802857D01*
X84457924Y-99802857D02*
X83457924Y-99802857D01*
X96457924Y-85802857D02*
X97457924Y-85802857D01*
X97457924Y-85802857D02*
X97457924Y-86802857D01*
X97457924Y-98802857D02*
X97457924Y-99802857D01*
X97457924Y-99802857D02*
X96457924Y-99802857D01*
%TO.C,S14*%
X119457924Y-68544857D02*
X120457924Y-68544857D01*
X119457924Y-69544857D02*
X119457924Y-68544857D01*
X119457924Y-82544857D02*
X119457924Y-81544857D01*
X120457924Y-82544857D02*
X119457924Y-82544857D01*
X132457924Y-68544857D02*
X133457924Y-68544857D01*
X133457924Y-68544857D02*
X133457924Y-69544857D01*
X133457924Y-81544857D02*
X133457924Y-82544857D01*
X133457924Y-82544857D02*
X132457924Y-82544857D01*
%TO.C,S25*%
X137457924Y-89244857D02*
X138457924Y-89244857D01*
X137457924Y-90244857D02*
X137457924Y-89244857D01*
X137457924Y-103244857D02*
X137457924Y-102244857D01*
X138457924Y-103244857D02*
X137457924Y-103244857D01*
X150457924Y-89244857D02*
X151457924Y-89244857D01*
X151457924Y-89244857D02*
X151457924Y-90244857D01*
X151457924Y-102244857D02*
X151457924Y-103244857D01*
X151457924Y-103244857D02*
X150457924Y-103244857D01*
%TO.C,S23*%
X101457924Y-78944857D02*
X102457924Y-78944857D01*
X101457924Y-79944857D02*
X101457924Y-78944857D01*
X101457924Y-92944857D02*
X101457924Y-91944857D01*
X102457924Y-92944857D02*
X101457924Y-92944857D01*
X114457924Y-78944857D02*
X115457924Y-78944857D01*
X115457924Y-78944857D02*
X115457924Y-79944857D01*
X115457924Y-91944857D02*
X115457924Y-92944857D01*
X115457924Y-92944857D02*
X114457924Y-92944857D01*
%TO.C,S13*%
X101457924Y-61944857D02*
X102457924Y-61944857D01*
X101457924Y-62944857D02*
X101457924Y-61944857D01*
X101457924Y-75944857D02*
X101457924Y-74944857D01*
X102457924Y-75944857D02*
X101457924Y-75944857D01*
X114457924Y-61944857D02*
X115457924Y-61944857D01*
X115457924Y-61944857D02*
X115457924Y-62944857D01*
X115457924Y-74944857D02*
X115457924Y-75944857D01*
X115457924Y-75944857D02*
X114457924Y-75944857D01*
%TO.C,S32*%
X155775668Y-118253066D02*
X156658615Y-118722537D01*
X155306196Y-119136014D02*
X155775668Y-118253066D01*
X149203066Y-130614332D02*
X149672537Y-129731385D01*
X150086014Y-131083804D02*
X149203066Y-130614332D01*
X167253986Y-124356196D02*
X168136934Y-124825668D01*
X168136934Y-124825668D02*
X167667463Y-125708615D01*
X162033804Y-136303986D02*
X161564332Y-137186934D01*
X161564332Y-137186934D02*
X160681385Y-136717463D01*
%TO.C,S15*%
X137457924Y-72244857D02*
X138457924Y-72244857D01*
X137457924Y-73244857D02*
X137457924Y-72244857D01*
X137457924Y-86244857D02*
X137457924Y-85244857D01*
X138457924Y-86244857D02*
X137457924Y-86244857D01*
X150457924Y-72244857D02*
X151457924Y-72244857D01*
X151457924Y-72244857D02*
X151457924Y-73244857D01*
X151457924Y-85244857D02*
X151457924Y-86244857D01*
X151457924Y-86244857D02*
X150457924Y-86244857D01*
%TO.C,S5*%
X137457924Y-55244857D02*
X138457924Y-55244857D01*
X137457924Y-56244857D02*
X137457924Y-55244857D01*
X137457924Y-69244857D02*
X137457924Y-68244857D01*
X138457924Y-69244857D02*
X137457924Y-69244857D01*
X150457924Y-55244857D02*
X151457924Y-55244857D01*
X151457924Y-55244857D02*
X151457924Y-56244857D01*
X151457924Y-68244857D02*
X151457924Y-69244857D01*
X151457924Y-69244857D02*
X150457924Y-69244857D01*
D11*
%TO.C,U1*%
X65600000Y-60920000D02*
X64100000Y-60920000D01*
X64100000Y-60920000D02*
X64100000Y-62920000D01*
X64100000Y-62920000D02*
X65600000Y-62920000D01*
X65600000Y-62920000D02*
X65600000Y-60920000D01*
X66470000Y-37760000D02*
X68470000Y-37760000D01*
X68470000Y-37760000D02*
X68470000Y-39260000D01*
X68470000Y-39260000D02*
X66470000Y-39260000D01*
X66470000Y-39260000D02*
X66470000Y-37760000D01*
X66470000Y-40300000D02*
X68470000Y-40300000D01*
X68470000Y-40300000D02*
X68470000Y-41800000D01*
X68470000Y-41800000D02*
X66470000Y-41800000D01*
X66470000Y-41800000D02*
X66470000Y-40300000D01*
X66470000Y-42840000D02*
X68470000Y-42840000D01*
X68470000Y-42840000D02*
X68470000Y-44340000D01*
X68470000Y-44340000D02*
X66470000Y-44340000D01*
X66470000Y-44340000D02*
X66470000Y-42840000D01*
X66470000Y-45380000D02*
X68470000Y-45380000D01*
X68470000Y-45380000D02*
X68470000Y-46880000D01*
X68470000Y-46880000D02*
X66470000Y-46880000D01*
X66470000Y-46880000D02*
X66470000Y-45380000D01*
X66470000Y-47920000D02*
X68470000Y-47920000D01*
X68470000Y-47920000D02*
X68470000Y-49420000D01*
X68470000Y-49420000D02*
X66470000Y-49420000D01*
X66470000Y-49420000D02*
X66470000Y-47920000D01*
X66470000Y-50460000D02*
X68470000Y-50460000D01*
X68470000Y-50460000D02*
X68470000Y-51960000D01*
X68470000Y-51960000D02*
X66470000Y-51960000D01*
X66470000Y-51960000D02*
X66470000Y-50460000D01*
X66470000Y-53000000D02*
X68470000Y-53000000D01*
X68470000Y-53000000D02*
X68470000Y-54500000D01*
X68470000Y-54500000D02*
X66470000Y-54500000D01*
X66470000Y-54500000D02*
X66470000Y-53000000D01*
X66470000Y-55540000D02*
X68470000Y-55540000D01*
X68470000Y-55540000D02*
X68470000Y-57040000D01*
X68470000Y-57040000D02*
X66470000Y-57040000D01*
X66470000Y-57040000D02*
X66470000Y-55540000D01*
X68140000Y-60920000D02*
X66640000Y-60920000D01*
X66640000Y-60920000D02*
X66640000Y-62920000D01*
X66640000Y-62920000D02*
X68140000Y-62920000D01*
X68140000Y-62920000D02*
X68140000Y-60920000D01*
X70680000Y-60920000D02*
X69180000Y-60920000D01*
X69180000Y-60920000D02*
X69180000Y-62920000D01*
X69180000Y-62920000D02*
X70680000Y-62920000D01*
X70680000Y-62920000D02*
X70680000Y-60920000D01*
X75760000Y-60920000D02*
X74260000Y-60920000D01*
X74260000Y-60920000D02*
X74260000Y-62920000D01*
X74260000Y-62920000D02*
X75760000Y-62920000D01*
X75760000Y-62920000D02*
X75760000Y-60920000D01*
X78300000Y-60920000D02*
X76800000Y-60920000D01*
X76800000Y-60920000D02*
X76800000Y-62920000D01*
X76800000Y-62920000D02*
X78300000Y-62920000D01*
X78300000Y-62920000D02*
X78300000Y-60920000D01*
X78470000Y-39260000D02*
X76470000Y-39260000D01*
X76470000Y-39260000D02*
X76470000Y-37760000D01*
X76470000Y-37760000D02*
X78470000Y-37760000D01*
X78470000Y-37760000D02*
X78470000Y-39260000D01*
X78470000Y-41800000D02*
X76470000Y-41800000D01*
X76470000Y-41800000D02*
X76470000Y-40300000D01*
X76470000Y-40300000D02*
X78470000Y-40300000D01*
X78470000Y-40300000D02*
X78470000Y-41800000D01*
X78470000Y-44340000D02*
X76470000Y-44340000D01*
X76470000Y-44340000D02*
X76470000Y-42840000D01*
X76470000Y-42840000D02*
X78470000Y-42840000D01*
X78470000Y-42840000D02*
X78470000Y-44340000D01*
X78470000Y-46880000D02*
X76470000Y-46880000D01*
X76470000Y-46880000D02*
X76470000Y-45380000D01*
X76470000Y-45380000D02*
X78470000Y-45380000D01*
X78470000Y-45380000D02*
X78470000Y-46880000D01*
X78470000Y-49420000D02*
X76470000Y-49420000D01*
X76470000Y-49420000D02*
X76470000Y-47920000D01*
X76470000Y-47920000D02*
X78470000Y-47920000D01*
X78470000Y-47920000D02*
X78470000Y-49420000D01*
X78470000Y-51960000D02*
X76470000Y-51960000D01*
X76470000Y-51960000D02*
X76470000Y-50460000D01*
X76470000Y-50460000D02*
X78470000Y-50460000D01*
X78470000Y-50460000D02*
X78470000Y-51960000D01*
X78470000Y-54500000D02*
X76470000Y-54500000D01*
X76470000Y-54500000D02*
X76470000Y-53000000D01*
X76470000Y-53000000D02*
X78470000Y-53000000D01*
X78470000Y-53000000D02*
X78470000Y-54500000D01*
X78470000Y-57040000D02*
X76470000Y-57040000D01*
X76470000Y-57040000D02*
X76470000Y-55540000D01*
X76470000Y-55540000D02*
X78470000Y-55540000D01*
X78470000Y-55540000D02*
X78470000Y-57040000D01*
X80840000Y-60920000D02*
X79340000Y-60920000D01*
X79340000Y-60920000D02*
X79340000Y-62920000D01*
X79340000Y-62920000D02*
X80840000Y-62920000D01*
X80840000Y-62920000D02*
X80840000Y-60920000D01*
D10*
%TO.C,S4*%
X119457924Y-51544857D02*
X120457924Y-51544857D01*
X119457924Y-52544857D02*
X119457924Y-51544857D01*
X119457924Y-65544857D02*
X119457924Y-64544857D01*
X120457924Y-65544857D02*
X119457924Y-65544857D01*
X132457924Y-51544857D02*
X133457924Y-51544857D01*
X133457924Y-51544857D02*
X133457924Y-52544857D01*
X133457924Y-64544857D02*
X133457924Y-65544857D01*
X133457924Y-65544857D02*
X132457924Y-65544857D01*
%TO.C,S24*%
X119457924Y-85544857D02*
X120457924Y-85544857D01*
X119457924Y-86544857D02*
X119457924Y-85544857D01*
X119457924Y-99544857D02*
X119457924Y-98544857D01*
X120457924Y-99544857D02*
X119457924Y-99544857D01*
X132457924Y-85544857D02*
X133457924Y-85544857D01*
X133457924Y-85544857D02*
X133457924Y-86544857D01*
X133457924Y-98544857D02*
X133457924Y-99544857D01*
X133457924Y-99544857D02*
X132457924Y-99544857D01*
%TO.C,S30*%
X101457924Y-95944857D02*
X102457924Y-95944857D01*
X101457924Y-96944857D02*
X101457924Y-95944857D01*
X101457924Y-109944857D02*
X101457924Y-108944857D01*
X102457924Y-109944857D02*
X101457924Y-109944857D01*
X114457924Y-95944857D02*
X115457924Y-95944857D01*
X115457924Y-95944857D02*
X115457924Y-96944857D01*
X115457924Y-108944857D02*
X115457924Y-109944857D01*
X115457924Y-109944857D02*
X114457924Y-109944857D01*
%TO.C,S12*%
X83457924Y-68802857D02*
X84457924Y-68802857D01*
X83457924Y-69802857D02*
X83457924Y-68802857D01*
X83457924Y-82802857D02*
X83457924Y-81802857D01*
X84457924Y-82802857D02*
X83457924Y-82802857D01*
X96457924Y-68802857D02*
X97457924Y-68802857D01*
X97457924Y-68802857D02*
X97457924Y-69802857D01*
X97457924Y-81802857D02*
X97457924Y-82802857D01*
X97457924Y-82802857D02*
X96457924Y-82802857D01*
%TO.C,S31*%
X139899456Y-109780972D02*
X140782403Y-110250443D01*
X139429984Y-110663920D02*
X139899456Y-109780972D01*
X133326854Y-122142238D02*
X133796325Y-121259291D01*
X134209802Y-122611710D02*
X133326854Y-122142238D01*
X151377774Y-115884102D02*
X152260722Y-116353574D01*
X152260722Y-116353574D02*
X151791251Y-117236521D01*
X146157592Y-127831892D02*
X145688120Y-128714840D01*
X145688120Y-128714840D02*
X144805173Y-128245369D01*
%TO.C,S3*%
X101457924Y-44944857D02*
X102457924Y-44944857D01*
X101457924Y-45944857D02*
X101457924Y-44944857D01*
X101457924Y-58944857D02*
X101457924Y-57944857D01*
X102457924Y-58944857D02*
X101457924Y-58944857D01*
X114457924Y-44944857D02*
X115457924Y-44944857D01*
X115457924Y-44944857D02*
X115457924Y-45944857D01*
X115457924Y-57944857D02*
X115457924Y-58944857D01*
X115457924Y-58944857D02*
X114457924Y-58944857D01*
%TO.C,S11*%
X65457924Y-78944857D02*
X66457924Y-78944857D01*
X65457924Y-79944857D02*
X65457924Y-78944857D01*
X65457924Y-92944857D02*
X65457924Y-91944857D01*
X66457924Y-92944857D02*
X65457924Y-92944857D01*
X78457924Y-78944857D02*
X79457924Y-78944857D01*
X79457924Y-78944857D02*
X79457924Y-79944857D01*
X79457924Y-91944857D02*
X79457924Y-92944857D01*
X79457924Y-92944857D02*
X78457924Y-92944857D01*
%TO.C,J1*%
X88930000Y-37070000D02*
X88930000Y-49170000D01*
X89180000Y-37070000D02*
X89180000Y-35070000D01*
X94780000Y-35070000D02*
X89180000Y-35070000D01*
X94780000Y-37070000D02*
X94780000Y-35070000D01*
X95030000Y-37070000D02*
X88930000Y-37070000D01*
X95030000Y-37070000D02*
X95030000Y-49170000D01*
X95030000Y-49170000D02*
X88930000Y-49170000D01*
%TD*%
D12*
%TO.C,U1*%
X75010000Y-60670000D03*
D13*
X78970000Y-48670000D03*
%TD*%
M02*
