%TF.GenerationSoftware,KiCad,Pcbnew,7.0.6*%
%TF.CreationDate,2023-11-22T12:36:20+08:00*%
%TF.ProjectId,tenten,74656e74-656e-42e6-9b69-6361645f7063,rev?*%
%TF.SameCoordinates,Original*%
%TF.FileFunction,Soldermask,Top*%
%TF.FilePolarity,Negative*%
%FSLAX46Y46*%
G04 Gerber Fmt 4.6, Leading zero omitted, Abs format (unit mm)*
G04 Created by KiCad (PCBNEW 7.0.6) date 2023-11-22 12:36:20*
%MOMM*%
%LPD*%
G01*
G04 APERTURE LIST*
G04 Aperture macros list*
%AMFreePoly0*
4,1,6,0.600000,-0.250000,-0.600000,-0.250000,-0.600000,1.000000,0.000000,0.400000,0.600000,1.000000,0.600000,-0.250000,0.600000,-0.250000,$1*%
%AMFreePoly1*
4,1,6,0.600000,0.200000,0.000000,-0.400000,-0.600000,0.200000,-0.600000,0.400000,0.600000,0.400000,0.600000,0.200000,0.600000,0.200000,$1*%
G04 Aperture macros list end*
%ADD10C,0.250000*%
%ADD11C,1.701800*%
%ADD12C,3.429000*%
%ADD13C,2.032000*%
%ADD14C,0.700000*%
%ADD15O,3.200000X1.300000*%
%ADD16O,2.500000X1.300000*%
%ADD17FreePoly0,90.000000*%
%ADD18FreePoly0,0.000000*%
%ADD19O,1.500000X2.500000*%
%ADD20FreePoly0,270.000000*%
%ADD21O,2.500000X1.500000*%
%ADD22FreePoly1,90.000000*%
%ADD23FreePoly1,0.000000*%
%ADD24FreePoly1,270.000000*%
%ADD25C,0.800000*%
%ADD26O,1.600000X2.000000*%
G04 APERTURE END LIST*
D10*
%TO.C,U1*%
X64975000Y-64529000D02*
G75*
G03*
X64975000Y-64529000I-125000J0D01*
G01*
X67515000Y-63640000D02*
G75*
G03*
X67515000Y-63640000I-125000J0D01*
G01*
X71595000Y-38510000D02*
G75*
G03*
X71595000Y-38510000I-125000J0D01*
G01*
X71595000Y-41050000D02*
G75*
G03*
X71595000Y-41050000I-125000J0D01*
G01*
X71595000Y-43590000D02*
G75*
G03*
X71595000Y-43590000I-125000J0D01*
G01*
X71595000Y-46130000D02*
G75*
G03*
X71595000Y-46130000I-125000J0D01*
G01*
X71595000Y-48670000D02*
G75*
G03*
X71595000Y-48670000I-125000J0D01*
G01*
X71595000Y-51210000D02*
G75*
G03*
X71595000Y-51210000I-125000J0D01*
G01*
X71595000Y-53750000D02*
G75*
G03*
X71595000Y-53750000I-125000J0D01*
G01*
X71595000Y-56290000D02*
G75*
G03*
X71595000Y-56290000I-125000J0D01*
G01*
X71595000Y-62116000D02*
G75*
G03*
X71595000Y-62116000I-125000J0D01*
G01*
X73595000Y-38510000D02*
G75*
G03*
X73595000Y-38510000I-125000J0D01*
G01*
X73595000Y-41050000D02*
G75*
G03*
X73595000Y-41050000I-125000J0D01*
G01*
X73595000Y-43590000D02*
G75*
G03*
X73595000Y-43590000I-125000J0D01*
G01*
X73595000Y-46130000D02*
G75*
G03*
X73595000Y-46130000I-125000J0D01*
G01*
X73595000Y-48670000D02*
G75*
G03*
X73595000Y-48670000I-125000J0D01*
G01*
X73595000Y-51210000D02*
G75*
G03*
X73595000Y-51210000I-125000J0D01*
G01*
X73595000Y-53750000D02*
G75*
G03*
X73595000Y-53750000I-125000J0D01*
G01*
X73595000Y-56290000D02*
G75*
G03*
X73595000Y-56290000I-125000J0D01*
G01*
X73595000Y-62116000D02*
G75*
G03*
X73595000Y-62116000I-125000J0D01*
G01*
X77675000Y-63386000D02*
G75*
G03*
X77675000Y-63386000I-125000J0D01*
G01*
X80215000Y-64529000D02*
G75*
G03*
X80215000Y-64529000I-125000J0D01*
G01*
%TD*%
D11*
%TO.C,S21*%
X66957924Y-102944857D03*
D12*
X72457924Y-102944857D03*
D11*
X77957924Y-102944857D03*
D13*
X72457924Y-108844857D03*
X67457924Y-106744857D03*
X77457924Y-106744857D03*
%TD*%
D11*
%TO.C,S1*%
X66957924Y-68944857D03*
D12*
X72457924Y-68944857D03*
D11*
X77957924Y-68944857D03*
D13*
X72457924Y-74844857D03*
X67457924Y-72744857D03*
X77457924Y-72744857D03*
%TD*%
D11*
%TO.C,S2*%
X84957924Y-58802857D03*
D12*
X90457924Y-58802857D03*
D11*
X95957924Y-58802857D03*
D13*
X90457924Y-64702857D03*
X85457924Y-62602857D03*
X95457924Y-62602857D03*
%TD*%
D14*
%TO.C,J3*%
X119527800Y-45443800D03*
X119527800Y-44593800D03*
X119527800Y-43743800D03*
X119527800Y-42893800D03*
X119527800Y-42043800D03*
X119527800Y-41193800D03*
X119527800Y-40343800D03*
X119527800Y-39493800D03*
X120877800Y-39493800D03*
X120877800Y-40343800D03*
X120877800Y-41193800D03*
X120877800Y-42043800D03*
X120877800Y-42893800D03*
X120877800Y-43743800D03*
X120877800Y-44593800D03*
X120877800Y-45443800D03*
D15*
X120027800Y-46788800D03*
D16*
X124177800Y-46788800D03*
D15*
X120027800Y-38148800D03*
D16*
X124177800Y-38148800D03*
%TD*%
D11*
%TO.C,S22*%
X84957924Y-92802857D03*
D12*
X90457924Y-92802857D03*
D11*
X95957924Y-92802857D03*
D13*
X90457924Y-98702857D03*
X85457924Y-96602857D03*
X95457924Y-96602857D03*
%TD*%
D11*
%TO.C,S14*%
X120957924Y-75544857D03*
D12*
X126457924Y-75544857D03*
D11*
X131957924Y-75544857D03*
D13*
X126457924Y-81444857D03*
X121457924Y-79344857D03*
X131457924Y-79344857D03*
%TD*%
D11*
%TO.C,S25*%
X138957924Y-96244857D03*
D12*
X144457924Y-96244857D03*
D11*
X149957924Y-96244857D03*
D13*
X144457924Y-102144857D03*
X139457924Y-100044857D03*
X149457924Y-100044857D03*
%TD*%
D11*
%TO.C,S23*%
X102957924Y-85944857D03*
D12*
X108457924Y-85944857D03*
D11*
X113957924Y-85944857D03*
D13*
X108457924Y-91844857D03*
X103457924Y-89744857D03*
X113457924Y-89744857D03*
%TD*%
D11*
%TO.C,S13*%
X102957924Y-68944857D03*
D12*
X108457924Y-68944857D03*
D11*
X113957924Y-68944857D03*
D13*
X108457924Y-74844857D03*
X103457924Y-72744857D03*
X113457924Y-72744857D03*
%TD*%
D11*
%TO.C,S32*%
X153813788Y-125137906D03*
D12*
X158670000Y-127720000D03*
D11*
X163526212Y-130302094D03*
D13*
X155900118Y-132929391D03*
X152471270Y-128727843D03*
X161300746Y-133422559D03*
%TD*%
D11*
%TO.C,S15*%
X138957924Y-79244857D03*
D12*
X144457924Y-79244857D03*
D11*
X149957924Y-79244857D03*
D13*
X144457924Y-85144857D03*
X139457924Y-83044857D03*
X149457924Y-83044857D03*
%TD*%
D11*
%TO.C,S5*%
X138957924Y-62244857D03*
D12*
X144457924Y-62244857D03*
D11*
X149957924Y-62244857D03*
D13*
X144457924Y-68144857D03*
X139457924Y-66044857D03*
X149457924Y-66044857D03*
%TD*%
D17*
%TO.C,U1*%
X68053000Y-38510000D03*
X68053000Y-41050000D03*
X68053000Y-43590000D03*
X68053000Y-46130000D03*
X68053000Y-48670000D03*
X68053000Y-51210000D03*
X68053000Y-53750000D03*
X68053000Y-56290000D03*
D18*
X64850000Y-62503000D03*
X67390000Y-62503000D03*
X69930000Y-62503000D03*
D19*
X72470000Y-59330000D03*
D18*
X75010000Y-62503000D03*
X77550000Y-62503000D03*
X80090000Y-62503000D03*
D20*
X76887000Y-56290000D03*
X76887000Y-53750000D03*
X76887000Y-51210000D03*
X76887000Y-48670000D03*
X76887000Y-46130000D03*
X76887000Y-43590000D03*
X76887000Y-41050000D03*
X76887000Y-38510000D03*
D21*
X64350000Y-38510000D03*
D22*
X67037000Y-38510000D03*
D21*
X64350000Y-41050000D03*
D22*
X67037000Y-41050000D03*
D21*
X64350000Y-43590000D03*
D22*
X67037000Y-43590000D03*
D21*
X64350000Y-46130000D03*
D22*
X67037000Y-46130000D03*
D21*
X64350000Y-48670000D03*
D22*
X67037000Y-48670000D03*
D21*
X64350000Y-51210000D03*
D22*
X67037000Y-51210000D03*
D21*
X64350000Y-53750000D03*
D22*
X67037000Y-53750000D03*
D21*
X64350000Y-56290000D03*
D22*
X67037000Y-56290000D03*
D21*
X64350000Y-58830000D03*
D23*
X64850000Y-61487000D03*
D19*
X67390000Y-59330000D03*
D23*
X67390000Y-61487000D03*
D19*
X69930000Y-59330000D03*
D23*
X69930000Y-61487000D03*
D19*
X75010000Y-59330000D03*
D23*
X75010000Y-61487000D03*
D19*
X77550000Y-59330000D03*
D23*
X77550000Y-61487000D03*
D21*
X80590000Y-58830000D03*
D23*
X80090000Y-61487000D03*
D24*
X77903000Y-56290000D03*
D21*
X80590000Y-56290000D03*
D24*
X77903000Y-53750000D03*
D21*
X80590000Y-53750000D03*
D24*
X77903000Y-51210000D03*
D21*
X80590000Y-51210000D03*
D24*
X77903000Y-48670000D03*
D21*
X80590000Y-48670000D03*
D24*
X77903000Y-46130000D03*
D21*
X80590000Y-46130000D03*
D24*
X77903000Y-43590000D03*
D21*
X80590000Y-43590000D03*
D24*
X77903000Y-41050000D03*
D21*
X80590000Y-41050000D03*
D24*
X77903000Y-38510000D03*
D21*
X80590000Y-38510000D03*
%TD*%
D11*
%TO.C,S4*%
X120957924Y-58544857D03*
D12*
X126457924Y-58544857D03*
D11*
X131957924Y-58544857D03*
D13*
X126457924Y-64444857D03*
X121457924Y-62344857D03*
X131457924Y-62344857D03*
%TD*%
D11*
%TO.C,S24*%
X120957924Y-92544857D03*
D12*
X126457924Y-92544857D03*
D11*
X131957924Y-92544857D03*
D13*
X126457924Y-98444857D03*
X121457924Y-96344857D03*
X131457924Y-96344857D03*
%TD*%
D11*
%TO.C,S30*%
X102957924Y-102944857D03*
D12*
X108457924Y-102944857D03*
D11*
X113957924Y-102944857D03*
D13*
X108457924Y-108844857D03*
X103457924Y-106744857D03*
X113457924Y-106744857D03*
%TD*%
D11*
%TO.C,S12*%
X84957924Y-75802857D03*
D12*
X90457924Y-75802857D03*
D11*
X95957924Y-75802857D03*
D13*
X90457924Y-81702857D03*
X85457924Y-79602857D03*
X95457924Y-79602857D03*
%TD*%
D11*
%TO.C,S31*%
X137937576Y-116665812D03*
D12*
X142793788Y-119247906D03*
D11*
X147650000Y-121830000D03*
D13*
X140023906Y-124457297D03*
X136595058Y-120255749D03*
X145424534Y-124950465D03*
%TD*%
D11*
%TO.C,S3*%
X102957924Y-51944857D03*
D12*
X108457924Y-51944857D03*
D11*
X113957924Y-51944857D03*
D13*
X108457924Y-57844857D03*
X103457924Y-55744857D03*
X113457924Y-55744857D03*
%TD*%
D11*
%TO.C,S11*%
X66957924Y-85944857D03*
D12*
X72457924Y-85944857D03*
D11*
X77957924Y-85944857D03*
D13*
X72457924Y-91844857D03*
X67457924Y-89744857D03*
X77457924Y-89744857D03*
%TD*%
D25*
%TO.C,J1*%
X91980000Y-38670000D03*
X91980000Y-45670000D03*
D26*
X89680000Y-43270000D03*
X94280000Y-43270000D03*
X89680000Y-40270000D03*
X94280000Y-40270000D03*
X89680000Y-48370000D03*
X94280000Y-48370000D03*
X89680000Y-47270000D03*
X94280000Y-47270000D03*
%TD*%
M02*
