M48
; DRILL file {KiCad 7.0.6} date Wed Nov 22 12:36:22 2023
; FORMAT={-:-/ absolute / inch / decimal}
; #@! TF.CreationDate,2023-11-22T12:36:22+08:00
; #@! TF.GenerationSoftware,Kicad,Pcbnew,7.0.6
; #@! TF.FileFunction,Plated,1,2,PTH
FMAT,2
INCH
; #@! TA.AperFunction,Plated,PTH,ComponentDrill
T1C0.0157
; #@! TA.AperFunction,Plated,PTH,ComponentDrill
T2C0.0276
; #@! TA.AperFunction,Plated,PTH,ComponentDrill
T3C0.0354
; #@! TA.AperFunction,Plated,PTH,ComponentDrill
T4C0.0394
; #@! TA.AperFunction,Plated,PTH,ComponentDrill
T5C0.0500
%
G90
G05
T1
X2.5531Y-2.5405
X2.6531Y-2.5055
X2.8138Y-1.5161
X2.8138Y-1.6161
X2.8138Y-1.7161
X2.8138Y-1.8161
X2.8138Y-1.9161
X2.8138Y-2.0161
X2.8138Y-2.1161
X2.8138Y-2.2161
X2.8138Y-2.4455
X2.8925Y-1.5161
X2.8925Y-1.6161
X2.8925Y-1.7161
X2.8925Y-1.8161
X2.8925Y-1.9161
X2.8925Y-2.0161
X2.8925Y-2.1161
X2.8925Y-2.2161
X2.8925Y-2.4455
X3.0531Y-2.4955
X3.1531Y-2.5405
X4.7058Y-1.5549
X4.7058Y-1.5883
X4.7058Y-1.6218
X4.7058Y-1.6553
X4.7058Y-1.6887
X4.7058Y-1.7222
X4.7058Y-1.7557
X4.7058Y-1.7891
X4.759Y-1.5549
X4.759Y-1.5883
X4.759Y-1.6218
X4.759Y-1.6553
X4.759Y-1.6887
X4.759Y-1.7222
X4.759Y-1.7557
X4.759Y-1.7891
T4
X2.5531Y-1.5161
X2.5531Y-1.6161
X2.5531Y-1.7161
X2.5531Y-1.8161
X2.5531Y-1.9161
X2.5531Y-2.0161
X2.5531Y-2.1161
X2.5531Y-2.2161
X2.5531Y-2.3161
X2.6531Y-2.3161
X2.7531Y-2.3161
X2.8531Y-2.3161
X2.9531Y-2.3161
X3.0531Y-2.3161
X3.1531Y-1.5161
X3.1531Y-1.6161
X3.1531Y-1.7161
X3.1531Y-1.8161
X3.1531Y-1.9161
X3.1531Y-2.0161
X3.1531Y-2.1161
X3.1531Y-2.2161
X3.1531Y-2.3161
T5
X2.6558Y-2.864
X2.6558Y-3.5333
X2.6558Y-4.2026
X2.8527Y-2.9466
X2.8527Y-3.6159
X2.8527Y-4.2852
X3.0495Y-2.864
X3.0495Y-3.5333
X3.0495Y-4.2026
X3.3645Y-2.4647
X3.3645Y-3.134
X3.3645Y-3.8033
X3.5613Y-2.5474
X3.5613Y-3.2166
X3.5613Y-3.8859
X3.7582Y-2.4647
X3.7582Y-3.134
X3.7582Y-3.8033
X4.0731Y-2.1947
X4.0731Y-2.864
X4.0731Y-3.5333
X4.0731Y-4.2026
X4.27Y-2.2774
X4.27Y-2.9466
X4.27Y-3.6159
X4.27Y-4.2852
X4.4668Y-2.1947
X4.4668Y-2.864
X4.4668Y-3.5333
X4.4668Y-4.2026
X4.7818Y-2.4545
X4.7818Y-3.1238
X4.7818Y-3.7931
X4.9787Y-2.5372
X4.9787Y-3.2065
X4.9787Y-3.8758
X5.1755Y-2.4545
X5.1755Y-3.1238
X5.1755Y-3.7931
X5.3778Y-4.7345
X5.4905Y-2.6002
X5.4905Y-3.2695
X5.4905Y-3.9388
X5.5128Y-4.8999
X5.6873Y-2.6829
X5.6873Y-3.3522
X5.6873Y-4.0215
X5.7254Y-4.9193
X5.8842Y-2.6002
X5.8842Y-3.2695
X5.8842Y-3.9388
X6.0028Y-5.068
X6.1378Y-5.2334
X6.3504Y-5.2529
T2
G00X4.6999Y-1.5019
M15
G01X4.7511Y-1.5019
M16
G05
G00X4.6999Y-1.8421
M15
G01X4.7511Y-1.8421
M16
G05
G00X4.8712Y-1.5019
M15
G01X4.9066Y-1.5019
M16
G05
G00X4.8712Y-1.8421
M15
G01X4.9066Y-1.8421
M16
G05
T3
G00X3.5307Y-1.5776
M15
G01X3.5307Y-1.5933
M16
G05
G00X3.5307Y-1.6957
M15
G01X3.5307Y-1.7114
M16
G05
G00X3.5307Y-1.8531
M15
G01X3.5307Y-1.8689
M16
G05
G00X3.5307Y-1.8965
M15
G01X3.5307Y-1.9122
M16
G05
G00X3.7118Y-1.5776
M15
G01X3.7118Y-1.5933
M16
G05
G00X3.7118Y-1.6957
M15
G01X3.7118Y-1.7114
M16
G05
G00X3.7118Y-1.8531
M15
G01X3.7118Y-1.8689
M16
G05
G00X3.7118Y-1.8965
M15
G01X3.7118Y-1.9122
M16
G05
T0
M30
