%TF.GenerationSoftware,KiCad,Pcbnew,7.0.6*%
%TF.CreationDate,2023-11-22T22:17:55+08:00*%
%TF.ProjectId,handfull,68616e64-6675-46c6-9c2e-6b696361645f,rev?*%
%TF.SameCoordinates,Original*%
%TF.FileFunction,Profile,NP*%
%FSLAX46Y46*%
G04 Gerber Fmt 4.6, Leading zero omitted, Abs format (unit mm)*
G04 Created by KiCad (PCBNEW 7.0.6) date 2023-11-22 22:17:55*
%MOMM*%
%LPD*%
G01*
G04 APERTURE LIST*
%TA.AperFunction,Profile*%
%ADD10C,0.100000*%
%TD*%
G04 APERTURE END LIST*
D10*
X76990000Y-117520000D02*
X113080000Y-117930000D01*
X194130000Y-161670000D02*
X206200000Y-139020000D01*
X204725000Y-47320000D02*
X149775000Y-47320000D01*
X167110000Y-51690000D02*
X167110000Y-47790000D01*
X165780000Y-138340000D02*
X176570000Y-144400000D01*
X206190000Y-127540000D02*
X191970000Y-120150000D01*
X204500000Y-86000000D02*
X204500000Y-47310000D01*
X76990000Y-49240000D02*
X76990000Y-117520000D01*
X130790000Y-44680000D02*
X130790000Y-40870000D01*
X113240000Y-113380000D02*
X142230000Y-113470000D01*
X164290000Y-128390000D02*
X165780000Y-138340000D01*
X112760000Y-44680000D02*
X130790000Y-44680000D01*
X177530000Y-152860000D02*
X194130000Y-161670000D01*
X112760000Y-49240000D02*
X112760000Y-44680000D01*
X113080000Y-117930000D02*
X113240000Y-113380000D01*
X149900000Y-47790000D02*
X149900000Y-40890000D01*
X196060000Y-102080000D02*
X204500000Y-86000000D01*
X176570000Y-144400000D02*
X177530000Y-152860000D01*
X76990000Y-49240000D02*
X112760000Y-49240000D01*
X191970000Y-120150000D02*
X196060000Y-102080000D01*
X142230000Y-113470000D02*
X164290000Y-128390000D01*
X149900000Y-40890000D02*
X130820000Y-40890000D01*
X206200000Y-139020000D02*
X206200000Y-120250000D01*
M02*
